<?xml version="1.0" encoding="utf-8"?>
<!-- Generator: Adobe Illustrator 25.4.1, SVG Export Plug-In . SVG Version: 6.00 Build 0)  -->
<svg version="1.1" id="Capa_1" xmlns="http://www.w3.org/2000/svg" xmlns:xlink="http://www.w3.org/1999/xlink" x="0px" y="0px"
	 width="296px" height="133.5px" viewBox="0 0 296 133.5" style="enable-background:new 0 0 296 133.5;" xml:space="preserve">
<g>
	<g>
		<path d="M102.7,128.5c-0.2-0.2-0.3-0.5-0.3-0.8v-6.8h-2.2c-0.7,0-1-0.3-1-0.9c0-0.6,0.3-0.8,1-0.8h6.5c0.7,0,1,0.2,1,0.8
			c0,0.6-0.3,0.9-1,0.9h-2.2v6.8c0,0.3-0.1,0.6-0.2,0.8c-0.2,0.2-0.5,0.2-0.8,0.2C103.2,128.9,103,128.8,102.7,128.5z"/>
		<path d="M109,128.5c-0.2-0.2-0.2-0.5-0.2-0.8v-7.5c0-0.3,0.1-0.6,0.2-0.8c0.2-0.2,0.5-0.2,0.8-0.2c0.3,0,0.6,0.1,0.8,0.2
			c0.2,0.2,0.2,0.5,0.2,0.8v7.5c0,0.3-0.1,0.6-0.2,0.8c-0.2,0.2-0.5,0.2-0.8,0.2C109.5,128.9,109.1,128.8,109,128.5z"/>
		<path d="M113,128.5c-0.1-0.1-0.2-0.5-0.2-0.7v-7.5c0-0.3,0.1-0.6,0.2-0.7s0.5-0.2,0.7-0.2h4.8c0.7,0,1,0.2,1,0.8
			c0,0.6-0.3,0.8-1,0.8h-3.8v2.3h3.4c0.7,0,1,0.2,1,0.8s-0.3,0.8-1,0.8h-3.4v2.4h3.8c0.7,0,1,0.2,1,0.8c0,0.6-0.3,0.8-1,0.8h-4.8
			C113.3,128.8,113.1,128.6,113,128.5z"/>
		<path d="M129.8,119.5c0.2,0.2,0.2,0.5,0.2,0.8v7.6c0,0.3-0.1,0.6-0.2,0.7s-0.3,0.2-0.7,0.2c-0.2,0-0.5-0.1-0.7-0.2
			c-0.1-0.1-0.2-0.5-0.2-0.7v-4.8l-1.9,3.6c-0.1,0.2-0.2,0.5-0.5,0.6c-0.1,0.1-0.3,0.1-0.6,0.1s-0.3,0-0.6-0.1
			c-0.1-0.1-0.3-0.2-0.5-0.6l-1.9-3.5v4.7c0,0.3-0.1,0.6-0.2,0.7c-0.1,0.2-0.3,0.2-0.7,0.2c-0.2,0-0.5-0.1-0.7-0.2
			c-0.1-0.1-0.2-0.5-0.2-0.7v-7.6c0-0.3,0.1-0.6,0.2-0.8c0.2-0.2,0.5-0.3,0.7-0.3c0.5,0,0.8,0.2,1,0.7l2.7,5.2l2.7-5.2
			c0.2-0.5,0.6-0.7,1-0.7C129.4,119.2,129.6,119.3,129.8,119.5z"/>
		<path d="M132.3,128.5c-0.2-0.2-0.2-0.5-0.2-0.8v-7.5c0-0.3,0.1-0.6,0.2-0.7s0.5-0.2,0.7-0.2h3.4c1,0,1.8,0.2,2.4,0.8
			s0.9,1.3,0.9,2.2s-0.3,1.7-0.9,2.2c-0.6,0.6-1.4,0.8-2.4,0.8h-2.3v2.6c0,0.3-0.1,0.6-0.2,0.8c-0.2,0.2-0.5,0.2-0.8,0.2
			C132.8,128.9,132.4,128.8,132.3,128.5z M136.1,123.6c1,0,1.6-0.5,1.6-1.4c0-0.9-0.6-1.4-1.6-1.4h-2v2.7
			C134,123.6,136.1,123.6,136.1,123.6z"/>
		<path d="M142.9,128.3c-0.7-0.5-1.3-0.9-1.6-1.7c-0.3-0.7-0.6-1.6-0.6-2.6s0.2-1.8,0.6-2.6c0.3-0.7,0.9-1.3,1.6-1.7
			c0.7-0.3,1.5-0.6,2.5-0.6c0.9,0,1.7,0.2,2.5,0.6c0.7,0.3,1.3,0.9,1.6,1.7c0.3,0.7,0.6,1.6,0.6,2.6s-0.2,1.8-0.6,2.6
			c-0.3,0.7-0.9,1.3-1.6,1.7c-0.7,0.5-1.5,0.6-2.5,0.6C144.5,128.9,143.6,128.6,142.9,128.3z M147.2,126.4c0.5-0.6,0.7-1.4,0.7-2.4
			s-0.2-1.8-0.7-2.4s-1-0.8-1.8-0.8s-1.4,0.2-1.8,0.8c-0.5,0.6-0.7,1.4-0.7,2.4s0.2,1.8,0.7,2.4c0.5,0.6,1,0.8,1.8,0.8
			C146.2,127.3,146.8,126.9,147.2,126.4z"/>
		<path d="M153,128.6c-0.6-0.1-1.1-0.5-1.5-0.7c-0.1-0.1-0.2-0.2-0.3-0.3c-0.1-0.1-0.1-0.2-0.1-0.5c0-0.2,0.1-0.5,0.2-0.6
			s0.3-0.2,0.5-0.2s0.2,0,0.3,0c0.1,0,0.2,0.1,0.3,0.1c0.3,0.2,0.8,0.5,1.1,0.6s0.8,0.1,1.3,0.1c0.6,0,1-0.1,1.4-0.3
			c0.3-0.2,0.5-0.5,0.5-0.8c0-0.2-0.1-0.5-0.5-0.7c-0.3-0.1-0.8-0.3-1.6-0.5s-1.5-0.3-2-0.6c-0.5-0.2-0.9-0.6-1.1-0.9
			c-0.2-0.3-0.3-0.8-0.3-1.3c0-0.6,0.1-1,0.5-1.5c0.3-0.5,0.8-0.8,1.4-1c0.6-0.2,1.3-0.3,1.9-0.3c1.3,0,2.3,0.3,3.2,0.9
			c0.1,0.1,0.2,0.2,0.3,0.3c0.1,0.1,0.1,0.2,0.1,0.5c0,0.2-0.1,0.5-0.2,0.6s-0.3,0.2-0.5,0.2s-0.2,0-0.2,0s-0.2-0.1-0.3-0.2
			c-0.3-0.2-0.7-0.5-1-0.6c-0.3-0.1-0.7-0.2-1.1-0.2c-0.6,0-1,0.1-1.3,0.3c-0.3,0.2-0.5,0.5-0.5,0.9c0,0.2,0.1,0.3,0.2,0.6
			c0.1,0.1,0.3,0.2,0.6,0.3c0.2,0.1,0.7,0.2,1.3,0.3c1.3,0.2,2,0.6,2.6,1c0.6,0.5,0.8,1,0.8,1.7c0,0.6-0.1,1.1-0.5,1.5
			c-0.3,0.5-0.8,0.8-1.4,1s-1.3,0.3-2,0.3C154.4,128.9,153.7,128.8,153,128.6z"/>
		<path d="M164.4,128.5c-0.1-0.1-0.2-0.5-0.2-0.7v-7.5c0-0.3,0.1-0.6,0.2-0.7s0.5-0.2,0.7-0.2h2.7c1,0,1.9,0.2,2.6,0.6
			c0.8,0.3,1.4,0.9,1.7,1.6c0.3,0.7,0.6,1.6,0.6,2.5c0,0.9-0.2,1.8-0.6,2.5c-0.3,0.7-0.9,1.3-1.7,1.6c-0.8,0.3-1.6,0.6-2.7,0.6H165
			C164.9,128.8,164.6,128.6,164.4,128.5z M167.7,127c2,0,3.1-1,3.1-3.1c0-2-1-3.1-3.1-3.1h-1.5v6.1C166.2,127,167.7,127,167.7,127z"
			/>
		<path d="M174.7,128.5c-0.1-0.1-0.2-0.5-0.2-0.7v-7.5c0-0.3,0.1-0.6,0.2-0.7s0.5-0.2,0.7-0.2h4.8c0.7,0,1,0.2,1,0.8
			c0,0.6-0.3,0.8-1,0.8h-3.8v2.3h3.4c0.7,0,1,0.2,1,0.8s-0.3,0.8-1,0.8h-3.4v2.4h3.8c0.7,0,1,0.2,1,0.8c0,0.6-0.3,0.8-1,0.8h-4.8
			C175.1,128.8,174.9,128.6,174.7,128.5z"/>
		<path d="M186.6,125.2c0-2,0.5-3.8,1.5-5.3c0.1-0.2,0.2-0.3,0.5-0.5s0.3-0.1,0.6-0.1s0.3,0,0.5,0.1c0.1,0.1,0.2,0.2,0.2,0.5
			c0,0.1,0,0.2-0.1,0.5c-0.3,0.8-0.6,1.6-0.7,2.4s-0.2,1.7-0.2,2.5c0,0.9,0.1,1.7,0.2,2.5c0.1,0.8,0.3,1.6,0.7,2.4
			c0,0.1,0.1,0.3,0.1,0.5c0,0.2-0.1,0.3-0.2,0.5c-0.1,0.1-0.2,0.1-0.5,0.1c-0.1,0-0.3,0-0.6-0.1s-0.3-0.2-0.5-0.5
			C187.1,129,186.6,127.2,186.6,125.2z"/>
		<path d="M199.2,128c0,0.2-0.1,0.5-0.3,0.6s-0.5,0.2-0.7,0.2c-0.2,0-0.3,0-0.5-0.1s-0.3-0.2-0.5-0.3l-1.8-2.6
			c-0.1-0.2-0.3-0.5-0.5-0.5c-0.1-0.1-0.3-0.1-0.7-0.1h-1.1v2.7c0,0.3-0.1,0.6-0.2,0.8c-0.2,0.2-0.5,0.2-0.8,0.2
			c-0.3,0-0.6-0.1-0.8-0.2c-0.2-0.2-0.2-0.5-0.2-0.8v-7.5c0-0.3,0.1-0.6,0.2-0.7c0.1-0.1,0.5-0.2,0.7-0.2h3.4c1.1,0,1.9,0.2,2.5,0.7
			c0.6,0.5,0.9,1.3,0.9,2.2c0,0.7-0.2,1.4-0.6,1.8c-0.5,0.5-1,0.8-1.7,0.9c0.2,0,0.5,0.1,0.7,0.3c0.2,0.1,0.5,0.3,0.6,0.7l1,1.5
			C199.2,127.6,199.2,127.8,199.2,128z M196.6,123.2c0.2-0.2,0.5-0.6,0.5-1c0-0.5-0.1-0.8-0.5-1c-0.2-0.2-0.7-0.3-1.3-0.3h-2v2.6h2
			C195.9,123.5,196.4,123.4,196.6,123.2z"/>
		<path d="M201.5,131c-0.2,0.1-0.3,0.1-0.6,0.1c-0.2,0-0.3,0-0.5-0.1s-0.2-0.2-0.2-0.5c0-0.1,0-0.2,0.1-0.5c0.3-0.8,0.6-1.6,0.7-2.4
			c0.1-0.8,0.2-1.6,0.2-2.5c0-0.9-0.1-1.7-0.2-2.5c-0.1-0.8-0.3-1.6-0.7-2.4c0-0.1-0.1-0.3-0.1-0.5c0-0.2,0.1-0.3,0.2-0.5
			c0.1-0.1,0.2-0.1,0.5-0.1c0.1,0,0.3,0,0.6,0.1s0.3,0.2,0.5,0.5c1,1.6,1.5,3.4,1.5,5.3c0,2-0.5,3.8-1.5,5.3
			C201.9,130.8,201.7,130.9,201.5,131z"/>
		<path d="M206.1,128.5c-0.1-0.1-0.2-0.5-0.2-0.7v-7.5c0-0.3,0.1-0.6,0.2-0.7c0.1-0.1,0.5-0.2,0.7-0.2h4.8c0.7,0,1,0.2,1,0.8
			c0,0.6-0.3,0.8-1,0.8h-3.8v2.3h3.4c0.7,0,1,0.2,1,0.8s-0.3,0.8-1,0.8h-3.4v2.4h3.8c0.7,0,1,0.2,1,0.8c0,0.6-0.3,0.8-1,0.8h-4.8
			C206.4,128.8,206.2,128.6,206.1,128.5z"/>
		<path d="M221.1,119.3c0.1-0.1,0.3-0.1,0.5-0.1c0.2,0,0.6,0.1,0.7,0.2c0.2,0.2,0.3,0.5,0.3,0.7c0,0.1,0,0.2-0.1,0.5l-3.6,7.7
			c-0.1,0.2-0.2,0.3-0.5,0.5s-0.5,0.1-0.7,0.1s-0.5,0-0.7-0.1c-0.2-0.1-0.3-0.2-0.5-0.5l-3.6-7.7c-0.1-0.1-0.1-0.2-0.1-0.3
			c0-0.2,0.1-0.5,0.3-0.7s0.5-0.2,0.8-0.2c0.2,0,0.3,0,0.6,0.1s0.2,0.2,0.3,0.5l2.8,6.3l2.8-6.3
			C220.8,119.5,220.9,119.4,221.1,119.3z"/>
		<path d="M225.3,128.3c-0.7-0.5-1.3-0.9-1.6-1.7c-0.3-0.7-0.6-1.6-0.6-2.6s0.2-1.8,0.6-2.6c0.3-0.7,0.9-1.3,1.6-1.7
			c0.7-0.3,1.5-0.6,2.5-0.6c0.9,0,1.7,0.2,2.5,0.6c0.7,0.3,1.3,0.9,1.6,1.7c0.3,0.8,0.6,1.6,0.6,2.6s-0.2,1.8-0.6,2.6
			c-0.3,0.7-0.9,1.3-1.6,1.7c-0.7,0.5-1.5,0.6-2.5,0.6S226,128.6,225.3,128.3z M229.6,126.4c0.5-0.6,0.7-1.4,0.7-2.4
			s-0.2-1.8-0.7-2.4c-0.5-0.6-1-0.8-1.8-0.8s-1.4,0.2-1.8,0.8c-0.5,0.6-0.7,1.4-0.7,2.4s0.2,1.8,0.7,2.4c0.5,0.6,1,0.8,1.8,0.8
			C228.5,127.3,229.2,126.9,229.6,126.4z"/>
		<path d="M234.2,128.5c-0.1-0.1-0.2-0.5-0.2-0.7v-7.5c0-0.3,0.1-0.6,0.2-0.8c0.2-0.2,0.5-0.2,0.8-0.2c0.3,0,0.6,0.1,0.8,0.2
			c0.2,0.2,0.2,0.5,0.2,0.8v6.8h3.4c0.7,0,1,0.3,1,0.9c0,0.6-0.3,0.8-1,0.8h-4.6C234.6,128.8,234.4,128.6,234.2,128.5z"/>
		<path d="M242.1,127.8c-0.7-0.7-1-1.7-1-3v-4.7c0-0.3,0.1-0.6,0.2-0.8c0.2-0.2,0.5-0.2,0.8-0.2c0.3,0,0.6,0.1,0.8,0.2
			c0.2,0.2,0.2,0.5,0.2,0.8v4.7c0,0.8,0.2,1.4,0.6,1.7c0.3,0.3,0.8,0.6,1.5,0.6c0.7,0,1.1-0.2,1.5-0.6c0.3-0.5,0.6-1,0.6-1.7v-4.7
			c0-0.3,0.1-0.6,0.2-0.8c0.2-0.2,0.5-0.2,0.8-0.2s0.6,0.1,0.8,0.2c0.2,0.2,0.2,0.5,0.2,0.8v4.7c0,1.4-0.3,2.3-1,3s-1.7,1-3.1,1
			C243.9,128.9,242.8,128.5,242.1,127.8z"/>
		<path d="M253.1,128.3c-0.7-0.3-1.3-0.9-1.6-1.7c-0.3-0.7-0.6-1.6-0.6-2.6s0.2-1.8,0.6-2.6c0.3-0.7,0.9-1.3,1.6-1.7
			c0.7-0.3,1.5-0.6,2.5-0.6c1.1,0,2.2,0.3,3.1,1c0.1,0.1,0.2,0.2,0.2,0.3c0,0.1,0.1,0.2,0.1,0.5s-0.1,0.5-0.2,0.6s-0.3,0.2-0.5,0.2
			s-0.2,0-0.3,0c-0.1,0-0.2-0.1-0.3-0.1c-0.3-0.2-0.7-0.5-1-0.5c-0.3-0.1-0.7-0.1-1-0.1c-0.9,0-1.5,0.2-1.9,0.8
			c-0.5,0.6-0.7,1.4-0.7,2.4c0,2.2,0.9,3.2,2.6,3.2c0.3,0,0.7,0,0.9-0.1c0.3-0.1,0.7-0.2,1-0.5c0.1-0.1,0.2-0.1,0.3-0.1s0.2,0,0.3,0
			c0.2,0,0.3,0.1,0.5,0.2c0.1,0.1,0.2,0.3,0.2,0.6c0,0.1,0,0.3-0.1,0.5s-0.1,0.2-0.2,0.3c-0.9,0.7-1.8,1-3.1,1
			C254.5,128.9,253.8,128.6,253.1,128.3z"/>
		<path d="M260.6,128.5c-0.2-0.2-0.2-0.5-0.2-0.8v-7.5c0-0.3,0.1-0.6,0.2-0.8c0.2-0.2,0.5-0.2,0.8-0.2c0.3,0,0.6,0.1,0.8,0.2
			c0.2,0.2,0.2,0.5,0.2,0.8v7.5c0,0.3-0.1,0.6-0.2,0.8c-0.2,0.2-0.5,0.2-0.8,0.2C260.9,128.9,260.7,128.8,260.6,128.5z"/>
		<path d="M266.2,128.3c-0.7-0.5-1.3-0.9-1.6-1.7c-0.3-0.7-0.6-1.6-0.6-2.6s0.2-1.8,0.6-2.6c0.3-0.7,0.9-1.3,1.6-1.7
			c0.7-0.3,1.5-0.6,2.5-0.6c0.9,0,1.7,0.2,2.5,0.6c0.7,0.3,1.3,0.9,1.6,1.7c0.3,0.7,0.6,1.6,0.6,2.6s-0.2,1.8-0.6,2.6
			c-0.3,0.7-0.9,1.3-1.6,1.7c-0.7,0.5-1.5,0.6-2.5,0.6S266.8,128.6,266.2,128.3z M270.5,126.4c0.5-0.6,0.7-1.4,0.7-2.4
			s-0.2-1.8-0.7-2.4c-0.5-0.6-1-0.8-1.8-0.8s-1.4,0.2-1.8,0.8c-0.5,0.6-0.7,1.4-0.7,2.4s0.2,1.8,0.7,2.4c0.5,0.6,1,0.8,1.8,0.8
			C269.3,127.3,270,126.9,270.5,126.4z M268.5,118.5c-0.1,0-0.2,0-0.3-0.1c-0.1-0.1-0.1-0.2-0.1-0.3c0-0.1,0.1-0.2,0.2-0.3l1.1-1.1
			c0.2-0.2,0.5-0.3,0.7-0.3c0.2,0,0.3,0.1,0.6,0.2c0.1,0.1,0.2,0.3,0.2,0.6c0,0.1,0,0.2-0.1,0.3c-0.1,0.1-0.2,0.2-0.5,0.3l-1.5,0.7
			C268.8,118.5,268.7,118.5,268.5,118.5z"/>
		<path d="M282.8,119.5c0.2,0.2,0.2,0.5,0.2,0.8v7.5c0,0.3-0.1,0.6-0.2,0.8c-0.2,0.2-0.5,0.3-0.7,0.3c-0.3,0-0.6-0.1-0.8-0.3
			l-4.6-5.8v5.1c0,0.3-0.1,0.6-0.2,0.8c-0.2,0.2-0.5,0.3-0.7,0.3c-0.3,0-0.6-0.1-0.7-0.3c-0.2-0.2-0.2-0.5-0.2-0.8v-7.5
			c0-0.3,0.1-0.6,0.2-0.8c0.2-0.2,0.5-0.3,0.7-0.3c0.3,0,0.6,0.1,0.8,0.3l4.6,5.7v-5c0-0.3,0.1-0.6,0.2-0.8c0.2-0.2,0.5-0.3,0.7-0.3
			C282.4,119.2,282.7,119.3,282.8,119.5z"/>
	</g>
	<g>
		<path d="M17.7,53.6c2.4,1.8,5.3,2.7,8.9,2.7c5.2,0,9.5-1.9,12.9-5.6c3.4-3.7,5.1-8.5,5.1-14.5c0-5.9-1.6-10.8-4.7-14.5
			c-3.2-3.7-7.5-5.6-12.7-5.6c-2,0-4,0.4-5.9,1.1c-0.9,0.4-1.8,0.8-2.5,1.3l0-15.5H4v52.4h13.6V53.6z M18.3,36.4
			c0-2.6,0.6-4.5,1.7-5.8c1.1-1.2,2.5-1.8,4.1-1.8c1.7,0,3.1,0.6,4.1,2c1.1,1.4,1.7,3.3,1.7,5.6c0,2.3-0.6,4.2-1.7,5.5
			c-1.1,1.3-2.4,1.9-4.1,1.9c-1.8,0-3.2-0.7-4.2-2C18.8,40.2,18.3,38.5,18.3,36.4z"/>
		<path d="M67.2,56.3c2.9,0,5.9-0.5,8.7-1.5c2.9-1,5.4-2.3,7.4-4.1l0.8-0.7l-5.4-10.3h4.9l0.1-1.1c0.2-1.7,0.3-3,0.3-3.9
			c0-5.4-1.6-9.9-4.8-13.4c-3.2-3.5-7.6-5.3-13.1-5.3c-6,0-10.9,1.9-14.5,5.7c-3.6,3.8-5.4,8.6-5.4,14.3c0,5.4,1.9,10.2,5.7,14.1
			C55.6,54.2,60.8,56.3,67.2,56.3z M61.8,30.4c1-2.5,2.8-2.9,4.1-2.9c1.1,0,2,0.4,2.7,1.1c0.4,0.5,0.7,1.1,0.9,1.8H61.8z M77.4,40.3
			c-3.4,2.3-6.5,3.4-9.2,3.4c-1.8,0-3.3-0.5-4.7-1.4c-0.9-0.6-1.6-1.5-2-2.5h16.7L77.4,40.3z"/>
		<path d="M92.9,33.1c-2.3,1-4.1,2.4-5.5,4.2c-1.4,1.9-2.1,4.1-2.1,6.7c0,3.5,1.2,6.4,3.7,8.7c2.4,2.3,5.6,3.5,9.3,3.5
			c2.3,0,4.5-0.5,6.6-1.5c1-0.5,2-1.1,2.8-1.8v2.5h13.5V32c0-4.9-1.6-8.8-4.7-11.7c-3.1-2.8-7.3-4.2-12.6-4.2
			c-2.9,0-5.9,0.5-8.9,1.5c-3,1-5.4,2.1-7.1,3.5l-0.8,0.6l5.3,10.7l1.2-0.8c3.2-2.1,6.3-3.2,9.2-3.2c3.1,0,3.7,1.2,3.8,2.1
			c-2.4,0-4.7,0.2-7,0.6C97.4,31.5,95.1,32.2,92.9,33.1z M106.8,39.9c-0.1,1.1-0.6,2.2-1.5,3.2c-1,1.1-2.1,1.6-3.4,1.6
			c-0.7,0-1.3-0.2-1.6-0.5c-0.4-0.3-0.5-0.8-0.5-1.3c0-0.6,0.2-1.5,1.8-2.1C103,40.2,104.8,39.9,106.8,39.9z"/>
		<path d="M141,40.2c0-3.1,0.7-5.5,2.2-7.1c1.4-1.6,3.6-2.4,6.5-2.4c1.5,0,1.9,0.1,2,0.1l1.6,0.5V16.7l-1-0.2
			c-0.6-0.1-1.2-0.2-1.6-0.2c-2.9,0-5.5,1-7.9,2.9c-0.9,0.7-1.6,1.5-2.3,2.3V17h-14.1v38.5H141V40.2z"/>
		<path d="M27.3,66.9c-2.9,0-5.5,1-7.9,2.9c-0.9,0.7-1.6,1.5-2.3,2.3v-4.6H3V106h14.6V90.8c0-3.1,0.7-5.5,2.2-7.1
			c1.4-1.6,3.6-2.4,6.5-2.4c1.5,0,2,0.1,2,0.1l1.6,0.5V67.3l-1-0.2C28.3,67,27.7,66.9,27.3,66.9z"/>
		<path d="M68.1,90.4l0.1-1.1c0.2-1.7,0.3-3,0.3-3.9c0-5.4-1.6-9.9-4.8-13.4c-3.2-3.5-7.6-5.3-13.1-5.3c-6,0-10.9,1.9-14.5,5.7
			c-3.6,3.8-5.4,8.6-5.4,14.3c0,5.4,1.9,10.2,5.6,14.1c3.8,4,8.9,6,15.4,6c2.9,0,5.9-0.5,8.7-1.5c2.9-1,5.4-2.3,7.4-4.1l0.8-0.7
			l-5.4-10.3H68.1z M50.4,78.1c1.1,0,2,0.4,2.7,1.1c0.4,0.5,0.7,1.1,0.9,1.8h-7.7C47.3,78.4,49.1,78.1,50.4,78.1z M61.9,90.9
			c-3.4,2.3-6.5,3.4-9.2,3.4c-1.8,0-3.3-0.5-4.7-1.4c-0.9-0.6-1.6-1.5-2-2.5h16.7L61.9,90.9z"/>
		<path d="M95.4,66.7c-3.9,0-7.1,1-9.6,3.1v-2.3H72.3V120h14.6v-14.7c0-0.2,0-0.4,0-0.6c2.4,1.5,5,2.2,7.9,2.2
			c5.2,0,9.5-1.9,12.9-5.6c3.4-3.7,5.1-8.5,5.1-14.5c0-5.9-1.6-10.8-4.7-14.5C104.9,68.6,100.6,66.7,95.4,66.7z M98.2,87
			c0,2.3-0.6,4.2-1.7,5.5c-1.1,1.3-2.4,1.9-4.1,1.9c-1.8,0-3.2-0.7-4.2-2c-1.1-1.5-1.6-3.2-1.6-5.3c0-2.6,0.6-4.5,1.7-5.8
			c1.1-1.2,2.5-1.8,4.1-1.8c1.7,0,3.1,0.6,4.1,2C97.6,82.8,98.2,84.7,98.2,87z"/>
		<path d="M139.7,84.7c0,2.6-0.6,4.7-1.7,6.4c-1.1,1.5-2.6,2.3-4.6,2.3c-1.3,0-2.6-0.4-2.6-3.5V67.6h-14.6v24.6
			c0,5.1,1.3,8.9,3.9,11.2c2.5,2.3,6,3.5,10.2,3.5c2.6,0,5.1-0.6,7.3-1.8c1-0.5,1.9-1.2,2.7-1.9v2.9h14.1V67.6h-14.6V84.7z"/>
		<path d="M182.9,66.7c-2,0-4,0.4-5.9,1.1c-0.9,0.4-1.8,0.8-2.5,1.3l0-15.5h-14.6V106h13.6v-1.8c2.4,1.8,5.3,2.7,8.9,2.7
			c5.2,0,9.5-1.9,12.9-5.6c3.4-3.7,5.1-8.5,5.1-14.5c0-5.9-1.6-10.8-4.7-14.5C192.4,68.6,188.1,66.7,182.9,66.7z M185.7,87
			c0,2.3-0.6,4.2-1.7,5.5c-1.1,1.3-2.4,1.9-4.1,1.9c-1.8,0-3.2-0.7-4.2-2c-1.1-1.5-1.6-3.2-1.6-5.3c0-2.6,0.6-4.5,1.7-5.8
			c1.1-1.2,2.5-1.8,4.1-1.8c1.7,0,3.1,0.6,4.1,2C185.1,82.8,185.7,84.7,185.7,87z"/>
		<path d="M220.7,93.3c-0.9,0-1.5-0.2-1.7-0.4c-0.1-0.2-0.4-0.9-0.4-2.9V53.6H204v37.9c0,3,0.4,5.6,1.2,7.6c0.8,2.2,2.1,3.8,3.7,4.8
			c1.5,1,3,1.6,4.5,2c1.5,0.3,3.2,0.5,5.1,0.5c0.8,0,2-0.1,3.7-0.2l1.1-0.1V93l-1.4,0.2C221.7,93.2,221.2,93.3,220.7,93.3z"/>
		<rect x="226.7" y="53.6" width="14.3" height="11.9"/>
		<rect x="226.6" y="67.6" width="14.6" height="38.5"/>
		<path d="M277.5,89.2l-1.2,1c-3.1,2.7-6.1,4-9,4c-2.5,0-4.3-0.7-5.7-2.3c-1.4-1.6-2.1-3.3-2.1-5.4c0-2,0.6-3.7,2-5.2
			c1.3-1.4,3-2.1,5.4-2.1c2.9,0,5.4,1,7.6,3.1l1.1,1.1l6.4-10.2l-0.7-0.7c-1.8-2-4.1-3.4-6.9-4.4c-2.7-1-5.5-1.4-8.3-1.4
			c-6.5,0-11.7,2-15.5,5.9c-3.8,3.9-5.8,8.7-5.8,14.1c0,5.5,1.9,10.3,5.8,14.2c3.8,3.9,9.1,5.9,15.5,5.9c3.1,0,6.2-0.6,9.1-1.7
			c2.9-1.1,5.4-2.7,7.3-4.6l0.6-0.6L277.5,89.2z"/>
	</g>
</g>
</svg>
