<?xml version="1.0" encoding="utf-8"?>
<!-- Generator: Adobe Illustrator 25.4.1, SVG Export Plug-In . SVG Version: 6.00 Build 0)  -->
<svg version="1.1" id="Capa_1" xmlns="http://www.w3.org/2000/svg" xmlns:xlink="http://www.w3.org/1999/xlink" x="0px" y="0px"
	 width="230.1px" height="108.9px" viewBox="0 0 230.1 108.9" style="enable-background:new 0 0 230.1 108.9;" xml:space="preserve"
	>
<g>
	<g>
		<path d="M82.2,105.5c-0.2-0.2-0.3-0.4-0.3-0.6v-5.6h-1.8c-0.6,0-0.8-0.3-0.8-0.7s0.3-0.6,0.8-0.6h5.3c0.6,0,0.8,0.2,0.8,0.6
			s-0.3,0.7-0.8,0.7h-1.8v5.6c0,0.3-0.1,0.5-0.2,0.6c-0.2,0.2-0.4,0.2-0.6,0.2C82.6,105.8,82.4,105.7,82.2,105.5z"/>
		<path d="M87.3,105.5c-0.2-0.2-0.2-0.4-0.2-0.6v-6.1c0-0.3,0.1-0.5,0.2-0.6c0.2-0.2,0.4-0.2,0.6-0.2c0.3,0,0.5,0.1,0.6,0.2
			c0.2,0.2,0.2,0.4,0.2,0.6v6.1c0,0.3-0.1,0.5-0.2,0.6c-0.2,0.2-0.4,0.2-0.6,0.2C87.7,105.8,87.4,105.7,87.3,105.5z"/>
		<path d="M90.6,105.5c-0.1-0.1-0.2-0.4-0.2-0.6v-6.1c0-0.3,0.1-0.5,0.2-0.6S91,98,91.2,98h3.9c0.6,0,0.8,0.2,0.8,0.6
			c0,0.5-0.3,0.6-0.8,0.6H92v1.9h2.8c0.6,0,0.8,0.2,0.8,0.6c0,0.5-0.3,0.6-0.8,0.6H92v1.9h3.1c0.6,0,0.8,0.2,0.8,0.6
			c0,0.5-0.3,0.6-0.8,0.6h-3.9C90.9,105.7,90.7,105.6,90.6,105.5z"/>
		<path d="M104.3,98.2c0.2,0.2,0.2,0.4,0.2,0.6v6.2c0,0.3-0.1,0.5-0.2,0.6s-0.3,0.2-0.6,0.2c-0.2,0-0.4-0.1-0.6-0.2
			c-0.1-0.1-0.2-0.4-0.2-0.6v-3.9l-1.6,3c-0.1,0.2-0.2,0.4-0.4,0.5c-0.1,0.1-0.3,0.1-0.5,0.1s-0.3,0-0.5-0.1
			c-0.1-0.1-0.3-0.2-0.4-0.5l-1.6-2.9v3.8c0,0.3-0.1,0.5-0.2,0.6c-0.1,0.2-0.3,0.2-0.6,0.2c-0.2,0-0.4-0.1-0.6-0.2
			c-0.1-0.1-0.2-0.4-0.2-0.6v-6.2c0-0.3,0.1-0.5,0.2-0.6c0.2-0.2,0.4-0.3,0.6-0.3c0.4,0,0.6,0.2,0.8,0.6l2.2,4.3l2.2-4.3
			c0.2-0.4,0.5-0.6,0.8-0.6C103.9,97.9,104.1,98,104.3,98.2z"/>
		<path d="M106.3,105.5c-0.2-0.2-0.2-0.4-0.2-0.6v-6.1c0-0.3,0.1-0.5,0.2-0.6s0.4-0.2,0.6-0.2h2.8c0.8,0,1.5,0.2,1.9,0.6
			c0.5,0.5,0.7,1,0.7,1.8s-0.3,1.4-0.7,1.8c-0.5,0.5-1.1,0.6-1.9,0.6h-1.9v2.1c0,0.3-0.1,0.5-0.2,0.6c-0.2,0.2-0.4,0.2-0.6,0.2
			C106.7,105.8,106.4,105.7,106.3,105.5z M109.4,101.5c0.8,0,1.3-0.4,1.3-1.1s-0.5-1.1-1.3-1.1h-1.7v2.2H109.4z"/>
		<path d="M114.9,105.3c-0.6-0.4-1-0.7-1.3-1.4c-0.3-0.6-0.5-1.3-0.5-2.1s0.2-1.5,0.5-2.1s0.7-1,1.3-1.4c0.6-0.3,1.2-0.5,2-0.5
			c0.7,0,1.4,0.2,2,0.5s1,0.7,1.3,1.4c0.3,0.6,0.5,1.3,0.5,2.1s-0.2,1.5-0.5,2.1s-0.7,1-1.3,1.4c-0.6,0.4-1.2,0.5-2,0.5
			C116.2,105.8,115.5,105.6,114.9,105.3z M118.5,103.7c0.4-0.5,0.6-1.1,0.6-1.9s-0.2-1.5-0.6-1.9c-0.4-0.5-0.8-0.6-1.5-0.6
			c-0.6,0-1.1,0.2-1.5,0.6s-0.6,1.1-0.6,1.9s0.2,1.5,0.6,1.9c0.4,0.5,0.8,0.6,1.5,0.6C117.6,104.5,118.1,104.2,118.5,103.7z"/>
		<path d="M123.2,105.6c-0.5-0.1-0.9-0.4-1.2-0.6c-0.1-0.1-0.2-0.2-0.3-0.3c-0.1-0.1-0.1-0.2-0.1-0.4c0-0.2,0.1-0.4,0.2-0.5
			s0.3-0.2,0.4-0.2s0.2,0,0.3,0s0.2,0.1,0.3,0.1c0.3,0.2,0.6,0.4,0.9,0.5s0.6,0.1,1,0.1c0.5,0,0.8-0.1,1.1-0.3
			c0.3-0.2,0.4-0.4,0.4-0.6s-0.1-0.4-0.4-0.6c-0.3-0.1-0.6-0.3-1.3-0.4c-0.6-0.1-1.2-0.3-1.7-0.5c-0.4-0.2-0.7-0.5-0.9-0.7
			s-0.3-0.6-0.3-1c0-0.5,0.1-0.8,0.4-1.2c0.3-0.4,0.6-0.6,1.1-0.8c0.5-0.2,1-0.3,1.6-0.3c1,0,1.9,0.3,2.6,0.7
			c0.1,0.1,0.2,0.2,0.3,0.3c0.1,0.1,0.1,0.2,0.1,0.4c0,0.2-0.1,0.4-0.2,0.5s-0.3,0.2-0.4,0.2s-0.2,0-0.2,0s-0.2-0.1-0.3-0.2
			c-0.3-0.2-0.6-0.4-0.8-0.5c-0.3-0.1-0.6-0.2-0.9-0.2c-0.5,0-0.8,0.1-1,0.3c-0.3,0.2-0.4,0.4-0.4,0.7c0,0.2,0.1,0.3,0.2,0.5
			c0.1,0.1,0.3,0.2,0.5,0.3c0.2,0.1,0.6,0.2,1,0.3c1,0.2,1.7,0.5,2.1,0.8s0.6,0.8,0.6,1.4c0,0.5-0.1,0.9-0.4,1.2
			c-0.3,0.4-0.6,0.6-1.1,0.8c-0.5,0.2-1,0.3-1.7,0.3C124.3,105.8,123.7,105.7,123.2,105.6z"/>
		<path d="M132.4,105.5c-0.1-0.1-0.2-0.4-0.2-0.6v-6.1c0-0.3,0.1-0.5,0.2-0.6c0.1-0.1,0.4-0.2,0.6-0.2h2.2c0.8,0,1.6,0.2,2.1,0.5
			c0.6,0.3,1.1,0.7,1.4,1.3c0.3,0.6,0.5,1.3,0.5,2s-0.2,1.5-0.5,2c-0.3,0.6-0.7,1-1.4,1.3c-0.6,0.3-1.3,0.5-2.2,0.5h-2.2
			C132.8,105.7,132.6,105.6,132.4,105.5z M135.1,104.3c1.7,0,2.5-0.8,2.5-2.5s-0.8-2.5-2.5-2.5h-1.2v5H135.1z"/>
		<path d="M140.8,105.5c-0.1-0.1-0.2-0.4-0.2-0.6v-6.1c0-0.3,0.1-0.5,0.2-0.6c0.1-0.1,0.4-0.2,0.6-0.2h3.9c0.6,0,0.8,0.2,0.8,0.6
			c0,0.5-0.3,0.6-0.8,0.6h-3.1v1.9h2.8c0.6,0,0.8,0.2,0.8,0.6c0,0.5-0.3,0.6-0.8,0.6h-2.8v1.9h3.1c0.6,0,0.8,0.2,0.8,0.6
			c0,0.5-0.3,0.6-0.8,0.6h-3.9C141.1,105.7,141,105.6,140.8,105.5z"/>
		<path d="M150.5,102.8c0-1.7,0.4-3.1,1.2-4.4c0.1-0.2,0.2-0.3,0.4-0.4s0.3-0.1,0.5-0.1s0.3,0,0.4,0.1c0.1,0.1,0.2,0.2,0.2,0.4
			c0,0.1,0,0.2-0.1,0.4c-0.3,0.6-0.5,1.3-0.6,1.9s-0.2,1.4-0.2,2c0,0.7,0.1,1.4,0.2,2c0.1,0.6,0.3,1.3,0.6,1.9
			c0,0.1,0.1,0.3,0.1,0.4c0,0.2-0.1,0.3-0.2,0.4c-0.1,0.1-0.2,0.1-0.4,0.1c-0.1,0-0.3,0-0.5-0.1s-0.3-0.2-0.4-0.4
			C150.9,105.9,150.5,104.4,150.5,102.8z"/>
		<path d="M160.8,105c0,0.2-0.1,0.4-0.3,0.5s-0.4,0.2-0.6,0.2s-0.3,0-0.4-0.1c-0.1-0.1-0.3-0.2-0.4-0.3l-1.5-2.1
			c-0.1-0.2-0.3-0.4-0.4-0.4c-0.1-0.1-0.3-0.1-0.6-0.1h-0.7v2.2c0,0.3-0.1,0.5-0.2,0.6c-0.2,0.2-0.4,0.2-0.6,0.2
			c-0.3,0-0.5-0.1-0.6-0.2c-0.2-0.2-0.2-0.4-0.2-0.6v-6.1c0-0.3,0.1-0.5,0.2-0.6c0.1-0.1,0.4-0.2,0.6-0.2h2.8c0.9,0,1.6,0.2,2,0.6
			c0.5,0.4,0.7,1,0.7,1.8c0,0.6-0.2,1.1-0.5,1.5c-0.4,0.4-0.8,0.6-1.4,0.7c0.2,0,0.4,0.1,0.6,0.3c0.2,0.1,0.4,0.3,0.5,0.6l0.8,1.2
			C160.8,104.8,160.8,105,160.8,105z M158.6,101.2c0.2-0.2,0.4-0.5,0.4-0.8s-0.1-0.6-0.4-0.8c-0.2-0.2-0.6-0.3-1-0.3h-1.7v2.1h1.7
			C158.1,101.4,158.5,101.3,158.6,101.2z"/>
		<path d="M162.6,107.5c-0.2,0.1-0.3,0.1-0.5,0.1s-0.3,0-0.4-0.1c-0.1-0.1-0.2-0.2-0.2-0.4c0-0.1,0-0.2,0.1-0.4
			c0.3-0.6,0.5-1.3,0.6-1.9s0.2-1.3,0.2-2s-0.1-1.4-0.2-2c-0.1-0.6-0.3-1.3-0.6-1.9c0-0.1-0.1-0.3-0.1-0.4c0-0.2,0.1-0.3,0.2-0.4
			c0.1-0.1,0.2-0.1,0.4-0.1c0.1,0,0.3,0,0.5,0.1s0.3,0.2,0.4,0.4c0.8,1.3,1.2,2.8,1.2,4.4c0,1.7-0.4,3.1-1.2,4.4
			C162.9,107.4,162.8,107.5,162.6,107.5z"/>
		<path d="M166.3,105.5c-0.1-0.1-0.2-0.4-0.2-0.6v-6.1c0-0.3,0.1-0.5,0.2-0.6c0.1-0.1,0.4-0.2,0.6-0.2h3.9c0.6,0,0.8,0.2,0.8,0.6
			c0,0.5-0.3,0.6-0.8,0.6h-3.1v1.9h2.8c0.6,0,0.8,0.2,0.8,0.6c0,0.5-0.3,0.6-0.8,0.6h-2.8v1.9h3.1c0.6,0,0.8,0.2,0.8,0.6
			c0,0.5-0.3,0.6-0.8,0.6h-3.9C166.6,105.7,166.4,105.6,166.3,105.5z"/>
		<path d="M178.6,98c0.1-0.1,0.3-0.1,0.4-0.1c0.2,0,0.5,0.1,0.6,0.2c0.2,0.2,0.3,0.4,0.3,0.6c0,0.1,0,0.2-0.1,0.4l-3,6.3
			c-0.1,0.2-0.2,0.3-0.4,0.4s-0.4,0.1-0.6,0.1c-0.2,0-0.4,0-0.6-0.1c-0.2-0.1-0.3-0.2-0.4-0.4l-3-6.3c-0.1-0.1-0.1-0.2-0.1-0.3
			c0-0.2,0.1-0.4,0.3-0.6s0.4-0.2,0.6-0.2c0.2,0,0.3,0,0.5,0.1s0.2,0.2,0.3,0.4l2.3,5.1l2.3-5.1C178.3,98.2,178.4,98.1,178.6,98z"/>
		<path d="M182,105.3c-0.6-0.4-1-0.7-1.3-1.4c-0.3-0.6-0.5-1.3-0.5-2.1s0.2-1.5,0.5-2.1s0.7-1,1.3-1.4c0.6-0.3,1.2-0.5,2-0.5
			c0.7,0,1.4,0.2,2,0.5s1,0.7,1.3,1.4c0.3,0.6,0.5,1.3,0.5,2.1s-0.2,1.5-0.5,2.1s-0.7,1-1.3,1.4s-1.2,0.5-2,0.5
			S182.5,105.6,182,105.3z M185.5,103.7c0.4-0.5,0.6-1.1,0.6-1.9s-0.2-1.5-0.6-1.9c-0.4-0.5-0.8-0.6-1.5-0.6c-0.6,0-1.1,0.2-1.5,0.6
			c-0.4,0.5-0.6,1.1-0.6,1.9s0.2,1.5,0.6,1.9c0.4,0.5,0.8,0.6,1.5,0.6C184.6,104.5,185.1,104.2,185.5,103.7z"/>
		<path d="M189.2,105.5c-0.1-0.1-0.2-0.4-0.2-0.6v-6.1c0-0.3,0.1-0.5,0.2-0.6c0.2-0.2,0.4-0.2,0.6-0.2c0.3,0,0.5,0.1,0.6,0.2
			c0.2,0.2,0.2,0.4,0.2,0.6v5.6h2.8c0.6,0,0.8,0.3,0.8,0.7s-0.3,0.6-0.8,0.6h-3.7C189.6,105.7,189.4,105.6,189.2,105.5z"/>
		<path d="M195.7,105c-0.6-0.6-0.8-1.4-0.8-2.4v-3.8c0-0.3,0.1-0.5,0.2-0.6c0.2-0.2,0.4-0.2,0.6-0.2c0.3,0,0.5,0.1,0.6,0.2
			c0.2,0.2,0.2,0.4,0.2,0.6v3.8c0,0.6,0.2,1.1,0.5,1.4s0.6,0.5,1.2,0.5s0.9-0.2,1.2-0.5c0.3-0.4,0.5-0.8,0.5-1.4v-3.8
			c0-0.3,0.1-0.5,0.2-0.6c0.2-0.2,0.4-0.2,0.6-0.2c0.3,0,0.5,0.1,0.6,0.2c0.2,0.2,0.2,0.4,0.2,0.6v3.8c0,1.1-0.3,1.9-0.8,2.4
			c-0.6,0.6-1.4,0.8-2.5,0.8S196.2,105.5,195.7,105z"/>
		<path d="M204.6,105.3c-0.6-0.3-1-0.7-1.3-1.4c-0.3-0.6-0.5-1.3-0.5-2.1s0.2-1.5,0.5-2.1s0.7-1,1.3-1.4c0.6-0.3,1.2-0.5,2-0.5
			c0.9,0,1.8,0.3,2.5,0.8c0.1,0.1,0.2,0.2,0.2,0.3s0.1,0.2,0.1,0.4s-0.1,0.4-0.2,0.5c-0.1,0.1-0.3,0.2-0.4,0.2s-0.2,0-0.3,0
			s-0.2-0.1-0.3-0.1c-0.3-0.2-0.6-0.4-0.8-0.4c-0.3-0.1-0.6-0.1-0.8-0.1c-0.7,0-1.2,0.2-1.6,0.6c-0.4,0.5-0.6,1.1-0.6,1.9
			c0,1.8,0.7,2.6,2.1,2.6c0.3,0,0.6,0,0.7-0.1c0.3-0.1,0.6-0.2,0.8-0.4c0.1-0.1,0.2-0.1,0.3-0.1s0.2,0,0.3,0c0.2,0,0.3,0.1,0.4,0.2
			c0.1,0.1,0.2,0.3,0.2,0.5c0,0.1,0,0.3-0.1,0.4s-0.1,0.2-0.2,0.3c-0.7,0.6-1.5,0.8-2.5,0.8C205.8,105.8,205.1,105.6,204.6,105.3z"
			/>
		<path d="M210.7,105.5c-0.2-0.2-0.2-0.4-0.2-0.6v-6.1c0-0.3,0.1-0.5,0.2-0.6c0.2-0.2,0.4-0.2,0.6-0.2s0.5,0.1,0.6,0.2
			c0.2,0.2,0.2,0.4,0.2,0.6v6.1c0,0.3-0.1,0.5-0.2,0.6c-0.2,0.2-0.4,0.2-0.6,0.2C211,105.8,210.8,105.7,210.7,105.5z"/>
		<path d="M215.2,105.3c-0.6-0.4-1-0.7-1.3-1.4c-0.3-0.6-0.5-1.3-0.5-2.1s0.2-1.5,0.5-2.1s0.7-1,1.3-1.4c0.6-0.3,1.2-0.5,2-0.5
			c0.7,0,1.4,0.2,2,0.5s1,0.7,1.3,1.4c0.3,0.6,0.5,1.3,0.5,2.1s-0.2,1.5-0.5,2.1s-0.7,1-1.3,1.4s-1.2,0.5-2,0.5
			S215.8,105.6,215.2,105.3z M218.7,103.7c0.4-0.5,0.6-1.1,0.6-1.9s-0.2-1.5-0.6-1.9c-0.4-0.5-0.8-0.6-1.5-0.6
			c-0.6,0-1.1,0.2-1.5,0.6c-0.4,0.5-0.6,1.1-0.6,1.9s0.2,1.5,0.6,1.9c0.4,0.5,0.8,0.6,1.5,0.6C217.8,104.5,218.4,104.2,218.7,103.7z
			 M217.2,97.4c-0.1,0-0.2,0-0.3-0.1s-0.1-0.2-0.1-0.3c0-0.1,0.1-0.2,0.2-0.3l0.9-0.9c0.2-0.2,0.4-0.3,0.6-0.3
			c0.2,0,0.3,0.1,0.5,0.2c0.1,0.1,0.2,0.3,0.2,0.5c0,0.1,0,0.2-0.1,0.3c-0.1,0.1-0.2,0.2-0.4,0.3l-1.2,0.6
			C217.4,97.4,217.3,97.4,217.2,97.4z"/>
		<path d="M228.7,98.2c0.2,0.2,0.2,0.4,0.2,0.6v6.1c0,0.3-0.1,0.5-0.2,0.6c-0.2,0.2-0.4,0.3-0.6,0.3c-0.3,0-0.5-0.1-0.6-0.3
			l-3.7-4.7v4.2c0,0.3-0.1,0.5-0.2,0.6c-0.2,0.2-0.4,0.3-0.6,0.3c-0.3,0-0.5-0.1-0.6-0.3c-0.2-0.2-0.2-0.4-0.2-0.6v-6.1
			c0-0.3,0.1-0.5,0.2-0.6c0.2-0.2,0.4-0.3,0.6-0.3c0.3,0,0.5,0.1,0.6,0.3l3.7,4.6v-4.1c0-0.3,0.1-0.5,0.2-0.6
			c0.2-0.2,0.4-0.3,0.6-0.3C228.5,97.9,228.6,98,228.7,98.2z"/>
	</g>
	<g>
		<path d="M13,44.5c1.9,1.4,4.3,2.2,7.2,2.2c4.2,0,7.8-1.5,10.5-4.5s4.1-6.9,4.1-11.8c0-4.8-1.3-8.8-3.9-11.8S24.8,14,20.6,14
			c-1.6,0-3.3,0.3-4.8,0.9c-0.8,0.3-1.4,0.6-2.1,1V3.3H1.9V46H13V44.5z M13.5,30.6c0-2.1,0.5-3.7,1.4-4.7s2-1.5,3.3-1.5
			c1.4,0,2.5,0.5,3.3,1.6c0.9,1.1,1.4,2.7,1.4,4.6c0,1.9-0.5,3.4-1.4,4.4s-2,1.5-3.3,1.5c-1.5,0-2.6-0.5-3.4-1.7
			C14,33.7,13.5,32.3,13.5,30.6z"/>
		<path d="M53.3,46.7c2.4,0,4.8-0.4,7.1-1.2c2.4-0.8,4.4-1.9,6-3.3l0.6-0.5l-4.4-8.4h4l0.1-0.9c0.2-1.4,0.2-2.5,0.2-3.2
			c0-4.4-1.3-8.1-3.9-10.9S56.8,14,52.3,14c-4.9,0-8.9,1.6-11.8,4.7c-2.9,3.1-4.4,7-4.4,11.6c0,4.4,1.5,8.3,4.6,11.5
			C43.9,45.1,48.1,46.7,53.3,46.7z M48.9,25.6c0.8-2.1,2.3-2.3,3.3-2.3c0.9,0,1.6,0.3,2.2,0.9c0.4,0.4,0.6,0.9,0.7,1.4H48.9z
			 M61.6,33.7c-2.8,1.8-5.3,2.8-7.5,2.8c-1.5,0-2.7-0.4-3.8-1.2c-0.7-0.5-1.3-1.2-1.6-2h13.6L61.6,33.7z"/>
		<path d="M74.3,27.9c-1.8,0.8-3.4,1.9-4.5,3.5c-1.2,1.5-1.7,3.4-1.7,5.4c0,2.8,1,5.2,3,7.1c2,1.9,4.5,2.8,7.6,2.8
			c1.8,0,3.7-0.4,5.4-1.2c0.9-0.4,1.6-0.9,2.3-1.5v2h11V27c0-4-1.3-7.2-3.8-9.5s-6-3.4-10.3-3.4c-2.4,0-4.8,0.4-7.2,1.2
			c-2.4,0.8-4.4,1.7-5.8,2.8l-0.7,0.5l4.3,8.7l1-0.6c2.6-1.7,5.1-2.6,7.5-2.6c2.5,0,3,1,3.1,1.7c-1.9,0-3.9,0.2-5.7,0.5
			C77.9,26.6,76,27.1,74.3,27.9z M85.6,33.4c-0.1,0.9-0.5,1.8-1.2,2.6c-0.8,0.9-1.7,1.3-2.8,1.3c-0.6,0-1-0.1-1.3-0.4
			c-0.3-0.3-0.4-0.6-0.4-1.1s0.2-1.2,1.4-1.7C82.5,33.7,83.9,33.4,85.6,33.4z"/>
		<path d="M113.4,33.6c0-2.5,0.6-4.4,1.8-5.8c1.2-1.3,2.9-2,5.3-2c1.2,0,1.6,0.1,1.7,0.1l1.3,0.4V14.5l-0.9-0.1
			c-0.5-0.1-0.9-0.1-1.3-0.1c-2.4,0-4.5,0.8-6.4,2.3c-0.7,0.6-1.3,1.2-1.9,1.9v-3.7h-11.5V46h11.9V33.6z"/>
		<path d="M20.9,55.4c-2.4,0-4.5,0.8-6.4,2.3c-0.7,0.6-1.3,1.2-1.9,1.9v-3.7H1.1v31.3H13V74.8c0-2.5,0.6-4.4,1.8-5.8
			c1.2-1.3,2.9-2,5.3-2c1.2,0,1.6,0.1,1.7,0.1l1.3,0.4V55.7l-0.9-0.1C21.6,55.4,21.2,55.4,20.9,55.4z"/>
		<path d="M54.1,74.5l0.1-0.9c0.2-1.4,0.2-2.5,0.2-3.2c0-4.4-1.3-8.1-3.9-10.9c-2.6-2.8-6.2-4.3-10.7-4.3c-4.9,0-8.9,1.6-11.8,4.7
			c-2.9,3.1-4.4,7-4.4,11.6c0,4.4,1.5,8.3,4.6,11.5s7.3,4.9,12.5,4.9c2.4,0,4.8-0.4,7.1-1.2c2.4-0.8,4.4-1.9,6-3.3l0.6-0.5L50,74.5
			H54.1z M39.7,64.5c0.9,0,1.6,0.3,2.2,0.9c0.4,0.4,0.6,0.9,0.7,1.4h-6.2C37.2,64.7,38.6,64.5,39.7,64.5z M49,74.9
			c-2.8,1.8-5.3,2.8-7.5,2.8c-1.5,0-2.7-0.4-3.8-1.2c-0.7-0.5-1.3-1.2-1.6-2h13.6L49,74.9z"/>
		<path d="M76.2,55.2c-3.2,0-5.8,0.8-7.8,2.5v-1.8H57.5v42.7h11.9v-12c0-0.2,0-0.3,0-0.5c1.9,1.2,4.1,1.8,6.4,1.8
			c4.2,0,7.8-1.5,10.5-4.5s4.1-6.9,4.1-11.8c0-4.8-1.3-8.8-3.9-11.8C84,56.8,80.5,55.2,76.2,55.2z M78.5,71.7c0,1.9-0.5,3.4-1.4,4.4
			s-2,1.5-3.3,1.5c-1.5,0-2.6-0.5-3.4-1.7c-0.9-1.2-1.3-2.6-1.3-4.3c0-2.1,0.5-3.7,1.4-4.7s2-1.5,3.3-1.5c1.4,0,2.5,0.5,3.3,1.6
			C78.1,68.3,78.5,69.8,78.5,71.7z"/>
		<path d="M112.3,69.9c0,2.1-0.5,3.8-1.4,5.2c-0.9,1.3-2.1,1.9-3.8,1.9c-1.1,0-2.1-0.3-2.1-2.8V55.9H93.2v20c0,4.1,1.1,7.2,3.1,9.1
			c2.1,1.9,4.8,2.9,8.3,2.9c2.1,0,4.1-0.5,5.9-1.5c0.8-0.4,1.5-1,2.2-1.6v2.4h11.5V55.9h-11.9V69.9z"/>
		<path d="M147.5,55.2c-1.6,0-3.3,0.3-4.8,0.9c-0.8,0.3-1.4,0.6-2.1,1V44.5h-11.9v42.7h11.1v-1.5c1.9,1.4,4.3,2.2,7.2,2.2
			c4.2,0,7.8-1.5,10.5-4.5s4.1-6.9,4.1-11.8c0-4.8-1.3-8.8-3.9-11.8C155.2,56.8,151.7,55.2,147.5,55.2z M149.7,71.7
			c0,1.9-0.5,3.4-1.4,4.4s-2,1.5-3.3,1.5c-1.5,0-2.6-0.5-3.4-1.7c-0.9-1.2-1.3-2.6-1.3-4.3c0-2.1,0.5-3.7,1.4-4.7s2-1.5,3.3-1.5
			c1.4,0,2.5,0.5,3.4,1.6C149.3,68.3,149.7,69.8,149.7,71.7z"/>
		<path d="M178.2,76.8c-0.7,0-1.2-0.1-1.3-0.3c-0.1-0.2-0.4-0.7-0.4-2.4V44.5h-11.9v30.8c0,2.5,0.3,4.6,1,6.2c0.7,1.8,1.7,3.1,3,3.9
			c1.2,0.8,2.5,1.3,3.7,1.6c1.2,0.3,2.6,0.4,4.2,0.4c0.6,0,1.6-0.1,3-0.2l0.9-0.1V76.6l-1.1,0.1C179,76.8,178.7,76.8,178.2,76.8z"/>
		<rect x="183.1" y="44.5" width="11.6" height="9.7"/>
		<rect x="183" y="55.9" width="11.9" height="31.3"/>
		<path d="M224.4,73.5l-1,0.8c-2.5,2.2-5,3.3-7.3,3.3c-2,0-3.5-0.6-4.6-1.8c-1.1-1.3-1.7-2.7-1.7-4.4c0-1.7,0.5-3,1.6-4.2
			c1-1.2,2.5-1.7,4.4-1.7c2.4,0,4.4,0.8,6.2,2.6l0.9,0.9l5.2-8.3l-0.5-0.6c-1.5-1.6-3.4-2.8-5.6-3.6c-2.2-0.8-4.5-1.2-6.8-1.2
			c-5.3,0-9.5,1.6-12.6,4.8s-4.7,7.1-4.7,11.5c0,4.5,1.6,8.4,4.7,11.6c3.1,3.2,7.4,4.8,12.6,4.8c2.5,0,5-0.5,7.4-1.4
			s4.4-2.2,5.9-3.8l0.5-0.5L224.4,73.5z"/>
	</g>
</g>
</svg>
