<?xml version="1.0" encoding="utf-8"?>
<!-- Generator: Adobe Illustrator 25.4.1, SVG Export Plug-In . SVG Version: 6.00 Build 0)  -->
<svg version="1.1" id="Capa_1" xmlns="http://www.w3.org/2000/svg" xmlns:xlink="http://www.w3.org/1999/xlink" x="0px" y="0px"
	 width="460px" height="195.9px" viewBox="0 0 460 195.9" style="enable-background:new 0 0 460 195.9;" xml:space="preserve">
<g>
	<g>
		<path d="M173.2,186.7c-0.4-0.4-0.5-0.7-0.5-1.1v-10h-3.2c-1.1,0-1.4-0.5-1.4-1.3s0.5-1.1,1.4-1.1h9.5c1.1,0,1.4,0.4,1.4,1.1
			s-0.5,1.3-1.4,1.3h-3.2v10c0,0.5-0.2,0.9-0.4,1.1c-0.4,0.4-0.7,0.4-1.1,0.4C173.9,187.3,173.6,187.1,173.2,186.7z"/>
		<path d="M182.4,186.7c-0.4-0.4-0.4-0.7-0.4-1.1v-10.9c0-0.5,0.2-0.9,0.4-1.1c0.4-0.4,0.7-0.4,1.1-0.4c0.5,0,0.9,0.2,1.1,0.4
			c0.4,0.4,0.4,0.7,0.4,1.1v10.9c0,0.5-0.2,0.9-0.4,1.1c-0.4,0.4-0.7,0.4-1.1,0.4C183.1,187.3,182.5,187.1,182.4,186.7z"/>
		<path d="M188.3,186.7c-0.2-0.2-0.4-0.7-0.4-1.1v-10.9c0-0.5,0.2-0.9,0.4-1.1s0.7-0.4,1.1-0.4h7c1.1,0,1.4,0.4,1.4,1.1
			c0,0.9-0.5,1.1-1.4,1.1h-5.5v3.4h5c1.1,0,1.4,0.4,1.4,1.1c0,0.9-0.5,1.1-1.4,1.1h-5v3.4h5.5c1.1,0,1.4,0.4,1.4,1.1
			c0,0.9-0.5,1.1-1.4,1.1h-7C188.8,187.1,188.4,186.9,188.3,186.7z"/>
		<path d="M212.8,173.7c0.4,0.4,0.4,0.7,0.4,1.1v11.1c0,0.5-0.2,0.9-0.4,1.1s-0.5,0.4-1.1,0.4c-0.4,0-0.7-0.2-1.1-0.4
			c-0.2-0.2-0.4-0.7-0.4-1.1v-7l-2.9,5.4c-0.2,0.4-0.4,0.7-0.7,0.9c-0.2,0.2-0.5,0.2-0.9,0.2s-0.5,0-0.9-0.2
			c-0.2-0.2-0.5-0.4-0.7-0.9l-2.9-5.2v6.8c0,0.5-0.2,0.9-0.4,1.1c-0.2,0.4-0.5,0.4-1.1,0.4c-0.4,0-0.7-0.2-1.1-0.4
			c-0.2-0.2-0.4-0.7-0.4-1.1v-11.1c0-0.5,0.2-0.9,0.4-1.1c0.4-0.4,0.7-0.5,1.1-0.5c0.7,0,1.1,0.4,1.4,1.1l3.9,7.7l3.9-7.7
			c0.4-0.7,0.9-1.1,1.4-1.1C212.1,173.1,212.4,173.3,212.8,173.7z"/>
		<path d="M216.4,186.7c-0.4-0.4-0.4-0.7-0.4-1.1v-10.9c0-0.5,0.2-0.9,0.4-1.1s0.7-0.4,1.1-0.4h5c1.4,0,2.7,0.4,3.4,1.1
			c0.9,0.9,1.3,1.8,1.3,3.2s-0.5,2.5-1.3,3.2c-0.9,0.9-2,1.1-3.4,1.1H219v3.8c0,0.5-0.2,0.9-0.4,1.1c-0.4,0.4-0.7,0.4-1.1,0.4
			C217.1,187.3,216.5,187.1,216.4,186.7z M221.9,179.6c1.4,0,2.3-0.7,2.3-2s-0.9-2-2.3-2h-3v3.9H221.9z"/>
		<path d="M231.8,186.4c-1.1-0.7-1.8-1.3-2.3-2.5c-0.5-1.1-0.9-2.3-0.9-3.8s0.4-2.7,0.9-3.8s1.3-1.8,2.3-2.5
			c1.1-0.5,2.1-0.9,3.6-0.9c1.3,0,2.5,0.4,3.6,0.9s1.8,1.3,2.3,2.5c0.5,1.1,0.9,2.3,0.9,3.8s-0.4,2.7-0.9,3.8s-1.3,1.8-2.3,2.5
			c-1.1,0.7-2.1,0.9-3.6,0.9C234.1,187.3,232.8,186.9,231.8,186.4z M238.2,183.5c0.7-0.9,1.1-2,1.1-3.4s-0.4-2.7-1.1-3.4
			c-0.7-0.9-1.4-1.1-2.7-1.1c-1.1,0-2,0.4-2.7,1.1s-1.1,2-1.1,3.4s0.4,2.7,1.1,3.4c0.7,0.9,1.4,1.1,2.7,1.1
			C236.6,185,237.5,184.4,238.2,183.5z"/>
		<path d="M246.6,186.9c-0.9-0.2-1.6-0.7-2.1-1.1c-0.2-0.2-0.4-0.4-0.5-0.5c-0.2-0.2-0.2-0.4-0.2-0.7c0-0.4,0.2-0.7,0.4-0.9
			s0.5-0.4,0.7-0.4s0.4,0,0.5,0s0.4,0.2,0.5,0.2c0.5,0.4,1.1,0.7,1.6,0.9s1.1,0.2,1.8,0.2c0.9,0,1.4-0.2,2-0.5
			c0.5-0.4,0.7-0.7,0.7-1.1s-0.2-0.7-0.7-1.1c-0.5-0.2-1.1-0.5-2.3-0.7c-1.1-0.2-2.1-0.5-3-0.9c-0.7-0.4-1.3-0.9-1.6-1.3
			s-0.5-1.1-0.5-1.8c0-0.9,0.2-1.4,0.7-2.1c0.5-0.7,1.1-1.1,2-1.4c0.9-0.4,1.8-0.5,2.9-0.5c1.8,0,3.4,0.5,4.7,1.3
			c0.2,0.2,0.4,0.4,0.5,0.5c0.2,0.2,0.2,0.4,0.2,0.7c0,0.4-0.2,0.7-0.4,0.9s-0.5,0.4-0.7,0.4s-0.4,0-0.4,0s-0.4-0.2-0.5-0.4
			c-0.5-0.4-1.1-0.7-1.4-0.9c-0.5-0.2-1.1-0.4-1.6-0.4c-0.9,0-1.4,0.2-1.8,0.5c-0.5,0.4-0.7,0.7-0.7,1.3c0,0.4,0.2,0.5,0.4,0.9
			c0.2,0.2,0.5,0.4,0.9,0.5c0.4,0.2,1.1,0.4,1.8,0.5c1.8,0.4,3,0.9,3.8,1.4s1.1,1.4,1.1,2.5c0,0.9-0.2,1.6-0.7,2.1
			c-0.5,0.7-1.1,1.1-2,1.4c-0.9,0.4-1.8,0.5-3,0.5C248.6,187.3,247.5,187.1,246.6,186.9z"/>
		<path d="M263.1,186.7c-0.2-0.2-0.4-0.7-0.4-1.1v-10.9c0-0.5,0.2-0.9,0.4-1.1c0.2-0.2,0.7-0.4,1.1-0.4h3.9c1.4,0,2.9,0.4,3.8,0.9
			c1.1,0.5,2,1.3,2.5,2.3c0.5,1.1,0.9,2.3,0.9,3.6s-0.4,2.7-0.9,3.6c-0.5,1.1-1.3,1.8-2.5,2.3c-1.1,0.5-2.3,0.9-3.9,0.9H264
			C263.8,187.1,263.4,186.9,263.1,186.7z M267.9,184.6c3,0,4.5-1.4,4.5-4.5s-1.4-4.5-4.5-4.5h-2.1v9H267.9z"/>
		<path d="M278.1,186.7c-0.2-0.2-0.4-0.7-0.4-1.1v-10.9c0-0.5,0.2-0.9,0.4-1.1c0.2-0.2,0.7-0.4,1.1-0.4h7c1.1,0,1.4,0.4,1.4,1.1
			c0,0.9-0.5,1.1-1.4,1.1h-5.5v3.4h5c1.1,0,1.4,0.4,1.4,1.1c0,0.9-0.5,1.1-1.4,1.1h-5v3.4h5.5c1.1,0,1.4,0.4,1.4,1.1
			c0,0.9-0.5,1.1-1.4,1.1h-7C278.7,187.1,278.5,186.9,278.1,186.7z"/>
		<path d="M295.5,181.9c0-3,0.7-5.5,2.1-7.9c0.2-0.4,0.4-0.5,0.7-0.7s0.5-0.2,0.9-0.2s0.5,0,0.7,0.2c0.2,0.2,0.4,0.4,0.4,0.7
			c0,0.2,0,0.4-0.2,0.7c-0.5,1.1-0.9,2.3-1.1,3.4s-0.4,2.5-0.4,3.6c0,1.3,0.2,2.5,0.4,3.6c0.2,1.1,0.5,2.3,1.1,3.4
			c0,0.2,0.2,0.5,0.2,0.7c0,0.4-0.2,0.5-0.4,0.7c-0.2,0.2-0.4,0.2-0.7,0.2c-0.2,0-0.5,0-0.9-0.2s-0.5-0.4-0.7-0.7
			C296.2,187.5,295.5,184.8,295.5,181.9z"/>
		<path d="M313.9,185.9c0,0.4-0.2,0.7-0.5,0.9s-0.7,0.4-1.1,0.4s-0.5,0-0.7-0.2c-0.2-0.2-0.5-0.4-0.7-0.5l-2.7-3.8
			c-0.2-0.4-0.5-0.7-0.7-0.7c-0.2-0.2-0.5-0.2-1.1-0.2h-1.3v3.9c0,0.5-0.2,0.9-0.4,1.1c-0.4,0.4-0.7,0.4-1.1,0.4
			c-0.5,0-0.9-0.2-1.1-0.4c-0.4-0.4-0.4-0.7-0.4-1.1v-10.9c0-0.5,0.2-0.9,0.4-1.1c0.2-0.2,0.7-0.4,1.1-0.4h5c1.6,0,2.9,0.4,3.6,1.1
			c0.9,0.7,1.3,1.8,1.3,3.2c0,1.1-0.4,2-0.9,2.7c-0.7,0.7-1.4,1.1-2.5,1.3c0.4,0,0.7,0.2,1.1,0.5c0.4,0.2,0.7,0.5,0.9,1.1l1.4,2.1
			C313.9,185.5,313.9,185.9,313.9,185.9z M310,179c0.4-0.4,0.7-0.9,0.7-1.4s-0.2-1.1-0.7-1.4c-0.4-0.4-1.1-0.5-1.8-0.5h-3v3.8h3
			C309.1,179.4,309.8,179.2,310,179z"/>
		<path d="M317.1,190.3c-0.4,0.2-0.5,0.2-0.9,0.2s-0.5,0-0.7-0.2c-0.2-0.2-0.4-0.4-0.4-0.7c0-0.2,0-0.4,0.2-0.7
			c0.5-1.1,0.9-2.3,1.1-3.4s0.4-2.3,0.4-3.6s-0.2-2.5-0.4-3.6c-0.2-1.1-0.5-2.3-1.1-3.4c0-0.2-0.2-0.5-0.2-0.7
			c0-0.4,0.2-0.5,0.4-0.7c0.2-0.2,0.4-0.2,0.7-0.2c0.2,0,0.5,0,0.9,0.2s0.5,0.4,0.7,0.7c1.4,2.3,2.1,5,2.1,7.9c0,3-0.7,5.5-2.1,7.9
			C317.7,190.1,317.5,190.3,317.1,190.3z"/>
		<path d="M323.8,186.7c-0.2-0.2-0.4-0.7-0.4-1.1v-10.9c0-0.5,0.2-0.9,0.4-1.1c0.2-0.2,0.7-0.4,1.1-0.4h7c1.1,0,1.4,0.4,1.4,1.1
			c0,0.9-0.5,1.1-1.4,1.1h-5.5v3.4h5c1.1,0,1.4,0.4,1.4,1.1c0,0.9-0.5,1.1-1.4,1.1h-5v3.4h5.5c1.1,0,1.4,0.4,1.4,1.1
			c0,0.9-0.5,1.1-1.4,1.1h-7C324.3,187.1,323.9,186.9,323.8,186.7z"/>
		<path d="M345.8,173.3c0.2-0.2,0.5-0.2,0.7-0.2c0.4,0,0.9,0.2,1.1,0.4c0.4,0.4,0.5,0.7,0.5,1.1c0,0.2,0,0.4-0.2,0.7l-5.4,11.3
			c-0.2,0.4-0.4,0.5-0.7,0.7s-0.7,0.2-1.1,0.2c-0.4,0-0.7,0-1.1-0.2c-0.4-0.2-0.5-0.4-0.7-0.7l-5.4-11.3c-0.2-0.2-0.2-0.4-0.2-0.5
			c0-0.4,0.2-0.7,0.5-1.1s0.7-0.4,1.1-0.4c0.4,0,0.5,0,0.9,0.2s0.4,0.4,0.5,0.7l4.1,9.1l4.1-9.1
			C345.2,173.7,345.4,173.5,345.8,173.3z"/>
		<path d="M351.9,186.4c-1.1-0.7-1.8-1.3-2.3-2.5c-0.5-1.1-0.9-2.3-0.9-3.8s0.4-2.7,0.9-3.8s1.3-1.8,2.3-2.5
			c1.1-0.5,2.1-0.9,3.6-0.9c1.3,0,2.5,0.4,3.6,0.9s1.8,1.3,2.3,2.5c0.5,1.1,0.9,2.3,0.9,3.8s-0.4,2.7-0.9,3.8s-1.3,1.8-2.3,2.5
			s-2.1,0.9-3.6,0.9S352.8,186.9,351.9,186.4z M358.1,183.5c0.7-0.9,1.1-2,1.1-3.4s-0.4-2.7-1.1-3.4c-0.7-0.9-1.4-1.1-2.7-1.1
			c-1.1,0-2,0.4-2.7,1.1c-0.7,0.9-1.1,2-1.1,3.4s0.4,2.7,1.1,3.4c0.7,0.9,1.4,1.1,2.7,1.1C356.5,185,357.4,184.4,358.1,183.5z"/>
		<path d="M364.8,186.7c-0.2-0.2-0.4-0.7-0.4-1.1v-10.9c0-0.5,0.2-0.9,0.4-1.1c0.4-0.4,0.7-0.4,1.1-0.4c0.5,0,0.9,0.2,1.1,0.4
			c0.4,0.4,0.4,0.7,0.4,1.1v10h5c1.1,0,1.4,0.5,1.4,1.3s-0.5,1.1-1.4,1.1h-6.6C365.5,187.1,365.1,186.9,364.8,186.7z"/>
		<path d="M376.4,185.9c-1.1-1.1-1.4-2.5-1.4-4.3v-6.8c0-0.5,0.2-0.9,0.4-1.1c0.4-0.4,0.7-0.4,1.1-0.4c0.5,0,0.9,0.2,1.1,0.4
			c0.4,0.4,0.4,0.7,0.4,1.1v6.8c0,1.1,0.4,2,0.9,2.5s1.1,0.9,2.1,0.9s1.6-0.4,2.1-0.9c0.5-0.7,0.9-1.4,0.9-2.5v-6.8
			c0-0.5,0.2-0.9,0.4-1.1c0.4-0.4,0.7-0.4,1.1-0.4c0.5,0,0.9,0.2,1.1,0.4c0.4,0.4,0.4,0.7,0.4,1.1v6.8c0,2-0.5,3.4-1.4,4.3
			c-1.1,1.1-2.5,1.4-4.5,1.4S377.3,186.7,376.4,185.9z"/>
		<path d="M392.3,186.4c-1.1-0.5-1.8-1.3-2.3-2.5c-0.5-1.1-0.9-2.3-0.9-3.8s0.4-2.7,0.9-3.8s1.3-1.8,2.3-2.5
			c1.1-0.5,2.1-0.9,3.6-0.9c1.6,0,3.2,0.5,4.5,1.4c0.2,0.2,0.4,0.4,0.4,0.5s0.2,0.4,0.2,0.7s-0.2,0.7-0.4,0.9
			c-0.2,0.2-0.5,0.4-0.7,0.4s-0.4,0-0.5,0s-0.4-0.2-0.5-0.2c-0.5-0.4-1.1-0.7-1.4-0.7c-0.5-0.2-1.1-0.2-1.4-0.2
			c-1.3,0-2.1,0.4-2.9,1.1c-0.7,0.9-1.1,2-1.1,3.4c0,3.2,1.3,4.7,3.8,4.7c0.5,0,1.1,0,1.3-0.2c0.5-0.2,1.1-0.4,1.4-0.7
			c0.2-0.2,0.4-0.2,0.5-0.2s0.4,0,0.5,0c0.4,0,0.5,0.2,0.7,0.4c0.2,0.2,0.4,0.5,0.4,0.9c0,0.2,0,0.5-0.2,0.7s-0.2,0.4-0.4,0.5
			c-1.3,1.1-2.7,1.4-4.5,1.4C394.5,187.3,393.2,186.9,392.3,186.4z"/>
		<path d="M403.2,186.7c-0.4-0.4-0.4-0.7-0.4-1.1v-10.9c0-0.5,0.2-0.9,0.4-1.1c0.4-0.4,0.7-0.4,1.1-0.4s0.9,0.2,1.1,0.4
			c0.4,0.4,0.4,0.7,0.4,1.1v10.9c0,0.5-0.2,0.9-0.4,1.1c-0.4,0.4-0.7,0.4-1.1,0.4C403.8,187.3,403.4,187.1,403.2,186.7z"/>
		<path d="M411.3,186.4c-1.1-0.7-1.8-1.3-2.3-2.5c-0.5-1.1-0.9-2.3-0.9-3.8s0.4-2.7,0.9-3.8s1.3-1.8,2.3-2.5
			c1.1-0.5,2.1-0.9,3.6-0.9c1.3,0,2.5,0.4,3.6,0.9c1.1,0.5,1.8,1.3,2.3,2.5c0.5,1.1,0.9,2.3,0.9,3.8s-0.4,2.7-0.9,3.8
			c-0.5,1.1-1.3,1.8-2.3,2.5c-1.1,0.7-2.1,0.9-3.6,0.9S412.4,186.9,411.3,186.4z M417.6,183.5c0.7-0.9,1.1-2,1.1-3.4
			s-0.4-2.7-1.1-3.4c-0.7-0.9-1.4-1.1-2.7-1.1c-1.1,0-2,0.4-2.7,1.1c-0.7,0.9-1.1,2-1.1,3.4s0.4,2.7,1.1,3.4
			c0.7,0.9,1.4,1.1,2.7,1.1C416,185,417,184.4,417.6,183.5z M414.9,172.2c-0.2,0-0.4,0-0.5-0.2c-0.2-0.2-0.2-0.4-0.2-0.5
			c0-0.2,0.2-0.4,0.4-0.5l1.6-1.6c0.4-0.4,0.7-0.5,1.1-0.5c0.4,0,0.5,0.2,0.9,0.4c0.2,0.2,0.4,0.5,0.4,0.9c0,0.2,0,0.4-0.2,0.5
			c-0.2,0.2-0.4,0.4-0.7,0.5l-2.1,1.1C415.2,172.2,415.1,172.2,414.9,172.2z"/>
		<path d="M435.5,173.7c0.4,0.4,0.4,0.7,0.4,1.1v10.9c0,0.5-0.2,0.9-0.4,1.1c-0.4,0.4-0.7,0.5-1.1,0.5c-0.5,0-0.9-0.2-1.1-0.5
			l-6.6-8.4v7.5c0,0.5-0.2,0.9-0.4,1.1c-0.4,0.4-0.7,0.5-1.1,0.5c-0.5,0-0.9-0.2-1.1-0.5c-0.4-0.4-0.4-0.7-0.4-1.1v-10.9
			c0-0.5,0.2-0.9,0.4-1.1c0.4-0.4,0.7-0.5,1.1-0.5c0.5,0,0.9,0.2,1.1,0.5l6.6,8.2v-7.3c0-0.5,0.2-0.9,0.4-1.1
			c0.4-0.4,0.7-0.5,1.1-0.5C435.1,173.1,435.3,173.3,435.5,173.7z"/>
	</g>
	<g>
		<path d="M49.4,77.6c3.4,2.5,7.7,3.9,12.9,3.9c7.5,0,14-2.7,18.8-8.1s7.3-12.4,7.3-21.1c0-8.6-2.3-15.8-7-21.1
			C76.7,25.8,70.5,23,63,23c-2.9,0-5.9,0.5-8.6,1.6c-1.4,0.5-2.5,1.1-3.8,1.8V3.8H29.5v76.4h19.9V77.6z M50.2,52.7
			c0-3.8,0.9-6.6,2.5-8.4s3.6-2.7,5.9-2.7c2.5,0,4.5,0.9,5.9,2.9c1.6,2,2.5,4.8,2.5,8.2s-0.9,6.1-2.5,7.9c-1.6,1.8-3.6,2.7-5.9,2.7
			c-2.7,0-4.7-0.9-6.1-3C51.1,58.2,50.2,55.7,50.2,52.7z"/>
		<path d="M121.5,81.5c4.3,0,8.6-0.7,12.7-2.1c4.3-1.4,7.9-3.4,10.7-5.9l1.1-0.9l-7.9-15h7.2l0.2-1.6c0.4-2.5,0.4-4.5,0.4-5.7
			c0-7.9-2.3-14.5-7-19.5c-4.7-5-11.1-7.7-19.2-7.7c-8.8,0-15.9,2.9-21.1,8.4s-7.9,12.5-7.9,20.8c0,7.9,2.7,14.9,8.2,20.6
			C104.7,78.6,112.2,81.5,121.5,81.5z M113.6,43.7c1.4-3.8,4.1-4.1,5.9-4.1c1.6,0,2.9,0.5,3.9,1.6c0.7,0.7,1.1,1.6,1.3,2.5H113.6z
			 M136.3,58.2c-5,3.2-9.5,5-13.4,5c-2.7,0-4.8-0.7-6.8-2.1c-1.3-0.9-2.3-2.1-2.9-3.6h24.3L136.3,58.2z"/>
		<path d="M159.1,47.8c-3.2,1.4-6.1,3.4-8.1,6.3c-2.1,2.7-3,6.1-3,9.7c0,5,1.8,9.3,5.4,12.7c3.6,3.4,8.1,5,13.6,5
			c3.2,0,6.6-0.7,9.7-2.1c1.6-0.7,2.9-1.6,4.1-2.7v3.6h19.7v-34c0-7.2-2.3-12.9-6.8-17c-4.5-4.1-10.7-6.1-18.4-6.1
			c-4.3,0-8.6,0.7-12.9,2.1c-4.3,1.4-7.9,3-10.4,5l-1.3,0.9l7.7,15.6l1.8-1.1c4.7-3,9.1-4.7,13.4-4.7c4.5,0,5.4,1.8,5.5,3
			c-3.4,0-7,0.4-10.2,0.9C165.5,45.5,162.1,46.4,159.1,47.8z M179.3,57.7c-0.2,1.6-0.9,3.2-2.1,4.7c-1.4,1.6-3,2.3-5,2.3
			c-1.1,0-1.8-0.2-2.3-0.7c-0.5-0.5-0.7-1.1-0.7-2s0.4-2.1,2.5-3C173.8,58.2,176.3,57.7,179.3,57.7z"/>
		<path d="M229.1,58c0-4.5,1.1-7.9,3.2-10.4c2.1-2.3,5.2-3.6,9.5-3.6c2.1,0,2.9,0.2,3,0.2l2.3,0.7V23.9l-1.6-0.2
			c-0.9-0.2-1.6-0.2-2.3-0.2c-4.3,0-8.1,1.4-11.5,4.1c-1.3,1.1-2.3,2.1-3.4,3.4v-6.6h-20.6v55.8h21.3V58z"/>
		<path d="M63.5,97.1c-4.3,0-8.1,1.4-11.5,4.1c-1.3,1.1-2.3,2.1-3.4,3.4V98H28.1v56h21.3v-22.2c0-4.5,1.1-7.9,3.2-10.4
			c2.1-2.3,5.2-3.6,9.5-3.6c2.1,0,2.9,0.2,3,0.2l2.3,0.7V97.6l-1.6-0.2C64.7,97.1,64,97.1,63.5,97.1z"/>
		<path d="M122.9,131.3l0.2-1.6c0.4-2.5,0.4-4.5,0.4-5.7c0-7.9-2.3-14.5-7-19.5s-11.1-7.7-19.2-7.7c-8.8,0-15.9,2.9-21.1,8.4
			c-5.2,5.5-7.9,12.5-7.9,20.8c0,7.9,2.7,14.9,8.2,20.6c5.5,5.7,13.1,8.8,22.4,8.8c4.3,0,8.6-0.7,12.7-2.1c4.3-1.4,7.9-3.4,10.7-5.9
			l1.1-0.9l-7.9-15H122.9z M97.1,113.4c1.6,0,2.9,0.5,3.9,1.6c0.7,0.7,1.1,1.6,1.3,2.5H91.2C92.7,113.7,95.2,113.4,97.1,113.4z
			 M113.8,132c-5,3.2-9.5,5-13.4,5c-2.7,0-4.8-0.7-6.8-2.1c-1.3-0.9-2.3-2.1-2.9-3.6H115L113.8,132z"/>
		<path d="M162.5,96.7c-5.7,0-10.4,1.4-14,4.5V98H129v76.4h21.3v-21.5c0-0.4,0-0.5,0-0.9c3.4,2.1,7.3,3.2,11.5,3.2
			c7.5,0,14-2.7,18.8-8.1s7.3-12.4,7.3-21.1c0-8.6-2.3-15.8-7-21.1C176.4,99.6,170.2,96.7,162.5,96.7z M166.6,126.2
			c0,3.4-0.9,6.1-2.5,7.9s-3.6,2.7-5.9,2.7c-2.7,0-4.7-0.9-6.1-3c-1.6-2.1-2.3-4.7-2.3-7.7c0-3.8,0.9-6.6,2.5-8.4
			c1.6-1.8,3.6-2.7,5.9-2.7c2.5,0,4.5,0.9,5.9,2.9C165.9,120.2,166.6,122.8,166.6,126.2z"/>
		<path d="M227.1,123c0,3.8-0.9,6.8-2.5,9.3c-1.6,2.3-3.8,3.4-6.8,3.4c-2,0-3.8-0.5-3.8-5V98h-21.1v35.8c0,7.3,2,12.9,5.5,16.3
			c3.8,3.4,8.6,5.2,14.9,5.2c3.8,0,7.3-0.9,10.6-2.7c1.4-0.7,2.7-1.8,3.9-2.9v4.3h20.6V98h-21.3V123z"/>
		<path d="M290.1,96.7c-2.9,0-5.9,0.5-8.6,1.6c-1.4,0.5-2.5,1.1-3.8,1.8V77.6h-21.3V154h19.9v-2.7c3.4,2.5,7.7,3.9,12.9,3.9
			c7.5,0,14-2.7,18.8-8.1c4.8-5.4,7.3-12.4,7.3-21.1c0-8.6-2.3-15.8-7-21.1C303.9,99.6,297.6,96.7,290.1,96.7z M294,126.2
			c0,3.4-0.9,6.1-2.5,7.9s-3.6,2.7-5.9,2.7c-2.7,0-4.7-0.9-6.1-3c-1.6-2.1-2.3-4.7-2.3-7.7c0-3.8,0.9-6.6,2.5-8.4
			c1.6-1.8,3.6-2.7,5.9-2.7c2.5,0,4.5,0.9,6.1,2.9C293.3,120.2,294,122.8,294,126.2z"/>
		<path d="M345.1,135.4c-1.3,0-2.1-0.2-2.3-0.5c-0.2-0.4-0.7-1.3-0.7-4.3v-53h-21.3v55.1c0,4.5,0.5,8.2,1.8,11.1
			c1.3,3.2,3,5.5,5.4,7c2.1,1.4,4.5,2.3,6.6,2.9c2.1,0.5,4.7,0.7,7.5,0.7c1.1,0,2.9-0.2,5.4-0.4l1.6-0.2V135l-2,0.2
			C346.5,135.4,346,135.4,345.1,135.4z"/>
		<rect x="353.8" y="77.6" width="20.8" height="17.4"/>
		<rect x="353.7" y="98" width="21.3" height="56"/>
		<path d="M427.8,129.5l-1.8,1.4c-4.5,3.9-9,5.9-13.1,5.9c-3.6,0-6.3-1.1-8.2-3.2c-2-2.3-3-4.8-3-7.9c0-3,0.9-5.4,2.9-7.5
			c1.8-2.1,4.5-3,7.9-3c4.3,0,7.9,1.4,11.1,4.7l1.6,1.6l9.3-14.9l-0.9-1.1c-2.7-2.9-6.1-5-10-6.4c-3.9-1.4-8.1-2.1-12.2-2.1
			c-9.5,0-17,2.9-22.6,8.6c-5.5,5.7-8.4,12.7-8.4,20.6c0,8.1,2.9,15,8.4,20.8c5.5,5.7,13.2,8.6,22.6,8.6c4.5,0,9-0.9,13.2-2.5
			s7.9-3.9,10.6-6.8l0.9-0.9L427.8,129.5z"/>
	</g>
</g>
</svg>
