<?xml version="1.0" encoding="utf-8"?>
<!-- Generator: Adobe Illustrator 25.4.1, SVG Export Plug-In . SVG Version: 6.00 Build 0)  -->
<svg version="1.1" id="Capa_1" xmlns="http://www.w3.org/2000/svg" xmlns:xlink="http://www.w3.org/1999/xlink" x="0px" y="0px"
	 width="234.1px" height="105px" viewBox="0 0 234.1 105" style="enable-background:new 0 0 234.1 105;" xml:space="preserve">
<g>
	<g>
		<path d="M82.3,102.5c-0.2-0.2-0.3-0.4-0.3-0.6v-5.6h-1.8c-0.6,0-0.8-0.3-0.8-0.7s0.3-0.6,0.8-0.6h5.3c0.6,0,0.8,0.2,0.8,0.6
			s-0.3,0.7-0.8,0.7h-1.8v5.6c0,0.3-0.1,0.5-0.2,0.6c-0.2,0.2-0.4,0.2-0.6,0.2C82.7,102.8,82.5,102.7,82.3,102.5z"/>
		<path d="M87.4,102.5c-0.2-0.2-0.2-0.4-0.2-0.6v-6.1c0-0.3,0.1-0.5,0.2-0.6c0.2-0.2,0.4-0.2,0.6-0.2c0.3,0,0.5,0.1,0.6,0.2
			c0.2,0.2,0.2,0.4,0.2,0.6v6.1c0,0.3-0.1,0.5-0.2,0.6c-0.2,0.2-0.4,0.2-0.6,0.2C87.8,102.8,87.5,102.7,87.4,102.5z"/>
		<path d="M90.7,102.5c-0.1-0.1-0.2-0.4-0.2-0.6v-6.1c0-0.3,0.1-0.5,0.2-0.6c0.1-0.1,0.4-0.2,0.6-0.2h3.9c0.6,0,0.8,0.2,0.8,0.6
			c0,0.5-0.3,0.6-0.8,0.6h-3.1v1.9h2.8c0.6,0,0.8,0.2,0.8,0.6c0,0.5-0.3,0.6-0.8,0.6h-2.8v1.9h3.1c0.6,0,0.8,0.2,0.8,0.6
			c0,0.5-0.3,0.6-0.8,0.6h-3.9C91,102.7,90.8,102.6,90.7,102.5z"/>
		<path d="M104.4,95.2c0.2,0.2,0.2,0.4,0.2,0.6v6.2c0,0.3-0.1,0.5-0.2,0.6c-0.1,0.1-0.3,0.2-0.6,0.2c-0.2,0-0.4-0.1-0.6-0.2
			c-0.1-0.1-0.2-0.4-0.2-0.6v-3.9l-1.6,3c-0.1,0.2-0.2,0.4-0.4,0.5c-0.1,0.1-0.3,0.1-0.5,0.1c-0.2,0-0.3,0-0.5-0.1
			c-0.1-0.1-0.3-0.2-0.4-0.5l-1.6-2.9v3.8c0,0.3-0.1,0.5-0.2,0.6c-0.1,0.2-0.3,0.2-0.6,0.2c-0.2,0-0.4-0.1-0.6-0.2
			c-0.1-0.1-0.2-0.4-0.2-0.6v-6.2c0-0.3,0.1-0.5,0.2-0.6c0.2-0.2,0.4-0.3,0.6-0.3c0.4,0,0.6,0.2,0.8,0.6l2.2,4.3l2.2-4.3
			c0.2-0.4,0.5-0.6,0.8-0.6C104,94.9,104.2,95,104.4,95.2z"/>
		<path d="M106.4,102.5c-0.2-0.2-0.2-0.4-0.2-0.6v-6.1c0-0.3,0.1-0.5,0.2-0.6c0.1-0.1,0.4-0.2,0.6-0.2h2.8c0.8,0,1.5,0.2,1.9,0.6
			c0.5,0.5,0.7,1,0.7,1.8s-0.3,1.4-0.7,1.8c-0.5,0.5-1.1,0.6-1.9,0.6h-1.9v2.1c0,0.3-0.1,0.5-0.2,0.6c-0.2,0.2-0.4,0.2-0.6,0.2
			C106.8,102.8,106.5,102.7,106.4,102.5z M109.5,98.5c0.8,0,1.3-0.4,1.3-1.1c0-0.7-0.5-1.1-1.3-1.1h-1.7v2.2
			C107.8,98.5,109.5,98.5,109.5,98.5z"/>
		<path d="M115,102.3c-0.6-0.4-1-0.7-1.3-1.4c-0.3-0.6-0.5-1.3-0.5-2.1s0.2-1.5,0.5-2.1c0.3-0.6,0.7-1,1.3-1.4
			c0.6-0.3,1.2-0.5,2-0.5c0.7,0,1.4,0.2,2,0.5c0.6,0.3,1,0.7,1.3,1.4c0.3,0.6,0.5,1.3,0.5,2.1s-0.2,1.5-0.5,2.1
			c-0.3,0.6-0.7,1-1.3,1.4c-0.6,0.4-1.2,0.5-2,0.5C116.3,102.8,115.6,102.6,115,102.3z M118.6,100.7c0.4-0.5,0.6-1.1,0.6-1.9
			s-0.2-1.5-0.6-1.9c-0.4-0.5-0.8-0.6-1.5-0.6c-0.6,0-1.1,0.2-1.5,0.6S115,98,115,98.8s0.2,1.5,0.6,1.9c0.4,0.5,0.8,0.6,1.5,0.6
			C117.7,101.5,118.2,101.2,118.6,100.7z"/>
		<path d="M123.3,102.6c-0.5-0.1-0.9-0.4-1.2-0.6c-0.1-0.1-0.2-0.2-0.3-0.3c-0.1-0.1-0.1-0.2-0.1-0.4c0-0.2,0.1-0.4,0.2-0.5
			c0.1-0.1,0.3-0.2,0.4-0.2c0.1,0,0.2,0,0.3,0s0.2,0.1,0.3,0.1c0.3,0.2,0.6,0.4,0.9,0.5c0.3,0.1,0.6,0.1,1,0.1
			c0.5,0,0.8-0.1,1.1-0.3c0.3-0.2,0.4-0.4,0.4-0.6c0-0.2-0.1-0.4-0.4-0.6c-0.3-0.1-0.6-0.3-1.3-0.4c-0.6-0.1-1.2-0.3-1.7-0.5
			c-0.4-0.2-0.7-0.5-0.9-0.7s-0.3-0.6-0.3-1c0-0.5,0.1-0.8,0.4-1.2c0.3-0.4,0.6-0.6,1.1-0.8c0.5-0.2,1-0.3,1.6-0.3
			c1,0,1.9,0.3,2.6,0.7c0.1,0.1,0.2,0.2,0.3,0.3c0.1,0.1,0.1,0.2,0.1,0.4c0,0.2-0.1,0.4-0.2,0.5c-0.1,0.1-0.3,0.2-0.4,0.2
			c-0.1,0-0.2,0-0.2,0s-0.2-0.1-0.3-0.2c-0.3-0.2-0.6-0.4-0.8-0.5c-0.3-0.1-0.6-0.2-0.9-0.2c-0.5,0-0.8,0.1-1,0.3
			c-0.3,0.2-0.4,0.4-0.4,0.7c0,0.2,0.1,0.3,0.2,0.5c0.1,0.1,0.3,0.2,0.5,0.3c0.2,0.1,0.6,0.2,1,0.3c1,0.2,1.7,0.5,2.1,0.8
			s0.6,0.8,0.6,1.4c0,0.5-0.1,0.9-0.4,1.2c-0.3,0.4-0.6,0.6-1.1,0.8c-0.5,0.2-1,0.3-1.7,0.3C124.4,102.8,123.8,102.7,123.3,102.6z"
			/>
		<path d="M132.5,102.5c-0.1-0.1-0.2-0.4-0.2-0.6v-6.1c0-0.3,0.1-0.5,0.2-0.6c0.1-0.1,0.4-0.2,0.6-0.2h2.2c0.8,0,1.6,0.2,2.1,0.5
			c0.6,0.3,1.1,0.7,1.4,1.3c0.3,0.6,0.5,1.3,0.5,2s-0.2,1.5-0.5,2c-0.3,0.6-0.7,1-1.4,1.3c-0.6,0.3-1.3,0.5-2.2,0.5H133
			C132.9,102.7,132.7,102.6,132.5,102.5z M135.2,101.3c1.7,0,2.5-0.8,2.5-2.5s-0.8-2.5-2.5-2.5H134v5
			C134,101.3,135.2,101.3,135.2,101.3z"/>
		<path d="M140.9,102.5c-0.1-0.1-0.2-0.4-0.2-0.6v-6.1c0-0.3,0.1-0.5,0.2-0.6c0.1-0.1,0.4-0.2,0.6-0.2h3.9c0.6,0,0.8,0.2,0.8,0.6
			c0,0.5-0.3,0.6-0.8,0.6h-3.1v1.9h2.8c0.6,0,0.8,0.2,0.8,0.6c0,0.5-0.3,0.6-0.8,0.6h-2.8v1.9h3.1c0.6,0,0.8,0.2,0.8,0.6
			c0,0.5-0.3,0.6-0.8,0.6h-3.9C141.2,102.7,141.1,102.6,140.9,102.5z"/>
		<path d="M150.6,99.8c0-1.7,0.4-3.1,1.2-4.4c0.1-0.2,0.2-0.3,0.4-0.4s0.3-0.1,0.5-0.1c0.2,0,0.3,0,0.4,0.1c0.1,0.1,0.2,0.2,0.2,0.4
			c0,0.1,0,0.2-0.1,0.4c-0.3,0.6-0.5,1.3-0.6,1.9c-0.1,0.6-0.2,1.4-0.2,2c0,0.7,0.1,1.4,0.2,2c0.1,0.6,0.3,1.3,0.6,1.9
			c0,0.1,0.1,0.3,0.1,0.4c0,0.2-0.1,0.3-0.2,0.4c-0.1,0.1-0.2,0.1-0.4,0.1c-0.1,0-0.3,0-0.5-0.1s-0.3-0.2-0.4-0.4
			C151,102.9,150.6,101.4,150.6,99.8z"/>
		<path d="M160.9,102c0,0.2-0.1,0.4-0.3,0.5c-0.2,0.1-0.4,0.2-0.6,0.2s-0.3,0-0.4-0.1c-0.1-0.1-0.3-0.2-0.4-0.3l-1.5-2.1
			c-0.1-0.2-0.3-0.4-0.4-0.4c-0.1-0.1-0.3-0.1-0.6-0.1H156v2.2c0,0.3-0.1,0.5-0.2,0.6c-0.2,0.2-0.4,0.2-0.6,0.2
			c-0.3,0-0.5-0.1-0.6-0.2c-0.2-0.2-0.2-0.4-0.2-0.6v-6.1c0-0.3,0.1-0.5,0.2-0.6c0.1-0.1,0.4-0.2,0.6-0.2h2.8c0.9,0,1.6,0.2,2,0.6
			c0.5,0.4,0.7,1,0.7,1.8c0,0.6-0.2,1.1-0.5,1.5c-0.4,0.4-0.8,0.6-1.4,0.7c0.2,0,0.4,0.1,0.6,0.3c0.2,0.1,0.4,0.3,0.5,0.6l0.8,1.2
			C160.9,101.8,160.9,102,160.9,102z M158.7,98.2c0.2-0.2,0.4-0.5,0.4-0.8s-0.1-0.6-0.4-0.8c-0.2-0.2-0.6-0.3-1-0.3h-1.7v2.1h1.7
			C158.2,98.4,158.6,98.3,158.7,98.2z"/>
		<path d="M162.7,104.5c-0.2,0.1-0.3,0.1-0.5,0.1c-0.2,0-0.3,0-0.4-0.1c-0.1-0.1-0.2-0.2-0.2-0.4c0-0.1,0-0.2,0.1-0.4
			c0.3-0.6,0.5-1.3,0.6-1.9c0.1-0.6,0.2-1.3,0.2-2c0-0.7-0.1-1.4-0.2-2c-0.1-0.6-0.3-1.3-0.6-1.9c0-0.1-0.1-0.3-0.1-0.4
			c0-0.2,0.1-0.3,0.2-0.4c0.1-0.1,0.2-0.1,0.4-0.1c0.1,0,0.3,0,0.5,0.1c0.2,0.1,0.3,0.2,0.4,0.4c0.8,1.3,1.2,2.8,1.2,4.4
			c0,1.7-0.4,3.1-1.2,4.4C163,104.4,162.9,104.5,162.7,104.5z"/>
		<path d="M166.4,102.5c-0.1-0.1-0.2-0.4-0.2-0.6v-6.1c0-0.3,0.1-0.5,0.2-0.6c0.1-0.1,0.4-0.2,0.6-0.2h3.9c0.6,0,0.8,0.2,0.8,0.6
			c0,0.5-0.3,0.6-0.8,0.6h-3.1v1.9h2.8c0.6,0,0.8,0.2,0.8,0.6c0,0.5-0.3,0.6-0.8,0.6h-2.8v1.9h3.1c0.6,0,0.8,0.2,0.8,0.6
			c0,0.5-0.3,0.6-0.8,0.6H167C166.7,102.7,166.5,102.6,166.4,102.5z"/>
		<path d="M178.7,95c0.1-0.1,0.3-0.1,0.4-0.1c0.2,0,0.5,0.1,0.6,0.2c0.2,0.2,0.3,0.4,0.3,0.6c0,0.1,0,0.2-0.1,0.4l-3,6.3
			c-0.1,0.2-0.2,0.3-0.4,0.4c-0.2,0.1-0.4,0.1-0.6,0.1c-0.2,0-0.4,0-0.6-0.1c-0.2-0.1-0.3-0.2-0.4-0.4l-3-6.3
			c-0.1-0.1-0.1-0.2-0.1-0.3c0-0.2,0.1-0.4,0.3-0.6c0.2-0.2,0.4-0.2,0.6-0.2c0.2,0,0.3,0,0.5,0.1c0.2,0.1,0.2,0.2,0.3,0.4l2.3,5.1
			l2.3-5.1C178.4,95.2,178.5,95.1,178.7,95z"/>
		<path d="M182.1,102.3c-0.6-0.4-1-0.7-1.3-1.4c-0.3-0.6-0.5-1.3-0.5-2.1s0.2-1.5,0.5-2.1c0.3-0.6,0.7-1,1.3-1.4
			c0.6-0.3,1.2-0.5,2-0.5c0.7,0,1.4,0.2,2,0.5c0.6,0.3,1,0.7,1.3,1.4c0.3,0.6,0.5,1.3,0.5,2.1s-0.2,1.5-0.5,2.1
			c-0.3,0.6-0.7,1-1.3,1.4s-1.2,0.5-2,0.5C183.3,102.8,182.6,102.6,182.1,102.3z M185.6,100.7c0.4-0.5,0.6-1.1,0.6-1.9
			s-0.2-1.5-0.6-1.9c-0.4-0.5-0.8-0.6-1.5-0.6c-0.6,0-1.1,0.2-1.5,0.6c-0.4,0.5-0.6,1.1-0.6,1.9s0.2,1.5,0.6,1.9
			c0.4,0.5,0.8,0.6,1.5,0.6C184.7,101.5,185.2,101.2,185.6,100.7z"/>
		<path d="M189.3,102.5c-0.1-0.1-0.2-0.4-0.2-0.6v-6.1c0-0.3,0.1-0.5,0.2-0.6c0.2-0.2,0.4-0.2,0.6-0.2c0.3,0,0.5,0.1,0.6,0.2
			c0.2,0.2,0.2,0.4,0.2,0.6v5.6h2.8c0.6,0,0.8,0.3,0.8,0.7s-0.3,0.6-0.8,0.6h-3.7C189.7,102.7,189.5,102.6,189.3,102.5z"/>
		<path d="M195.8,102c-0.6-0.6-0.8-1.4-0.8-2.4v-3.8c0-0.3,0.1-0.5,0.2-0.6c0.2-0.2,0.4-0.2,0.6-0.2c0.3,0,0.5,0.1,0.6,0.2
			c0.2,0.2,0.2,0.4,0.2,0.6v3.8c0,0.6,0.2,1.1,0.5,1.4c0.3,0.3,0.6,0.5,1.2,0.5s0.9-0.2,1.2-0.5c0.3-0.4,0.5-0.8,0.5-1.4v-3.8
			c0-0.3,0.1-0.5,0.2-0.6c0.2-0.2,0.4-0.2,0.6-0.2c0.3,0,0.5,0.1,0.6,0.2c0.2,0.2,0.2,0.4,0.2,0.6v3.8c0,1.1-0.3,1.9-0.8,2.4
			c-0.6,0.6-1.4,0.8-2.5,0.8S196.3,102.5,195.8,102z"/>
		<path d="M204.7,102.3c-0.6-0.3-1-0.7-1.3-1.4c-0.3-0.6-0.5-1.3-0.5-2.1s0.2-1.5,0.5-2.1c0.3-0.6,0.7-1,1.3-1.4
			c0.6-0.3,1.2-0.5,2-0.5c0.9,0,1.8,0.3,2.5,0.8c0.1,0.1,0.2,0.2,0.2,0.3s0.1,0.2,0.1,0.4s-0.1,0.4-0.2,0.5
			c-0.1,0.1-0.3,0.2-0.4,0.2s-0.2,0-0.3,0s-0.2-0.1-0.3-0.1c-0.3-0.2-0.6-0.4-0.8-0.4c-0.3-0.1-0.6-0.1-0.8-0.1
			c-0.7,0-1.2,0.2-1.6,0.6c-0.4,0.5-0.6,1.1-0.6,1.9c0,1.8,0.7,2.6,2.1,2.6c0.3,0,0.6,0,0.7-0.1c0.3-0.1,0.6-0.2,0.8-0.4
			c0.1-0.1,0.2-0.1,0.3-0.1s0.2,0,0.3,0c0.2,0,0.3,0.1,0.4,0.2c0.1,0.1,0.2,0.3,0.2,0.5c0,0.1,0,0.3-0.1,0.4s-0.1,0.2-0.2,0.3
			c-0.7,0.6-1.5,0.8-2.5,0.8C205.9,102.8,205.2,102.6,204.7,102.3z"/>
		<path d="M210.8,102.5c-0.2-0.2-0.2-0.4-0.2-0.6v-6.1c0-0.3,0.1-0.5,0.2-0.6c0.2-0.2,0.4-0.2,0.6-0.2s0.5,0.1,0.6,0.2
			c0.2,0.2,0.2,0.4,0.2,0.6v6.1c0,0.3-0.1,0.5-0.2,0.6c-0.2,0.2-0.4,0.2-0.6,0.2C211.1,102.8,210.9,102.7,210.8,102.5z"/>
		<path d="M215.3,102.3c-0.6-0.4-1-0.7-1.3-1.4c-0.3-0.6-0.5-1.3-0.5-2.1s0.2-1.5,0.5-2.1c0.3-0.6,0.7-1,1.3-1.4
			c0.6-0.3,1.2-0.5,2-0.5c0.7,0,1.4,0.2,2,0.5c0.6,0.3,1,0.7,1.3,1.4c0.3,0.6,0.5,1.3,0.5,2.1s-0.2,1.5-0.5,2.1
			c-0.3,0.6-0.7,1-1.3,1.4c-0.6,0.4-1.2,0.5-2,0.5C216.5,102.8,215.9,102.6,215.3,102.3z M218.8,100.7c0.4-0.5,0.6-1.1,0.6-1.9
			s-0.2-1.5-0.6-1.9c-0.4-0.5-0.8-0.6-1.5-0.6c-0.6,0-1.1,0.2-1.5,0.6c-0.4,0.5-0.6,1.1-0.6,1.9s0.2,1.5,0.6,1.9
			c0.4,0.5,0.8,0.6,1.5,0.6C217.9,101.5,218.5,101.2,218.8,100.7z M217.3,94.4c-0.1,0-0.2,0-0.3-0.1c-0.1-0.1-0.1-0.2-0.1-0.3
			c0-0.1,0.1-0.2,0.2-0.3l0.9-0.9c0.2-0.2,0.4-0.3,0.6-0.3c0.2,0,0.3,0.1,0.5,0.2c0.1,0.1,0.2,0.3,0.2,0.5c0,0.1,0,0.2-0.1,0.3
			c-0.1,0.1-0.2,0.2-0.4,0.3l-1.2,0.6C217.5,94.4,217.4,94.4,217.3,94.4z"/>
		<path d="M228.8,95.2c0.2,0.2,0.2,0.4,0.2,0.6v6.1c0,0.3-0.1,0.5-0.2,0.6c-0.2,0.2-0.4,0.3-0.6,0.3c-0.3,0-0.5-0.1-0.6-0.3
			l-3.7-4.7v4.2c0,0.3-0.1,0.5-0.2,0.6c-0.2,0.2-0.4,0.3-0.6,0.3c-0.3,0-0.5-0.1-0.6-0.3c-0.2-0.2-0.2-0.4-0.2-0.6v-6.1
			c0-0.3,0.1-0.5,0.2-0.6c0.2-0.2,0.4-0.3,0.6-0.3c0.3,0,0.5,0.1,0.6,0.3l3.7,4.6v-4.1c0-0.3,0.1-0.5,0.2-0.6
			c0.2-0.2,0.4-0.3,0.6-0.3C228.6,94.9,228.7,95,228.8,95.2z"/>
	</g>
	<g>
		<path d="M13.1,41.5c1.9,1.4,4.3,2.2,7.2,2.2c4.2,0,7.8-1.5,10.5-4.5c2.7-3,4.1-6.9,4.1-11.8c0-4.8-1.3-8.8-3.9-11.8
			c-2.6-3-6.1-4.6-10.3-4.6c-1.6,0-3.3,0.3-4.8,0.9c-0.8,0.3-1.4,0.6-2.1,1l0-12.6H2V43h11.1V41.5z M13.6,27.6
			c0-2.1,0.5-3.7,1.4-4.7c0.9-1,2-1.5,3.3-1.5c1.4,0,2.5,0.5,3.3,1.6c0.9,1.1,1.4,2.7,1.4,4.6c0,1.9-0.5,3.4-1.4,4.4
			c-0.9,1-2,1.5-3.3,1.5c-1.5,0-2.6-0.5-3.4-1.7C14.1,30.7,13.6,29.3,13.6,27.6z"/>
		<path d="M53.4,43.7c2.4,0,4.8-0.4,7.1-1.2c2.4-0.8,4.4-1.9,6-3.3l0.6-0.5l-4.4-8.4h4l0.1-0.9c0.2-1.4,0.2-2.5,0.2-3.2
			c0-4.4-1.3-8.1-3.9-10.9c-2.6-2.8-6.2-4.3-10.7-4.3c-4.9,0-8.9,1.6-11.8,4.7c-2.9,3.1-4.4,7-4.4,11.6c0,4.4,1.5,8.3,4.6,11.5
			C44,42.1,48.2,43.7,53.4,43.7z M49,22.6c0.8-2.1,2.3-2.3,3.3-2.3c0.9,0,1.6,0.3,2.2,0.9c0.4,0.4,0.6,0.9,0.7,1.4H49z M61.7,30.7
			c-2.8,1.8-5.3,2.8-7.5,2.8c-1.5,0-2.7-0.4-3.8-1.2c-0.7-0.5-1.3-1.2-1.6-2h13.6L61.7,30.7z"/>
		<path d="M74.4,24.9c-1.8,0.8-3.4,1.9-4.5,3.5c-1.2,1.5-1.7,3.4-1.7,5.4c0,2.8,1,5.2,3,7.1c2,1.9,4.5,2.8,7.6,2.8
			c1.8,0,3.7-0.4,5.4-1.2c0.9-0.4,1.6-0.9,2.3-1.5v2h11V24c0-4-1.3-7.2-3.8-9.5c-2.5-2.3-6-3.4-10.3-3.4c-2.4,0-4.8,0.4-7.2,1.2
			c-2.4,0.8-4.4,1.7-5.8,2.8l-0.7,0.5l4.3,8.7l1-0.6c2.6-1.7,5.1-2.6,7.5-2.6c2.5,0,3,1,3.1,1.7c-1.9,0-3.9,0.2-5.7,0.5
			C78,23.6,76.1,24.1,74.4,24.9z M85.7,30.4c-0.1,0.9-0.5,1.8-1.2,2.6c-0.8,0.9-1.7,1.3-2.8,1.3c-0.6,0-1-0.1-1.3-0.4
			c-0.3-0.3-0.4-0.6-0.4-1.1c0-0.5,0.2-1.2,1.4-1.7C82.6,30.7,84,30.4,85.7,30.4z"/>
		<path d="M113.5,30.6c0-2.5,0.6-4.4,1.8-5.8c1.2-1.3,2.9-2,5.3-2c1.2,0,1.6,0.1,1.7,0.1l1.3,0.4V11.5l-0.9-0.1
			c-0.5-0.1-0.9-0.1-1.3-0.1c-2.4,0-4.5,0.8-6.4,2.3c-0.7,0.6-1.3,1.2-1.9,1.9v-3.7h-11.5V43h11.9V30.6z"/>
		<path d="M21,52.4c-2.4,0-4.5,0.8-6.4,2.3c-0.7,0.6-1.3,1.2-1.9,1.9v-3.7H1.2v31.3h11.9V71.8c0-2.5,0.6-4.4,1.8-5.8
			c1.2-1.3,2.9-2,5.3-2c1.2,0,1.6,0.1,1.7,0.1l1.3,0.4V52.7l-0.9-0.1C21.7,52.4,21.3,52.4,21,52.4z"/>
		<path d="M54.2,71.5l0.1-0.9c0.2-1.4,0.2-2.5,0.2-3.2c0-4.4-1.3-8.1-3.9-10.9c-2.6-2.8-6.2-4.3-10.7-4.3c-4.9,0-8.9,1.6-11.8,4.7
			c-2.9,3.1-4.4,7-4.4,11.6c0,4.4,1.5,8.3,4.6,11.5c3.1,3.2,7.3,4.9,12.5,4.9c2.4,0,4.8-0.4,7.1-1.2c2.4-0.8,4.4-1.9,6-3.3l0.6-0.5
			l-4.4-8.4H54.2z M39.8,61.5c0.9,0,1.6,0.3,2.2,0.9c0.4,0.4,0.6,0.9,0.7,1.4h-6.2C37.3,61.7,38.7,61.5,39.8,61.5z M49.1,71.9
			c-2.8,1.8-5.3,2.8-7.5,2.8c-1.5,0-2.7-0.4-3.8-1.2c-0.7-0.5-1.3-1.2-1.6-2h13.6L49.1,71.9z"/>
		<path d="M76.3,52.2c-3.2,0-5.8,0.8-7.8,2.5v-1.8H57.6v42.7h11.9v-12c0-0.2,0-0.3,0-0.5c1.9,1.2,4.1,1.8,6.4,1.8
			c4.2,0,7.8-1.5,10.5-4.5c2.7-3,4.1-6.9,4.1-11.8c0-4.8-1.3-8.8-3.9-11.8C84.1,53.8,80.6,52.2,76.3,52.2z M78.6,68.7
			c0,1.9-0.5,3.4-1.4,4.4c-0.9,1-2,1.5-3.3,1.5c-1.5,0-2.6-0.5-3.4-1.7c-0.9-1.2-1.3-2.6-1.3-4.3c0-2.1,0.5-3.7,1.4-4.7
			c0.9-1,2-1.5,3.3-1.5c1.4,0,2.5,0.5,3.3,1.6C78.2,65.3,78.6,66.8,78.6,68.7z"/>
		<path d="M112.4,66.9c0,2.1-0.5,3.8-1.4,5.2c-0.9,1.3-2.1,1.9-3.8,1.9c-1.1,0-2.1-0.3-2.1-2.8V52.9H93.3v20c0,4.1,1.1,7.2,3.1,9.1
			c2.1,1.9,4.8,2.9,8.3,2.9c2.1,0,4.1-0.5,5.9-1.5c0.8-0.4,1.5-1,2.2-1.6v2.4h11.5V52.9h-11.9V66.9z"/>
		<path d="M147.6,52.2c-1.6,0-3.3,0.3-4.8,0.9c-0.8,0.3-1.4,0.6-2.1,1l0-12.6h-11.9v42.7h11.1v-1.5c1.9,1.4,4.3,2.2,7.2,2.2
			c4.2,0,7.8-1.5,10.5-4.5c2.7-3,4.1-6.9,4.1-11.8c0-4.8-1.3-8.8-3.9-11.8C155.3,53.8,151.8,52.2,147.6,52.2z M149.8,68.7
			c0,1.9-0.5,3.4-1.4,4.4c-0.9,1-2,1.5-3.3,1.5c-1.5,0-2.6-0.5-3.4-1.7c-0.9-1.2-1.3-2.6-1.3-4.3c0-2.1,0.5-3.7,1.4-4.7
			c0.9-1,2-1.5,3.3-1.5c1.4,0,2.5,0.5,3.4,1.6C149.4,65.3,149.8,66.8,149.8,68.7z"/>
		<path d="M178.3,73.8c-0.7,0-1.2-0.1-1.3-0.3c-0.1-0.2-0.4-0.7-0.4-2.4V41.5h-11.9v30.8c0,2.5,0.3,4.6,1,6.2c0.7,1.8,1.7,3.1,3,3.9
			c1.2,0.8,2.5,1.3,3.7,1.6c1.2,0.3,2.6,0.4,4.2,0.4c0.6,0,1.6-0.1,3-0.2l0.9-0.1V73.6l-1.1,0.1C179.1,73.8,178.8,73.8,178.3,73.8z"
			/>
		<rect x="183.2" y="41.5" width="11.6" height="9.7"/>
		<rect x="183.1" y="52.9" width="11.9" height="31.3"/>
		<path d="M224.5,70.5l-1,0.8c-2.5,2.2-5,3.3-7.3,3.3c-2,0-3.5-0.6-4.6-1.8c-1.1-1.3-1.7-2.7-1.7-4.4c0-1.7,0.5-3,1.6-4.2
			c1-1.2,2.5-1.7,4.4-1.7c2.4,0,4.4,0.8,6.2,2.6l0.9,0.9l5.2-8.3l-0.5-0.6c-1.5-1.6-3.4-2.8-5.6-3.6c-2.2-0.8-4.5-1.2-6.8-1.2
			c-5.3,0-9.5,1.6-12.6,4.8c-3.1,3.2-4.7,7.1-4.7,11.5c0,4.5,1.6,8.4,4.7,11.6c3.1,3.2,7.4,4.8,12.6,4.8c2.5,0,5-0.5,7.4-1.4
			c2.4-0.9,4.4-2.2,5.9-3.8l0.5-0.5L224.5,70.5z"/>
	</g>
</g>
</svg>
