<?xml version="1.0" encoding="utf-8"?>
<!-- Generator: Adobe Illustrator 25.3.1, SVG Export Plug-In . SVG Version: 6.00 Build 0)  -->
<svg version="1.1" id="Capa_1" xmlns="http://www.w3.org/2000/svg" xmlns:xlink="http://www.w3.org/1999/xlink" x="0px" y="0px"
	 width="32.3px" height="28.5px" viewBox="0 0 32.3 28.5" style="enable-background:new 0 0 32.3 28.5;" xml:space="preserve">
<g>
	<g>
		<path d="M12.8,1.9h5.3c1.1,0,2.1,0,3.2,0.1c1.5,0.1,2.9,0.5,4.1,1.4c0.8,0.6,1.4,1.3,1.9,2.2C27.8,6.7,28,7.9,28.1,9
			c0,0.3,0,0.6,0,0.9v9.3c0,1.1-0.1,2.2-0.5,3.3c-0.4,1.3-1.2,2.5-2.3,3.3c-0.8,0.6-1.7,1-2.6,1.2c-1.2,0.3-2.3,0.3-3.5,0.3
			c-0.4,0-0.8,0-1.2,0h-5.6c-0.9,0-1.7,0-2.6-0.1c-1.2-0.1-2.5-0.4-3.6-1c-1.3-0.8-2.4-2-2.9-3.4C3,22,2.9,21,2.8,20
			c-0.1-2-0.1-4-0.1-6c0-1.7,0-3.4,0.1-5.1c0.1-1.2,0.4-2.5,1-3.6c0.7-1.2,1.9-2.2,3.2-2.7C8.2,2.2,9.3,2,10.4,2
			C11.2,1.9,12,1.9,12.8,1.9z M10.5,4.3C9.4,4.3,8.3,4.5,7.3,5C6.5,5.5,5.9,6.3,5.6,7.1C5.2,8,5.1,8.8,5.1,9.7C5,11.2,5,12.6,5,14
			c0,2,0,4,0.1,6c0.1,0.9,0.2,1.9,0.7,2.8c0.4,0.8,1.1,1.4,1.9,1.7c0.9,0.4,2,0.5,3,0.6c2.1,0.1,4.2,0.1,6.3,0.1c1.3,0,2.7,0,4-0.1
			c0.9-0.1,1.9-0.3,2.7-0.7c0.8-0.5,1.5-1.3,1.8-2.3c0.4-1,0.4-2.1,0.4-3.1c0-1.4,0-2.9,0-4.3c0-1.6,0-3.3-0.1-4.9
			c0-1.1-0.2-2.3-0.8-3.3c-0.3-0.5-0.7-0.9-1.2-1.2c-0.8-0.5-1.9-0.8-2.8-0.8c-2-0.1-4-0.1-5.9-0.1C13.5,4.2,12,4.2,10.5,4.3z"/>
	</g>
	<path d="M21.9,6.4c0.7-0.2,1.6,0.3,1.8,1c0.2,0.7-0.1,1.6-0.8,1.9c-0.7,0.3-1.5,0.1-1.9-0.5c-0.4-0.6-0.3-1.5,0.2-2
		C21.4,6.5,21.7,6.4,21.9,6.4z"/>
	<g>
		<path d="M14.8,8.1C16,8,17.3,8.2,18.4,8.8c1.4,0.7,2.5,1.9,3.1,3.3c0.6,1.3,0.7,2.9,0.3,4.3c-0.4,1.4-1.3,2.7-2.5,3.6
			c-1.1,0.8-2.3,1.2-3.7,1.3c-1.4,0-2.8-0.4-3.9-1.2c-1.2-0.8-2.1-2.1-2.5-3.5c-0.4-1.4-0.4-3,0.2-4.3c0.5-1.3,1.5-2.5,2.7-3.2
			C13,8.5,13.9,8.2,14.8,8.1z M15,10.4c-1,0.1-2,0.6-2.7,1.4c-0.6,0.7-1,1.7-1.1,2.6c0,0.9,0.2,1.9,0.8,2.6c0.6,0.9,1.6,1.5,2.6,1.7
			c1,0.2,2,0.1,2.9-0.4c0.9-0.5,1.5-1.2,1.9-2.1c0.4-1,0.4-2,0.1-3c-0.3-0.9-1-1.7-1.8-2.2C16.9,10.5,15.9,10.3,15,10.4z"/>
	</g>
</g>
</svg>
