<?xml version="1.0" encoding="utf-8"?>
<!-- Generator: Adobe Illustrator 25.3.1, SVG Export Plug-In . SVG Version: 6.00 Build 0)  -->
<svg version="1.1" id="Capa_1" xmlns="http://www.w3.org/2000/svg" xmlns:xlink="http://www.w3.org/1999/xlink" x="0px" y="0px"
	 width="32.3px" height="28.5px" viewBox="0 0 32.3 28.5" style="enable-background:new 0 0 32.3 28.5;" xml:space="preserve">
<g>
	<path d="M6.5,2c0.8-0.1,1.6,0.2,2.2,0.7c0.6,0.5,1,1.3,1,2.1c0,0.9-0.3,1.8-1,2.3C8.2,7.7,7.4,8,6.6,7.9C5.7,7.8,4.9,7.3,4.4,6.6
		C3.9,5.9,3.8,5,4,4.1C4.3,3,5.4,2.1,6.5,2z"/>
	<path d="M17.9,11.8c1-1.3,2.6-2,4.2-2.1c1.3,0,2.7,0.1,3.9,0.9c0.9,0.6,1.5,1.4,1.8,2.4c0.5,1.4,0.6,3,0.6,4.5c0,3,0,6,0,9
		c-1.7,0-3.4,0-5.1,0c0-2.6,0-5.3,0-7.9c0-0.9,0-1.7-0.2-2.6c-0.1-0.5-0.4-1-0.9-1.3c-0.5-0.3-1.1-0.4-1.7-0.4
		c-0.6,0-1.3,0.2-1.8,0.5c-0.4,0.3-0.7,0.8-0.9,1.2c-0.3,0.8-0.3,1.6-0.3,2.4c0,2.7,0,5.4,0,8.1c-1.7,0-3.4,0-5.1,0
		c0-5.5,0-10.9,0-16.4c1.6,0,3.3,0,4.9,0c0,0.8,0,1.5,0,2.3C17.6,12.2,17.7,12,17.9,11.8z"/>
	<path d="M4.3,10.1c1.7,0,3.4,0,5.1,0c0,5.5,0,10.9,0,16.4c-1.7,0-3.4,0-5.1,0C4.3,21.1,4.3,15.6,4.3,10.1z"/>
</g>
</svg>
