<?xml version="1.0" encoding="utf-8"?>
<!-- Generator: Adobe Illustrator 25.3.1, SVG Export Plug-In . SVG Version: 6.00 Build 0)  -->
<svg version="1.1" id="Capa_1" xmlns="http://www.w3.org/2000/svg" xmlns:xlink="http://www.w3.org/1999/xlink" x="0px" y="0px"
	 width="50.1px" height="56.7px" viewBox="0 0 50.1 56.7" style="enable-background:new 0 0 50.1 56.7;" xml:space="preserve">
<style type="text/css">
	.st0{fill:#1B1A2E;}
	.st1{fill:#FAC416;}
	.st2{fill:#EE5BA0;}
	.st3{fill:#E5E6EE;}
	.st4{fill:#F4F4F5;}
</style>
<g>
	<path class="st0" d="M5.9,11.1c0.6-0.5,1.2,0.1,1.7,0.5c1.3,1.1,2.5,2.4,3.8,3.5c0.8-0.4,1.7-0.7,2.6-0.7c0.9,0,1.7-0.3,2.6-0.3
		c1.5,0,3,0.4,4.1,1.5c0.6,0.5,0.3,1.4,0.6,2c0.6,0.6,1.7,0.5,2.2,1.3c0.3,0.4,0.2,1,0,1.4c0.7,0.2,1.7,0.1,2.1,0.9
		c0.3,0.6-0.1,1.2-0.3,1.7c1.3-0.3,2.7-0.6,4-0.1c1.1,0.3,2,1.1,2.7,2c0.5-0.8,1.3-1.5,2.3-1.5c2.1-0.2,3.9,1.4,4.6,3.3
		c1.1,2.8,1.1,5.8,1.4,8.7c0.1,1.1,0.3,2.5-0.8,3.1c-1.1,0.7-2.3-0.3-2.8-1.2c-1.5-2.5-1.7-5.6-3.2-8.1c0,3.1-0.8,6-1.4,9
		c-0.8,3.3-1.8,6.5-3,9.7c-0.3,0.6-1.5,0.4-1.3-0.3c0.6-1.9,1.2-3.8,1.8-5.7c-0.1-0.1-0.3-0.2-0.3-0.3c-0.2-0.7-0.2-1.5-0.7-2.1
		c-0.6-0.8-1.9-0.8-2.5-0.1c-0.3,0.4-0.4,0.7-0.7,1.1c0.4,2.2,0.5,4.4,0.7,6.6c0.1,0.6-0.8,0.9-1.1,0.4c-0.3-0.3-0.2-0.7-0.3-1.1
		c-0.1-1.6-0.3-3.2-0.4-4.8c-0.1-1.1-0.6-2.3-1.6-2.9c-1.1-0.6-2.5-0.5-3.5,0.2c0.2,2.4,0.5,4.8,1,7.2c0.1,0.4,0.2,0.9-0.2,1.2
		c-0.4,0.4-1,0.1-1.1-0.4c-0.2-1.2-0.4-2.5-0.6-3.7c-0.3-1.6-0.2-3.2-0.8-4.7c-0.2-0.6-0.8-1.1-1.4-1.2c-0.6-0.2-1.1,0.3-1.6,0.6
		c0.3,2.6,0.5,5.2,1,7.7c0.1,0.5,0.2,1.3-0.4,1.4c-0.4,0.2-0.8-0.1-0.8-0.5c-0.7-3.7-1.1-7.4-1.3-11.2c0-1.4-0.1-2.8-0.1-4.2
		c0-1.3,0-2.6-0.5-3.8c-0.2-0.5-0.4-0.9-0.9-1.2c-0.8,1-2,1.9-3.4,1.8C7,28,6,27.5,5.2,26.8c0.3-3.2,1.7-6.1,3.3-8.9
		c-0.9-1.8-1.7-3.6-2.6-5.4C5.7,12.1,5.6,11.5,5.9,11.1z M8.1,13.9c0.9,1.6,1.6,3.3,2.4,4.9c0,0.3,0.1,0.8-0.3,0.9
		c-0.4,0.3-0.8,0.1-1-0.3c-0.6,0.8-0.9,1.8-1.4,2.7c-0.6,1.3-0.9,2.7-1.3,4c0.8,0.4,1.7,0.5,2.6,0.1c0.9-0.4,1.3-1.6,2.4-1.6
		c0.9,0.1,1.4,0.9,1.8,1.6c0.8,1.6,0.8,3.5,0.9,5.3c0,1.6,0.1,3.1,0.2,4.7c1.4-1,3.4-0.2,4.1,1.2c0.8-0.4,1.7-0.8,2.6-0.8
		c1.4,0,2.7,0.7,3.5,1.8c0.4-0.4,0.9-0.9,1.4-1.1c1-0.4,2.2-0.3,3,0.4l0,0c0.4,0.4,0.8,0.8,1.1,1.3c0,0,0.1,0,0.1,0
		c0.2-0.7,0.3-1.3,0.4-2c0.4-1.4,0.6-2.8,0.9-4.2c0.4-1.9,0.6-4,0-5.9c-0.5-1.5-1.8-2.9-3.5-3.2c-2-0.2-3.8,0.8-5.7,0.9
		c-1.7,0.2-3.3-0.5-4.3-1.8c-1-1.7-1-3.8-1.8-5.6c-0.5-1.2-1.9-1.8-3.1-1.4c-0.1,0-0.4,0-0.5,0c0.5,0.3,0.6,1.2-0.1,1.4
		c-0.3,0.1-0.6-0.1-0.8-0.2C10.5,16.1,9.2,15.1,8.1,13.9z M16.8,15.4c1.7,1.7,1.4,4.3,2.4,6.3c1,1.8,3.8,1.5,5,0.1
		c-0.8-0.2-1.7-0.2-2.2-0.9c-0.3-0.4-0.1-0.9,0-1.3c0.1,0,0.2-0.1,0.3-0.2c-0.4-0.2-0.8-0.3-1.2-0.5c-0.8-0.5-1.4-1.2-1.3-2.2
		c0-0.3-0.1-0.5-0.4-0.7c-0.7-0.4-1.4-0.7-2.2-0.7C17.1,15.5,16.9,15.4,16.8,15.4z M32.9,25.7l0.1,0.2c-0.4,0-0.2,1,0.2,0.8
		c0.3,0.4,0.8,0.6,1.1,1.1c1.9,2.5,2,5.9,3.6,8.6l0.2,0c-0.2,0.4,0.8,0.8,0.9,0.3l0.1,0.1c-0.2-3.3-0.3-6.7-1.4-9.9
		c-0.5-1.3-1.6-2.6-3.1-2.6C33.8,24.6,33.3,25.2,32.9,25.7z"/>
</g>
<path class="st0" d="M11.7,21.2c0.3-0.5,1.2-0.2,1.1,0.4c0.1,0.5-0.6,0.9-1,0.6C11.5,22,11.4,21.5,11.7,21.2z"/>
<path class="st0" d="M36.9,44.5c0.8-0.7,1.6,0.8,0.7,1.2c-1.2,0.6-1.8,2.1-3.1,2.5c-1.6,0.2-3.1,0.2-4.7,0.3
	c-0.9,0.1-0.9-1.3-0.1-1.3c1.4-0.2,2.8-0.2,4.2-0.3c0.4,0,0.7-0.4,0.9-0.7C35.5,45.6,36.2,45,36.9,44.5z"/>
<path class="st0" d="M38.7,46.2c0.3-0.1,0.7-0.4,1-0.1c0.4,0.3,0.4,0.8,0,1.1c-0.8,0.4-1.6,0.7-2.4,0.9c-0.7,0.2-1.2-1.1-0.4-1.3
	C37.5,46.6,38.1,46.5,38.7,46.2z"/>
<path class="st0" d="M5.1,46.4c0.3-0.1,0.7-0.1,1-0.1c2.3,0.1,4.7,0.1,7,0.4c0.5,0.3,0.4,0.8,0.3,1.3c-1,0.1-2-0.1-3-0.1
	c-1.6-0.1-3.3-0.1-4.9-0.3C4.9,47.5,4.9,46.8,5.1,46.4z"/>
<path class="st0" d="M40.1,48c0-0.4,0.1-1.1,0.6-1c1.5,0,2.9,0,4.4,0c0.6,0.1,0.5,0.8,0.5,1.2c-1,0.3-2,0.1-3.1,0.2
	C41.7,48.3,40.8,48.5,40.1,48z"/>
<path class="st1" d="M8.1,13.9c1.1,1.2,2.4,2.2,3.7,3.1c0.3,0.5,0.4,1.2-0.1,1.6c-0.3,0.3-0.8,0.3-1.2,0.2C9.6,17.2,9,15.5,8.1,13.9
	z"/>
<path class="st2" d="M16.8,15.4c0.1,0,0.3,0.1,0.4,0.1c0.9,0.4,1.7,0.9,2.6,1.3c-0.1,1,0.5,1.7,1.3,2.2c0.3,0.2,0.6,0.5,1,0.7
	c-0.1,0.4-0.3,0.9,0,1.3c0.5,0.7,1.5,0.7,2.2,0.9c-1.2,1.4-4,1.7-5-0.1C18.2,19.7,18.5,17.1,16.8,15.4z"/>
<path class="st2" d="M32.9,25.7c0.4-0.5,0.9-1.1,1.6-1.3c1.5,0,2.6,1.3,3.1,2.6c1.1,3.2,1.3,6.6,1.4,9.9l-0.1-0.1
	c-0.2-0.2-0.6-0.2-0.9-0.3l-0.2,0c-1.6-2.7-1.7-6.1-3.6-8.6c-0.3-0.4-0.8-0.7-1.1-1.1c0-0.3-0.1-0.6-0.2-0.8L32.9,25.7z"/>
<g>
	<path class="st3" d="M12.7,15.8c0.1,0,0.4,0,0.5,0c1,0.6,2.4,0.8,2.9,2.1c0.6,1.8,0.5,3.9,2.1,5.2l0-0.3c1,1.4,2.7,2.1,4.3,1.8
		c1.9-0.1,3.8-1.1,5.7-0.9c1.7,0.3,3,1.7,3.5,3.2c0.6,1.9,0.4,4,0,5.9c-0.3,1.4-0.5,2.8-0.9,4.2c-0.5,0.3-1.1,0.5-1.6,0.7l0,0
		c-0.8-0.7-2-0.8-3-0.4c-0.6,0.3-1,0.7-1.4,1.1c-0.8-1.1-2.1-1.8-3.5-1.8c-0.9,0-1.8,0.3-2.6,0.8c-0.7-1.5-2.8-2.2-4.1-1.2
		c-0.1-1.6-0.2-3.1-0.2-4.7c0-1.8-0.1-3.6-0.9-5.3c-0.4-0.7-1-1.5-1.8-1.6c-1.1,0-1.5,1.2-2.4,1.6c-0.8,0.4-1.8,0.2-2.6-0.1
		c0.4-1.4,0.7-2.8,1.3-4c0.4-0.9,0.7-1.9,1.4-2.7c0.2,0.4,0.6,0.6,1,0.3c0.3-0.2,0.3-0.6,0.3-0.9c0.4,0.1,0.9,0.1,1.2-0.2
		c0.5-0.4,0.4-1.1,0.1-1.6c0.3,0.1,0.5,0.4,0.8,0.2C13.3,17.1,13.2,16.2,12.7,15.8z M11.7,21.2c-0.3,0.3-0.2,0.8,0.1,1
		c0.4,0.3,1.1-0.1,1-0.6C12.9,21,12,20.7,11.7,21.2z"/>
</g>
<path class="st3" d="M12.3,27.3c0.5,1.2,0.5,2.5,0.5,3.8c0,1.4,0.1,2.8,0.1,4.2c-0.3-0.3-0.3-0.8-0.4-1.2c-0.2-1.4-0.2-2.8-0.4-4.1
	C12.2,29.1,12,28.2,12.3,27.3z"/>
<path class="st4" d="M21,19c0.4,0.2,0.8,0.4,1.2,0.5c-0.1,0-0.2,0.1-0.3,0.2C21.7,19.5,21.3,19.2,21,19z"/>
<path class="st4" d="M33.2,26.8c-0.4,0.2-0.6-0.8-0.2-0.8C33.1,26.2,33.1,26.5,33.2,26.8z"/>
<path class="st4" d="M38,36.5c0.3,0.1,0.6,0.1,0.9,0.3C38.8,37.2,37.9,36.9,38,36.5z"/>
</svg>
