<?xml version="1.0" encoding="utf-8"?>
<!-- Generator: Adobe Illustrator 25.3.1, SVG Export Plug-In . SVG Version: 6.00 Build 0)  -->
<svg version="1.1" id="Capa_1" xmlns="http://www.w3.org/2000/svg" xmlns:xlink="http://www.w3.org/1999/xlink" x="0px" y="0px"
	 width="50.1px" height="56.7px" viewBox="0 0 50.1 56.7" style="enable-background:new 0 0 50.1 56.7;" xml:space="preserve">
<style type="text/css">
	.st0{fill:#1B1A2E;}
	.st1{fill:#57ADD1;}
</style>
<g>
	<path class="st0" d="M20.7,5.6c1.4-0.3,2.9-0.4,4.4-0.7c0.3-0.1,0.6,0.1,0.8,0.2C26,6,26.1,6.8,26.1,7.5c0.4,0,0.9,0.1,1.2,0.5
		c0.7,0.9-0.3,2.1,0.3,3c0.3,0.6,0.8,1.1,1.4,1.3c1.2,0.4,2.4,0.8,3.5,1.3c-0.1-0.9,0.2-2.1,1.1-2.5c1.3-0.7,2.9-1,4.3-0.3
		c2.1,1.8,0.4,6-2.5,5.4c2,2.8,2,6.4,2.1,9.7c0,6.4,0.1,12.8,0,19.3c0,0.7-0.7,0.5-1.1,0.3c0-6.8,0-13.7-0.1-20.5
		c0-2.4-0.1-4.9-1.2-7c-0.8-1.8-2.4-3.2-4.3-3.7c-1.5-0.5-3.2-0.9-4.1-2.4c-0.7-1-0.5-2.2-0.3-3.3c-2.1,0.1-4.2,0.1-6.2,0.6
		c0.1,1.3,0,3-1.3,3.6c-3,1.4-6.7,1.2-9.4,3.3c-1.9,1.6-2.3,4.2-2.5,6.6C6.6,27.3,6,31.9,6,36.5C6,39.7,6,42.9,6.4,46
		C6.6,47.3,7,48.6,8,49.4c0.8,0.6,1.9,0.5,2.9,0.5c7.5,0.2,15,0.3,22.5,0.5c0.7-0.2,0.7,0.6,0.6,1.1c-0.8,0.1-1.6,0.1-2.5,0
		c-7.3-0.2-14.5-0.3-21.8-0.5c-1,0-2-0.3-2.7-1c-1.2-1.1-1.7-2.7-1.9-4.3C4.8,42,4.8,38.2,4.9,34.4c0.1-2.9,0.4-5.9,0.7-8.8
		c0.1-2.3,0.2-4.7,0.9-7c0.4-1,0.9-2,1.7-2.8c1-1.2,2.5-1.7,4-2.3c1.6-0.5,3.3-0.8,4.9-1.2c0.7-0.2,1.5-0.3,1.9-1.1
		c0.5-0.9-0.1-1.9,0.2-2.8c0.3-0.3,0.8-0.3,1.1-0.4C20.2,7.2,19.5,5.8,20.7,5.6z M21.2,6.7c0,0.4,0.1,0.8,0.1,1.2
		c1.2-0.2,2.4-0.3,3.6-0.3c0-0.4,0-0.9,0-1.3C23.6,6.3,22.4,6.6,21.2,6.7z M34.1,12.3c-0.8,0.4-0.4,1.4-0.4,2.1
		c0.8,0.4,1.8,1,2.7,0.7c1.2-0.5,1.6-2.6,0.4-3.3C35.9,11.6,34.9,11.8,34.1,12.3z"/>
</g>
<g>
	<path class="st0" d="M14.5,21.3c0.8,0.1,1.8-0.3,2.5,0.3c1.2,0.7,1.3,2.7,0.1,3.5c-1.3,1-3.6,0.3-4-1.3
		C12.7,22.7,13.4,21.4,14.5,21.3z M14.4,23.5c0.4,1,2.5,1,2.3-0.3c-0.1-0.8-1-0.8-1.6-0.9C14.6,22.5,13.9,23,14.4,23.5z"/>
</g>
<g>
	<path class="st0" d="M12.8,27c1.2-0.5,2.6,1,2.2,2.3c-0.2,1.3-2,1.8-2.9,0.8C11.1,29.3,11.5,27.4,12.8,27z M12.9,29.1
		c0.2,0.4,0.7,0.1,1,0c-0.1-0.4-0.3-0.7-0.4-1C13.1,28.3,12.6,28.7,12.9,29.1z"/>
</g>
<g>
	<path class="st0" d="M32.1,31.7c0.4-0.2,0.9,0.1,0.9,0.6c0.1,2.1,0.2,4.2,0.2,6.3c0.1,0.4-0.2,0.9-0.7,0.8
		c-1.2-0.3-2.2-1.2-3.5-1.1c-2.1,0.4-4.1,1.3-6.3,1.4c-2.2,0-4.4-0.3-6.5-0.9c-1.8-0.5-3.7-1.1-5-2.6c-0.3-0.3-0.6-0.8-0.1-1.1
		c1-1.5,2.6-2.5,4.4-2.8c4.2-0.7,8.4,0.6,12.5,1.3C29.7,33.7,30.9,32.5,32.1,31.7z M15.6,33.5c-1.3,0.3-2.5,1-3.4,2
		c1.1,0.9,2.4,1.5,3.8,1.9c2.2,0.6,4.5,1.1,6.8,1.1c2.1,0,4-0.9,6.1-1.3c1.1-0.2,2.1,0.4,3.1,0.5c0-1.4-0.1-2.8-0.1-4.2
		c-0.8,0.5-1.6,1.1-2.5,1.2c-1.2,0.2-2.4-0.1-3.5-0.3c-2.2-0.4-4.4-0.9-6.7-1.1C17.9,33.3,16.7,33.2,15.6,33.5z"/>
</g>
<path class="st0" d="M15.4,34.2c0.8-0.2,1,1.1,0.2,1.2C14.8,35.6,14.6,34.3,15.4,34.2z"/>
<path class="st0" d="M37.6,46.9c0.5-0.2,1.1,0.3,0.8,0.8c-0.5,1.1-1.3,2.1-2,3.1c-0.4-0.1-0.8-0.3-0.8-0.7c0.1-0.4,0.4-0.7,0.7-1.1
	C36.8,48.4,37.1,47.6,37.6,46.9z"/>
<path class="st0" d="M37.9,49.7c0.9-1,2-1.8,2.9-2.7c0.2,0.1,0.5,0.2,0.6,0.3c0,0.1,0.1,0.4,0.1,0.6c-0.9,0.9-1.8,1.8-2.8,2.6
	C38.3,51,37.4,50.3,37.9,49.7z"/>
<path class="st0" d="M44.4,49.1c0.5-0.2,1.1,0,0.9,0.6c0.1,0.4-0.4,0.5-0.6,0.5c-1.3,0.3-2.6,0.6-3.9,0.9c-0.6,0.3-1-0.9-0.3-1.1
	C41.8,49.7,43.1,49.4,44.4,49.1z"/>
<g>
	<g>
		<path class="st1" d="M22.9,17.4c2.1-0.2,4.3-0.2,6.4,0.1c1.2,0.2,2.4,0.3,3.4,0.9c1.4,1,2.4,2.6,2.7,4.3c0.6,4,0.6,8.1,0.7,12.1
			c0,2.9-0.3,5.8-0.7,8.7c-0.3,1.8-0.8,3.8-2.3,5.1c-1.1,0.8-2.5,0.6-3.8,0.6c-4.9-0.1-9.9-0.4-14.8-0.7c-1.7-0.1-3.4-0.1-4.9-1
			c-1.1-0.7-1.6-2-1.7-3.2C7.1,36.2,7.2,28.1,8.1,20c0.4-1.3,1.9-1.3,3-1.4c2.5-0.1,4.9-0.4,7.4-0.5C20,18,21.4,17.5,22.9,17.4z
			 M14.5,21.3c-1.1,0.1-1.8,1.5-1.4,2.4c0.5,1.6,2.7,2.3,4,1.3c1.2-0.8,1.2-2.8-0.1-3.5C16.3,21,15.3,21.3,14.5,21.3z M12.8,27
			c-1.3,0.4-1.8,2.3-0.7,3.1c0.9,0.9,2.7,0.4,2.9-0.8C15.4,28.1,14.1,26.6,12.8,27z M32.1,31.7c-1.2,0.8-2.4,2-4,1.8
			c-4.1-0.6-8.3-2-12.5-1.3c-1.8,0.3-3.4,1.3-4.4,2.8c-0.4,0.3-0.2,0.8,0.1,1.1c1.3,1.4,3.2,2.1,5,2.6c2.1,0.6,4.3,0.9,6.5,0.9
			c2.2-0.1,4.2-0.9,6.3-1.4c1.3,0,2.3,0.8,3.5,1.1c0.5,0.1,0.8-0.4,0.7-0.8c-0.1-2.1-0.1-4.2-0.2-6.3C33,31.8,32.5,31.4,32.1,31.7z"
			/>
	</g>
</g>
</svg>
