<?xml version="1.0" encoding="utf-8"?>
<!-- Generator: Adobe Illustrator 25.3.1, SVG Export Plug-In . SVG Version: 6.00 Build 0)  -->
<svg version="1.1" id="Capa_1" xmlns="http://www.w3.org/2000/svg" xmlns:xlink="http://www.w3.org/1999/xlink" x="0px" y="0px"
	 width="50.1px" height="56.7px" viewBox="0 0 50.1 56.7" style="enable-background:new 0 0 50.1 56.7;" xml:space="preserve">
<style type="text/css">
	.st0{fill:#1B1A2E;}
	.st1{fill:#FAC416;}
</style>
<g>
	<g>
		<path class="st0" d="M27.1,7c0.5-0.7,1.5-0.7,2.3-0.5c0.7,0.5,1.1,1.3,1.6,1.9c0.4,0.1,0.8-0.1,1.3-0.2c1.4-0.4,2.8-0.7,4.2-1.1
			c0.3,0.2,0.5,0.5,0.6,0.9c-1.3,1.3-2.8,2.4-3.7,4c-0.5,0.9-0.6,2-0.7,3c-0.1,3-0.1,6-0.1,8.9c-0.3,2.9-0.1,5.9-1.1,8.7
			c-1.8,3.6-5.8,5.6-9.7,6c-0.4,0.9,0,1.9-0.1,2.9c-0.1,1.2,0.2,2.5-0.1,3.7c0.3,0.7,0.6,1.3,1.2,1.8c1.8-1.8,4.2-2.8,6.7-3.3
			c2.6-0.2,5.2-0.2,7.8,0.3c1.3,0.3,2.7,0.4,4.1,0.5c0.3,1.5-1.5,1-2.4,1c-0.5-0.1-1.1-0.2-1.6-0.3c-1.9-0.5-3.9-0.5-5.9-0.5
			c-3.3,0-6.6,1.6-8.7,4.2c-0.9-0.2-1.1-1.2-1.6-1.8c-1.2-1.5-3.1-2.4-5-2.6C14.1,44,12,44.5,9.9,45c-1.5,0.4-3,1-4.4,1.9
			c-1.2,0.8-2,2-2.8,3.2c-0.5,0.2-0.7-0.4-1-0.6c1.4-2.9,4.4-4.7,7.4-5.6c2.4-0.8,5-0.9,7.5-0.7c1.3,0.2,2.5,0.8,3.7,1.3
			c0.1-1.9,0-3.8,0.1-5.8c-1.5-0.1-3-0.1-4.4-0.6c-1.4-0.8-2.7-1.8-3.6-3.2c-1.5-2-2.8-4.2-4.1-6.4c0.2-0.4,0.5-0.9,1-0.6
			c1.9,0.8,3.3,2.3,5.3,3c1.7,0.2,3.4-0.4,5-0.9c0.5-0.2,0.7-0.6,0.9-1.1c0.7-2,1.2-4.1,1.6-6.1c0.8-3.3,1.5-6.7,2.1-10.1
			c-0.5,0.3-1,0.6-1.1,1.2c0.1,0.7,0.3,1.4,0.3,2.1c-0.5-0.1-1.1,0-1.3-0.5c-0.4-1-0.3-2.2,0.4-3.1c0.4-0.3,0.8-0.5,1.3-0.7
			c0.9-0.2,1.4-1.2,2.3-1.4C26.4,9.1,26.2,7.8,27.1,7z M27.9,8.1L27.6,8c-0.1,0.6-0.1,1.2,0,1.9c0.7-0.2,1.4-0.4,2.1-0.7
			c0.5-0.2,0.1-0.8-0.2-0.9C29.3,8,29.1,7.8,29,7.5C28.5,7.5,28.1,7.6,27.9,8.1z M31.6,9.8l0-0.1c0.3,0.8,0.4,1.6,0.4,2.4
			c0.1-0.3,0.3-0.5,0.4-0.8l-0.1-0.1c0.5-0.7,1.1-1.4,1.7-2.1C33.2,9.3,32.4,9.5,31.6,9.8z M27.7,11c-0.2,1.4,0,2.9,0.9,4.1
			c0.4,0,0.8,0.1,1.1-0.2c1-1.3,1.1-3,0.7-4.6C29.5,10.3,28.6,10.8,27.7,11z M25.6,12.6c-0.1,1.8-0.6,3.6-0.9,5.4
			c-0.5,1.1-0.3,2.3-0.9,3.4c-0.3,0.6-0.2,1.2-0.3,1.9c-0.2,0.3-0.4,0.6-0.5,0.9c0,1.1-0.4,2.1-0.6,3.1c-0.3,0.7-0.5,1.4-0.6,2.2
			c-0.6,1.2-1.7,1.9-2.9,2.2l0.2,0c-1.4,0.2-2.9,0.9-4.4,0.5c-1.4-0.1-2.4-1.1-3.7-1.6c0.6,1.1,1.4,2.1,2,3.2
			c0.9,1.3,1.9,2.6,3.5,3.2c1.1,0.5,2.3,0.4,3.4,0.4c3.6,0.1,7.3-1.4,9.6-4.2c1.7-2.2,1.2-5.1,1.6-7.7c0.1-3.5,0.2-6.9,0.2-10.4
			c-0.9,0.6-1.7,1.7-2.8,1.2c-1.6-0.6-2-2.6-2.3-4.2C26.1,12.3,25.8,12.5,25.6,12.6z"/>
	</g>
	<path class="st0" d="M27.9,12.1c0.9-0.1,1.7-0.2,2.6,0C29.9,12.9,28.4,13.1,27.9,12.1z"/>
	<path class="st0" d="M3.2,50.4c4.7-1.7,9.7-1.8,14.6-1.7c1.8,0,3.5,1,5.3,0.8c1.9-0.3,3.9-0.6,5.8-0.8c3.4-0.1,6.9-0.1,10.3,0.6
		c0.6,0.1,1.2,0.2,1.8,0.3c0,0.4,0,0.7,0,1.1c-1.7,0-3.4-0.6-5.1-0.6c-2.6-0.1-5.2-0.1-7.8,0c-1.9,0.1-3.7,0.6-5.6,0.6
		c-1.8,0.1-3.5-0.8-5.3-0.7c-4,0-8-0.3-11.8,0.9c-1,0.2-1.9,0.8-2.9,0.9c-0.2-0.2-0.4-0.5-0.7-0.8C2.3,50.8,2.7,50.5,3.2,50.4z"/>
	<path class="st1" d="M31.6,9.8c0.8-0.3,1.6-0.6,2.4-0.7c-0.5,0.7-1.1,1.4-1.7,2.1C32,10.8,31.8,10.3,31.6,9.8z"/>
	<path class="st1" d="M25.6,12.6c0.2-0.1,0.5-0.3,0.7-0.4c0.3,1.5,0.6,3.6,2.3,4.2c1.2,0.4,2-0.7,2.8-1.2c0,3.5-0.1,6.9-0.2,10.4
		c-0.4,2.6,0.1,5.5-1.6,7.7c-2.3,2.8-6,4.3-9.6,4.2c-1.1-0.1-2.3,0-3.4-0.4c-1.5-0.6-2.5-2-3.5-3.2c-0.7-1.1-1.4-2.1-2-3.2
		c1.2,0.5,2.3,1.5,3.7,1.6c1.5,0.4,2.9-0.2,4.4-0.5c1.9,0,2.9-1.9,3.5-3.4c0.7-2.4,1.2-4.8,1.5-7.2c0.2-1,0.5-2,0.6-2.9
		C24.9,16.2,25.5,14.4,25.6,12.6z"/>
	<path class="st0" d="M47.5,49c-0.9-0.3-1.9,0.1-2.9,0.2c0.3-0.4,0.8-0.8,0.6-1.4c-0.3-0.5-0.9-0.5-1.3-0.1c-0.7,0.5-1.3,1-1.9,1.7
		c0.2,0.3,0.5,0.5,0.7,0.8c0.5-0.2,0.9-0.5,1.2-0.9c0.3,0.4,0.3,1.1,0.8,1.3c1,0.1,1.9-0.3,2.9-0.5C47.8,49.7,48,49.2,47.5,49z"/>
</g>
</svg>
