<?xml version="1.0" encoding="utf-8"?>
<!-- Generator: Adobe Illustrator 25.3.1, SVG Export Plug-In . SVG Version: 6.00 Build 0)  -->
<svg version="1.1" id="Capa_1" xmlns="http://www.w3.org/2000/svg" xmlns:xlink="http://www.w3.org/1999/xlink" x="0px" y="0px"
	 width="426.3px" height="229.7px" viewBox="0 0 426.3 229.7" style="enable-background:new 0 0 426.3 229.7;" xml:space="preserve"
	>
<style type="text/css">
	.st0{stroke:#000000;stroke-width:0.6327;stroke-miterlimit:10;}
</style>
<g>
	<path d="M175.4,404.6v-49.2h11.9v13.7l-0.1,3h0.1c1-1.1,2.4-2.1,4.2-2.8s3.5-1,5.4-1c4.9,0,8.7,1.8,11.6,5.2
		c2.9,3.4,4.4,7.9,4.4,13.5c0,5.6-1.5,10-4.6,13.5c-3.1,3.4-7.1,5.1-11.8,5.1c-4.3,0-7.6-1.4-9.9-4.2h-0.2c0,0.6,0.1,1.2,0.1,2v1.3
		h-11.1V404.6z M187,387.1c0,2.3,0.7,4.3,1.9,6c1.2,1.7,3,2.5,5.2,2.5c2,0,3.6-0.8,5-2.3c1.3-1.5,2-3.5,2-6.2c0-2.6-0.7-4.7-1.9-6.3
		c-1.3-1.7-3-2.4-5.1-2.4c-2,0-3.6,0.8-5,2.2C187.6,382,187,384.2,187,387.1z"/>
	<path d="M217,386.9c0-5.3,1.7-9.7,5.1-13.2c3.3-3.5,7.8-5.3,13.5-5.3c5.1,0,9.2,1.5,12,4.7c2.9,3.2,4.4,7.3,4.4,12.4
		c0,0.8-0.1,2.1-0.2,3.7h-22.6c0.4,2.1,1.4,3.6,3,4.7c1.5,1.1,3.3,1.7,5.3,1.7c3,0,6.2-1.2,9.8-3.5l4.4,8.4
		c-1.9,1.7-4.2,2.9-6.9,3.7c-2.7,0.8-5.5,1.3-8.3,1.3c-6.1,0-10.8-1.9-14.2-5.5C218.7,396.3,217,391.8,217,386.9z M229.4,382.4H240
		c0-1.5-0.4-2.8-1.3-3.7c-0.9-1-2.1-1.5-3.5-1.5C232.2,377.1,230.2,378.8,229.4,382.4z"/>
	<path d="M255.6,394.6c0-2.2,0.7-4.2,1.9-5.8s2.9-2.9,5-3.7c2.1-0.8,4.2-1.5,6.4-1.9c2.2-0.4,4.5-0.6,6.8-0.6h1v-0.7
		c0-2.6-1.7-4-5.1-4c-3.1,0-6.4,1.1-9.8,3.4l-4.1-8.4c1.7-1.2,3.9-2.3,6.6-3.2c2.9-0.9,5.6-1.3,8.4-1.3c5,0,8.8,1.3,11.6,3.9
		c2.9,2.5,4.2,6.1,4.2,10.6v21.8h-10.9v-2.1l0.1-2.2h-0.1c-1.1,1.7-2.6,2.9-4.6,3.7c-1.9,0.9-3.9,1.3-6,1.3c-3.4,0-6.2-1-8.4-3.1
		C256.8,400.2,255.6,397.7,255.6,394.6z M267.4,393.5c0,0.9,0.3,1.5,0.9,2.2c0.6,0.6,1.4,0.9,2.4,0.9c1.7,0,3.1-0.7,4.3-2
		s1.8-2.8,1.8-4.3v-1h-1.1c-2.2,0-4.2,0.3-5.8,1C268.1,391,267.4,392.1,267.4,393.5z"/>
	<path d="M296,404.6v-35.5h11.5v6l-0.1,2.2h0.1c0.8-2.4,2.2-4.5,4.3-6.3c2.1-1.7,4.4-2.5,6.9-2.5c0.3,0,0.8,0,1.3,0.1v11.7
		c-0.4-0.1-1.2-0.2-2.4-0.2c-3.2,0-5.6,1-7.3,2.9c-1.7,1.9-2.4,4.5-2.4,7.8v13.8H296L296,404.6L296,404.6z"/>
	<path d="M322.8,400.2l5.1-7.8c2.9,2.4,6.1,3.5,9.6,3.5c2.2,0,3.2-0.7,3.2-1.9c0-0.7-0.6-1.3-1.8-1.9c-1.1-0.6-2.5-1.1-4.1-1.7
		c-1.7-0.6-3.2-1.2-4.9-2c-1.7-0.8-3-2-4.2-3.5c-1.1-1.5-1.8-3.4-1.8-5.6c0-3.5,1.4-6.3,4.2-8.3c2.8-2,6.3-3,10.6-3
		c5.1,0,9.3,1.3,12.7,4.1l-4.1,8.3c-1-0.8-2.4-1.5-4.1-2.1c-1.8-0.6-3.3-0.8-4.9-0.8c-2.2,0-3.3,0.6-3.3,1.8c0,0.6,0.4,1.1,1.2,1.5
		c0.8,0.4,1.9,0.9,3.1,1.2c1.2,0.3,2.5,0.8,4,1.4c1.4,0.7,2.8,1.3,4,2.1c1.2,0.8,2.2,1.9,3.1,3.2c0.8,1.4,1.2,3,1.2,4.7
		c0,3.4-1.3,6.2-4,8.4c-2.6,2.2-6.2,3.3-10.6,3.3C331.4,405.4,326.6,403.6,322.8,400.2z"/>
</g>
<g>
	<path d="M174.9,458.8v-35.4h11.5v6l-0.1,2.2h0.1c0.8-2.4,2.2-4.5,4.3-6.3c2.1-1.7,4.4-2.5,6.9-2.5c0.3,0,0.8,0,1.3,0.1v11.7
		c-0.4-0.1-1.2-0.2-2.4-0.2c-3.2,0-5.6,1-7.3,2.9s-2.4,4.5-2.4,7.8v13.8L174.9,458.8L174.9,458.8z"/>
	<path d="M202.2,441.1c0-5.3,1.7-9.7,5.1-13.2c3.3-3.5,7.8-5.3,13.5-5.3c5.1,0,9.2,1.5,12,4.7c2.9,3.2,4.4,7.3,4.4,12.4
		c0,0.8-0.1,2.1-0.2,3.7h-22.6c0.4,2.1,1.4,3.6,3,4.7c1.5,1.1,3.3,1.7,5.3,1.7c3,0,6.2-1.2,9.8-3.5l4.4,8.4
		c-1.9,1.7-4.2,2.9-6.9,3.7s-5.5,1.3-8.3,1.3c-6.1,0-10.8-1.9-14.2-5.5C204,450.6,202.2,446.1,202.2,441.1z M214.7,436.7h10.6
		c0-1.5-0.4-2.8-1.3-3.7c-0.9-1-2.1-1.5-3.5-1.5C217.3,431.4,215.5,433.1,214.7,436.7z"/>
	<path d="M243.3,472.6v-49.2h10.7v1.8l-0.1,2.3h0.1c2.4-3.3,6.1-4.9,10.7-4.9c4.9,0,8.7,1.8,11.6,5.2c2.9,3.4,4.4,7.9,4.4,13.5
		c0,5.5-1.5,10-4.6,13.5c-3.1,3.4-7.1,5.1-11.8,5.1c-3.4,0-6.4-1.1-9-3.4h-0.1c0.1,0.8,0.1,1.9,0.1,3v13.1H243.3z M254.8,441.4
		c0,2.3,0.7,4.3,1.9,6s3,2.5,5.2,2.5c2,0,3.6-0.8,5-2.3c1.3-1.5,2-3.5,2-6.2c0-2.6-0.7-4.7-1.9-6.3c-1.3-1.7-3-2.4-5.1-2.4
		c-2,0-3.6,0.8-5,2.2S254.8,438.5,254.8,441.4z"/>
	<path d="M286.5,446.4v-22.9h11.9v20.8c0,3.1,1.2,4.6,3.7,4.6c2.4,0,4.3-0.9,5.6-2.8c1.3-1.9,1.9-4.2,1.9-6.9v-15.8h11.9v35.5H310
		v-3.1l0.1-2.2H310c-1,1.9-2.4,3.4-4.5,4.5c-2,1.1-4.2,1.7-6.6,1.7c-3.9,0-6.9-1-9.2-3.1C287.6,454.5,286.5,451.1,286.5,446.4z"/>
	<path d="M329.6,458.8v-49.2h11.9v13.7l-0.1,3h0.1c1-1.1,2.4-2.1,4.2-2.8c1.8-0.7,3.5-1,5.4-1c4.9,0,8.7,1.8,11.6,5.2
		s4.4,7.9,4.4,13.5c0,5.5-1.5,10-4.6,13.5c-3.1,3.4-7.1,5.1-11.8,5.1c-4.3,0-7.6-1.4-9.9-4.2h-0.2c0,0.6,0.1,1.2,0.1,2v1.3
		L329.6,458.8L329.6,458.8z M341.3,441.4c0,2.3,0.7,4.3,1.9,6c1.2,1.7,3,2.5,5.2,2.5c2,0,3.6-0.8,5-2.3c1.3-1.5,2-3.5,2-6.2
		c0-2.6-0.7-4.7-1.9-6.3c-1.3-1.7-3-2.4-5.1-2.4c-2,0-3.6,0.8-5,2.2C341.8,436.3,341.3,438.5,341.3,441.4z"/>
	<path d="M373,445.8v-36.2h11.9v34.5c0,1.8,0.2,3,0.7,3.5c0.4,0.7,1.3,1,2.6,1c0.6,0,1.1,0,1.4-0.1v10.4c-1.7,0.1-2.9,0.2-3.5,0.2
		c-1.9,0-3.4-0.1-4.7-0.4c-1.3-0.3-2.8-0.9-4.1-1.8c-1.3-0.9-2.4-2.2-3.1-4.1C373.5,451,373,448.7,373,445.8z"/>
	<path d="M395.4,458.8v-35.4h11.9v35.5L395.4,458.8L395.4,458.8z M395.5,418.9v-9.3h11.7v9.3H395.5z"/>
	<path d="M413.3,441.1c0-5.1,1.8-9.4,5.3-13c3.5-3.6,8.4-5.5,14.4-5.5c2.6,0,5.3,0.4,7.8,1.3s4.6,2.2,6.3,4.1l-5.1,7.9
		c-2.4-2.3-5.2-3.4-8.4-3.4c-2.6,0-4.7,0.9-6.2,2.5c-1.5,1.7-2.2,3.6-2.2,6c0,2.3,0.8,4.4,2.3,6.2c1.5,1.8,3.7,2.6,6.5,2.6
		c3.2,0,6.4-1.4,9.7-4.3l4.3,8.4c-1.8,1.8-4,3.2-6.7,4.3c-2.7,1.1-5.5,1.5-8.5,1.5c-6.1,0-10.9-1.8-14.4-5.4
		C415.1,450.7,413.3,446.3,413.3,441.1z"/>
</g>
<path d="M12,171.7c0-0.5,0-0.9,0-1.2c2.9,2.9,6.7,4.5,11.7,4.5c5.8,0,10.8-2.1,14.8-6.4c3.8-4.1,5.8-9.8,5.8-16.7
	s-1.9-12.4-5.5-16.7c-3.6-4.3-8.4-6.4-14.4-6.4c-2.2,0-4.5,0.5-6.7,1.2c-1.9,0.7-3.3,1.5-4.5,2.8l0.2-2.6V113H-2.1v60.7h14.3v-2.1
	C12.2,171.7,12,171.7,12,171.7z M14.8,159.1c-1.4-1.9-2.1-4.3-2.1-6.9c0-3.4,0.7-6,2.2-7.6c1.5-1.7,3.4-2.6,5.7-2.6
	c2.4,0,4.3,0.9,5.7,2.8c1.5,1.9,2.2,4.3,2.2,7.4s-0.9,5.5-2.2,7.2c-1.5,1.7-3.4,2.6-5.7,2.6C18.2,161.9,16.3,161,14.8,159.1z"/>
<path d="M70.3,174.9c3.4,0,6.7-0.5,10.1-1.7s6.2-2.8,8.6-4.6l0.3-0.2l-5.8-11l-0.5,0.3c-4.3,2.8-8.1,4.3-11.5,4.3
	c-2.4,0-4.5-0.7-6.2-1.9c-1.5-1.2-2.8-2.8-3.3-4.8h27v-0.5c0.2-2.1,0.3-3.6,0.3-4.6c0-6.2-1.9-11.3-5.5-15.3c-3.6-4-8.6-6-15-6
	c-6.9,0-12.6,2.2-16.7,6.5s-6.2,9.8-6.2,16.5c0,6.2,2.2,11.7,6.5,16.2C56.9,172.5,62.9,174.9,70.3,174.9z M62.4,145.9
	c1-3.6,3.1-5.5,6.4-5.5c1.7,0,2.9,0.5,4,1.7c0.9,1,1.4,2.2,1.5,3.8H62.4z"/>
<path d="M105.4,174.9c2.6,0,5.2-0.5,7.4-1.7c1.9-1,3.6-2.2,5-3.8v1.4v3.1h14.3v-27c0-5.5-1.7-10-5.3-13.2c-3.4-3.3-8.4-4.8-14.4-4.8
	c-3.4,0-6.9,0.5-10.3,1.7s-6.2,2.4-8.3,4l-0.3,0.2l5.5,11l0.5-0.3c4-2.6,7.9-4,11.5-4c3.8,0,5.7,1.4,5.7,4.3v0.3h-0.7
	c-2.9,0-5.7,0.2-8.4,0.7c-2.8,0.5-5.3,1.2-7.9,2.4c-2.6,1-4.6,2.8-6.2,4.8c-1.5,2.1-2.4,4.6-2.4,7.4c0,3.8,1.4,7.1,4.1,9.8
	C97.7,173.6,101.1,174.9,105.4,174.9z M106.1,160c0-1.5,0.9-2.8,2.8-3.4c1.9-0.9,4.3-1.2,6.9-1.2h0.9v0.7c0,1.7-0.7,3.3-2.1,4.8
	c-1.4,1.5-2.9,2.2-4.8,2.2c-1.2,0-2.1-0.3-2.8-0.9C106.4,161.5,106.1,160.8,106.1,160z"/>
<path d="M153.6,156.7c0-4,1-7.1,2.9-9.3c1.9-2.2,4.8-3.3,8.4-3.3c1.7,0,2.4,0.2,2.8,0.2l0.7,0.2v-15.1H168c-0.7-0.2-1.2-0.2-1.7-0.2
	c-3.3,0-6.2,1-8.8,3.3c-1.9,1.5-3.4,3.4-4.5,5.5V130h-14.8v44h15.5v-17.4H153.6z"/>
<path class="st0" d="M17.4,188.6c-2.2,0-4.2,0.7-6,2.2c-1.3,1.1-2.4,2.4-3.1,3.8v-5.4H-1.8v30.1H8.8v-11.8c0-2.7,0.7-4.8,2-6.4
	c1.3-1.5,3.3-2.2,5.8-2.2c1.2,0,1.6,0.1,1.9,0.1l0.5,0.1v-10.5h-0.2C18.1,188.6,17.7,188.6,17.4,188.6z"/>
<path class="st0" d="M48.8,206.1c0.1-1.4,0.2-2.5,0.2-3.2c0-4.2-1.3-7.8-3.8-10.5s-5.9-4.1-10.2-4.1c-4.7,0-8.6,1.5-11.4,4.5
	s-4.2,6.7-4.2,11.3c0,4.2,1.5,8,4.5,11.1c2.9,3.1,7.1,4.7,12.1,4.7c2.4,0,4.6-0.4,6.9-1.2s4.2-1.9,5.9-3.2l0.2-0.1l-4-7.5l-0.4,0.2
	c-2.9,1.9-5.5,2.9-7.9,2.9c-1.6,0-3.1-0.5-4.2-1.3c-1.1-0.8-1.9-1.9-2.2-3.3h18.5V206.1z M34.9,196.4c1.2,0,2,0.4,2.7,1.2
	c0.6,0.7,0.9,1.5,1.1,2.6h-8C31.3,197.5,32.7,196.4,34.9,196.4z"/>
<path class="st0" d="M70.4,188.5c-3.6,0-6.6,1.2-8.7,3.5l0.1-1.1v-1.8h-9.7v41.6h10.6v-11.4c0-0.7,0-1.3,0-1.9
	c2.1,1.6,4.6,2.5,7.2,2.5c4,0,7.4-1.4,10.1-4.4c2.6-2.8,4-6.7,4-11.4s-1.3-8.5-3.8-11.4C77.8,189.9,74.5,188.5,70.4,188.5z
	 M67.9,197.4c1.6,0,2.9,0.6,3.9,1.9c1.1,1.3,1.5,2.9,1.5,5.1s-0.6,3.8-1.5,4.9c-1.1,1.2-2.4,1.8-3.9,1.8c-1.8,0-3.1-0.6-4-2
	c-0.9-1.3-1.4-2.9-1.4-4.7c0-2.4,0.5-4.1,1.5-5.2C65.1,198,66.4,197.4,67.9,197.4z"/>
<path class="st0" d="M105.9,202.5c0,2.2-0.5,4.1-1.5,5.7c-1.1,1.4-2.5,2.1-4.4,2.1c-1.9,0-2.8-1.2-2.8-3.5v-17.7H86.6v19.4
	c0,4,0.9,6.9,2.9,8.7c2,1.8,4.6,2.7,7.9,2.7c2,0,3.9-0.5,5.7-1.4c1.4-0.7,2.5-1.8,3.3-2.8v0.7v2.9h10.1v-30.3h-10.6V202.5z"/>
<path class="st0" d="M139.2,188.5c-1.5,0-3.1,0.4-4.6,0.8c-1.3,0.5-2.2,1.1-3.1,1.9l0.1-1.8v-11.8h-10.6v41.6h9.8v-1.4
	c0-0.4,0-0.6,0-0.8c2,2,4.6,3.1,8,3.1c4,0,7.4-1.4,10.1-4.4c2.6-2.8,4-6.7,4-11.4s-1.3-8.5-3.8-11.4
	C146.7,189.9,143.4,188.5,139.2,188.5z M142.3,204.4c0,2.1-0.6,3.8-1.5,4.9c-1.1,1.2-2.4,1.8-3.9,1.8c-1.8,0-3.1-0.6-4-2
	c-0.9-1.3-1.4-2.9-1.4-4.7c0-2.4,0.5-4.1,1.5-5.2c1.1-1.2,2.4-1.8,3.9-1.8c1.6,0,2.9,0.6,3.9,1.9
	C141.7,200.6,142.3,202.2,142.3,204.4z"/>
<path class="st0" d="M168.8,210.1c-0.9,0-1.6-0.2-1.9-0.7c-0.4-0.5-0.5-1.4-0.5-2.8v-29h-10.6V208c0,2.4,0.4,4.5,0.9,6
	c0.6,1.6,1.5,2.8,2.7,3.6c1.2,0.7,2.4,1.3,3.5,1.5c1.2,0.2,2.5,0.4,4,0.4c0.6,0,1.6,0,3.1-0.1h0.4v-9.3h-0.4
	C169.7,210.1,169.3,210.1,168.8,210.1z"/>
<rect x="172.9" y="189.1" class="st0" width="10.6" height="30.1"/>
<rect x="175.5" y="177.6" width="10.4" height="8.4"/>
<path class="st0" d="M212.3,207.3l-0.4,0.2c-2.7,2.4-5.3,3.4-7.9,3.4c-2.2,0-4-0.7-5.2-2.1c-1.2-1.4-1.9-3.1-1.9-4.9
	c0-1.8,0.6-3.4,1.8-4.7s2.8-2,4.9-2c2.5,0,4.8,0.9,6.7,2.8l0.4,0.2l4.6-7.2l-0.1-0.2c-1.4-1.5-3.2-2.7-5.4-3.4
	c-2.1-0.7-4.4-1.2-6.6-1.2c-5.1,0-9.2,1.5-12.2,4.7c-3.1,3.1-4.6,6.8-4.6,11.1c0,4.4,1.5,8.1,4.6,11.2c3.1,3.1,7.2,4.6,12.2,4.6
	c2.5,0,4.9-0.5,7.2-1.3c2.4-0.9,4.2-2.1,5.7-3.6l0.1-0.1L212.3,207.3z"/>
<path class="st0" d="M219.2,211c0-1.9,0.5-3.5,1.5-4.9c1-1.4,2.4-2.4,4.1-3.2c1.7-0.7,3.5-1.3,5.3-1.6c1.8-0.3,3.7-0.5,5.7-0.5h0.9
	v-0.5c0-2.2-1.4-3.3-4.2-3.3c-2.6,0-5.3,0.9-8.1,2.8l-3.4-7c1.3-1,3.2-1.9,5.5-2.7c2.4-0.8,4.7-1.1,7-1.1c4.1,0,7.3,1.1,9.7,3.2
	c2.3,2.1,3.5,5.1,3.5,8.8v18.2h-9.1v-1.8l0.1-1.8h-0.1c-1,1.3-2.2,2.4-3.8,3.2c-1.6,0.8-3.2,1.1-5,1.1c-2.8,0-5.1-0.9-6.9-2.6
	C220.1,215.7,219.2,213.6,219.2,211z M229,210.1c0,0.7,0.2,1.3,0.7,1.8c0.5,0.5,1.2,0.7,2.1,0.7c1.4,0,2.6-0.6,3.6-1.7
	c1-1.1,1.5-2.3,1.5-3.6v-0.8h-0.9c-1.8,0-3.5,0.3-4.8,0.8S229,208.9,229,210.1z"/>
<path class="st0" d="M251.1,219.3v-29.5h9.5v2.6l-0.1,1.8h0.1c2-3.4,5.2-5.1,9.4-5.1c7.1,0,10.6,3.7,10.6,11.1v19.2h-9.9V202
	c0-2.6-1.1-3.9-3.3-3.9c-2.1,0-3.7,0.7-4.8,2.2c-1.1,1.5-1.6,3.4-1.6,5.6v13.4H251.1z"/>
<g>
	<path d="M25.5,87.4c-1.2-0.7-2-1.6-2.7-2.9c-0.6-1.2-0.9-2.7-0.9-4.4c0-1.7,0.3-3.1,0.9-4.3c0.6-1.2,1.5-2.2,2.7-2.8
		c1.2-0.7,2.5-1,4-1c1,0,1.9,0.1,2.8,0.4c0.9,0.3,1.7,0.7,2.3,1.3c0.2,0.2,0.3,0.3,0.4,0.5c0.1,0.2,0.1,0.4,0.1,0.6
		c0,0.3-0.1,0.6-0.3,0.8c-0.2,0.2-0.4,0.3-0.7,0.3c-0.3,0-0.6-0.1-0.9-0.3c-0.7-0.5-1.3-0.8-1.8-1c-0.6-0.2-1.2-0.3-1.9-0.3
		c-1.6,0-2.8,0.5-3.6,1.5c-0.8,1-1.2,2.4-1.2,4.3c0,1.9,0.4,3.4,1.2,4.4c0.8,1,2,1.5,3.6,1.5c0.6,0,1.3-0.1,1.8-0.3
		c0.6-0.2,1.2-0.5,1.9-1c0.2-0.1,0.3-0.2,0.5-0.2c0.2-0.1,0.3-0.1,0.5-0.1c0.3,0,0.5,0.1,0.7,0.3c0.2,0.2,0.3,0.5,0.3,0.8
		c0,0.2,0,0.4-0.1,0.6s-0.2,0.3-0.4,0.5c-0.7,0.6-1.5,1-2.3,1.3c-0.9,0.3-1.8,0.4-2.8,0.4C28,88.4,26.6,88.1,25.5,87.4z"/>
	<path d="M44.6,77.1c0.2,0.2,0.3,0.5,0.3,0.9c0,0.4-0.1,0.7-0.3,0.9c-0.2,0.2-0.6,0.3-1.1,0.4l-0.7,0.1c-0.9,0.1-1.5,0.4-2,0.9
		c-0.4,0.5-0.6,1.2-0.6,1.9V87c0,0.4-0.1,0.8-0.4,1c-0.3,0.2-0.6,0.4-1,0.4c-0.4,0-0.7-0.1-1-0.4c-0.3-0.2-0.4-0.6-0.4-1v-8.8
		c0-0.4,0.1-0.7,0.4-1c0.3-0.2,0.6-0.3,1-0.3c0.4,0,0.7,0.1,1,0.3c0.2,0.2,0.4,0.5,0.4,0.9v0.9c0.3-0.7,0.7-1.2,1.3-1.5
		c0.6-0.4,1.2-0.6,1.9-0.6l0.3,0C44.1,76.9,44.4,76.9,44.6,77.1z"/>
	<path d="M56,77.2c0.3,0.2,0.4,0.6,0.4,1V87c0,0.4-0.1,0.7-0.4,1s-0.6,0.4-1,0.4c-0.4,0-0.7-0.1-1-0.3c-0.2-0.2-0.4-0.5-0.4-0.9
		v-0.6c-0.3,0.6-0.8,1.1-1.4,1.4c-0.6,0.3-1.3,0.5-2,0.5c-2.7,0-4.1-1.5-4.1-4.6v-5.6c0-0.4,0.1-0.7,0.4-1c0.3-0.2,0.6-0.4,1-0.4
		c0.4,0,0.8,0.1,1,0.4c0.3,0.2,0.4,0.6,0.4,1v5.6c0,0.8,0.2,1.4,0.5,1.7c0.3,0.4,0.8,0.6,1.5,0.6c0.8,0,1.4-0.3,1.9-0.8
		c0.5-0.5,0.7-1.2,0.7-2.1v-5.1c0-0.4,0.1-0.7,0.4-1c0.3-0.2,0.6-0.4,1-0.4C55.4,76.9,55.7,77,56,77.2z"/>
	<path d="M68.8,87.1c0,0.3-0.1,0.6-0.3,0.8c-0.2,0.2-0.5,0.3-1,0.3H60c-0.4,0-0.7-0.1-0.9-0.4c-0.2-0.2-0.4-0.5-0.4-0.9
		c0-0.3,0.1-0.7,0.4-1l5.8-6.7h-5.1c-0.4,0-0.7-0.1-1-0.3c-0.2-0.2-0.3-0.4-0.3-0.8s0.1-0.6,0.3-0.8c0.2-0.2,0.5-0.3,1-0.3h7.3
		c0.4,0,0.7,0.1,0.9,0.4c0.2,0.2,0.4,0.5,0.4,0.9c0,0.4-0.1,0.7-0.4,1l-5.9,6.7h5.3C68.4,86.1,68.8,86.4,68.8,87.1z"/>
	<path d="M79,78c0.7,0.8,1.1,1.9,1.1,3.5V87c0,0.4-0.1,0.7-0.4,1c-0.2,0.2-0.6,0.4-1,0.4c-0.4,0-0.7-0.1-1-0.4
		c-0.2-0.2-0.4-0.6-0.4-1v-0.5c-0.3,0.6-0.7,1.1-1.2,1.4c-0.6,0.3-1.2,0.5-1.9,0.5c-0.7,0-1.4-0.2-2-0.5c-0.6-0.3-1.1-0.7-1.4-1.2
		s-0.5-1.1-0.5-1.8c0-0.8,0.2-1.5,0.6-1.9s1.1-0.8,2-1c0.9-0.2,2.2-0.3,3.9-0.3h0.6v-0.5c0-0.7-0.2-1.3-0.5-1.6
		c-0.3-0.3-0.8-0.5-1.5-0.5c-0.4,0-0.9,0.1-1.3,0.2s-1,0.3-1.6,0.6c-0.4,0.2-0.7,0.3-0.9,0.3c-0.3,0-0.5-0.1-0.7-0.3
		c-0.2-0.2-0.3-0.5-0.3-0.8c0-0.3,0.1-0.5,0.2-0.7c0.1-0.2,0.3-0.4,0.6-0.5c0.5-0.3,1.2-0.5,1.9-0.7s1.5-0.2,2.2-0.2
		C77.1,76.8,78.3,77.2,79,78z M76.7,85.6c0.5-0.5,0.7-1.2,0.7-2v-0.5H77c-1,0-1.8,0-2.4,0.1c-0.6,0.1-1,0.2-1.2,0.5
		c-0.2,0.2-0.4,0.5-0.4,0.9c0,0.5,0.2,0.9,0.5,1.2c0.3,0.3,0.8,0.5,1.3,0.5C75.6,86.3,76.2,86.1,76.7,85.6z"/>
	<path d="M89.6,88c-0.3-0.2-0.4-0.6-0.4-1V73.4c0-0.4,0.1-0.8,0.4-1c0.3-0.2,0.6-0.3,1-0.3c0.4,0,0.7,0.1,1,0.3
		c0.3,0.2,0.4,0.6,0.4,1V87c0,0.4-0.1,0.8-0.4,1c-0.3,0.2-0.6,0.4-1,0.4C90.2,88.3,89.8,88.2,89.6,88z"/>
	<path d="M103.2,78c0.7,0.8,1.1,1.9,1.1,3.5V87c0,0.4-0.1,0.7-0.4,1c-0.2,0.2-0.6,0.4-1,0.4c-0.4,0-0.7-0.1-1-0.4
		c-0.2-0.2-0.4-0.6-0.4-1v-0.5c-0.3,0.6-0.7,1.1-1.2,1.4c-0.6,0.3-1.2,0.5-1.9,0.5c-0.7,0-1.4-0.2-2-0.5c-0.6-0.3-1.1-0.7-1.4-1.2
		s-0.5-1.1-0.5-1.8c0-0.8,0.2-1.5,0.6-1.9s1.1-0.8,2-1c0.9-0.2,2.2-0.3,3.9-0.3h0.6v-0.5c0-0.7-0.2-1.3-0.5-1.6
		c-0.3-0.3-0.8-0.5-1.5-0.5c-0.4,0-0.9,0.1-1.3,0.2s-1,0.3-1.6,0.6c-0.4,0.2-0.7,0.3-0.9,0.3c-0.3,0-0.5-0.1-0.7-0.3
		c-0.2-0.2-0.3-0.5-0.3-0.8c0-0.3,0.1-0.5,0.2-0.7c0.1-0.2,0.3-0.4,0.6-0.5c0.5-0.3,1.2-0.5,1.9-0.7s1.5-0.2,2.2-0.2
		C101.3,76.8,102.4,77.2,103.2,78z M100.9,85.6c0.5-0.5,0.7-1.2,0.7-2v-0.5h-0.4c-1,0-1.8,0-2.4,0.1c-0.6,0.1-1,0.2-1.2,0.5
		c-0.2,0.2-0.4,0.5-0.4,0.9c0,0.5,0.2,0.9,0.5,1.2c0.3,0.3,0.8,0.5,1.3,0.5C99.8,86.3,100.4,86.1,100.9,85.6z"/>
	<path d="M107.2,87.4c-0.5-0.3-0.7-0.7-0.7-1.2c0-0.3,0.1-0.5,0.2-0.7s0.4-0.3,0.6-0.3c0.3,0,0.6,0.1,1.1,0.4
		c0.5,0.2,0.9,0.4,1.3,0.5c0.4,0.1,0.9,0.2,1.5,0.2c0.6,0,1.1-0.1,1.5-0.3c0.4-0.2,0.5-0.5,0.5-0.9c0-0.3-0.1-0.5-0.2-0.6
		c-0.1-0.2-0.4-0.3-0.8-0.4c-0.4-0.1-0.9-0.3-1.7-0.4c-1.3-0.3-2.3-0.7-2.9-1.2s-0.9-1.2-0.9-2.1c0-0.7,0.2-1.3,0.6-1.8
		s0.9-1,1.6-1.2c0.7-0.3,1.5-0.4,2.3-0.4c0.6,0,1.2,0.1,1.8,0.2c0.6,0.2,1.1,0.4,1.6,0.7c0.5,0.3,0.7,0.7,0.7,1.2
		c0,0.3-0.1,0.6-0.2,0.8c-0.2,0.2-0.4,0.3-0.6,0.3c-0.2,0-0.3,0-0.5-0.1c-0.2-0.1-0.4-0.2-0.6-0.3c-0.4-0.2-0.8-0.4-1.1-0.5
		c-0.3-0.1-0.7-0.2-1.2-0.2c-0.6,0-1,0.1-1.3,0.3c-0.3,0.2-0.5,0.5-0.5,0.9c0,0.4,0.2,0.7,0.5,0.9c0.3,0.2,1,0.4,1.9,0.6
		c1,0.2,1.8,0.5,2.4,0.7c0.6,0.3,1,0.6,1.2,1c0.2,0.4,0.4,0.9,0.4,1.6c0,1-0.4,1.9-1.3,2.5c-0.9,0.6-2,0.9-3.4,0.9
		C109.5,88.4,108.2,88.1,107.2,87.4z"/>
	<path d="M26.2,102.2c-0.3,0.4-0.5,0.9-0.5,1.6v0.5h1.9c0.8,0,1.3,0.4,1.3,1.1s-0.4,1.1-1.3,1.1h-1.9v7.7c0,0.4-0.1,0.8-0.4,1
		c-0.3,0.2-0.6,0.3-1,0.3c-0.4,0-0.7-0.1-1-0.3c-0.3-0.2-0.4-0.6-0.4-1v-7.7h-1.1c-0.8,0-1.3-0.4-1.3-1.1s0.4-1.1,1.3-1.1h1.1v-0.2
		c0-1.4,0.4-2.5,1.1-3.3c0.7-0.8,1.8-1.3,3.2-1.4l0.6,0c0.6,0,1,0,1.3,0.2s0.4,0.4,0.4,0.8c0,0.7-0.4,1-1.1,1.1l-0.6,0
		C27,101.6,26.5,101.8,26.2,102.2z"/>
	<path d="M37.4,104.4c0.2,0.2,0.3,0.5,0.3,0.9c0,0.4-0.1,0.7-0.3,0.9c-0.2,0.2-0.6,0.3-1.1,0.4l-0.7,0.1c-0.9,0.1-1.5,0.4-2,0.9
		c-0.4,0.5-0.6,1.2-0.6,1.9v4.8c0,0.4-0.1,0.8-0.4,1c-0.3,0.2-0.6,0.4-1,0.4c-0.4,0-0.7-0.1-1-0.4c-0.3-0.2-0.4-0.6-0.4-1v-8.8
		c0-0.4,0.1-0.7,0.4-1c0.3-0.2,0.6-0.3,1-0.3c0.4,0,0.7,0.1,1,0.3c0.2,0.2,0.4,0.5,0.4,0.9v0.9c0.3-0.7,0.7-1.2,1.3-1.5
		c0.6-0.4,1.2-0.6,1.9-0.6l0.3,0C36.8,104.1,37.1,104.2,37.4,104.4z"/>
	<path d="M40.8,114.9c-0.9-0.5-1.5-1.1-2-2c-0.5-0.9-0.7-1.9-0.7-3.1c0-1.2,0.2-2.2,0.7-3.1c0.5-0.9,1.1-1.5,2-2
		c0.9-0.5,1.8-0.7,3-0.7c1.1,0,2.1,0.2,3,0.7s1.5,1.1,2,2c0.5,0.9,0.7,1.9,0.7,3.1c0,1.2-0.2,2.2-0.7,3.1c-0.5,0.9-1.1,1.6-2,2
		s-1.8,0.7-3,0.7C42.6,115.6,41.6,115.4,40.8,114.9z M45.8,112.5c0.5-0.6,0.7-1.5,0.7-2.7c0-1.2-0.2-2.1-0.7-2.7
		c-0.5-0.6-1.2-0.9-2.1-0.9c-0.9,0-1.6,0.3-2.1,0.9c-0.5,0.6-0.7,1.5-0.7,2.7c0,1.2,0.2,2.1,0.7,2.7c0.5,0.6,1.2,0.9,2.1,0.9
		C44.7,113.4,45.4,113.1,45.8,112.5z"/>
	<path d="M61.2,105.2c0.6,0.8,1,1.9,1,3.4v5.6c0,0.4-0.1,0.8-0.4,1s-0.6,0.4-1,0.4c-0.4,0-0.8-0.1-1-0.4c-0.3-0.2-0.4-0.6-0.4-1
		v-5.4c0-0.9-0.2-1.5-0.5-1.9c-0.3-0.4-0.8-0.6-1.5-0.6c-0.8,0-1.5,0.3-2,0.8c-0.5,0.5-0.7,1.2-0.7,2.1v5.1c0,0.4-0.1,0.8-0.4,1
		c-0.3,0.2-0.6,0.4-1,0.4c-0.4,0-0.8-0.1-1-0.4s-0.4-0.6-0.4-1v-8.8c0-0.4,0.1-0.7,0.4-1c0.3-0.2,0.6-0.4,1-0.4c0.4,0,0.7,0.1,1,0.4
		s0.4,0.5,0.4,0.9v0.6c0.4-0.6,0.9-1.1,1.5-1.4s1.4-0.5,2.2-0.5C59.5,104.1,60.5,104.4,61.2,105.2z"/>
	<path d="M71.9,114.5c0,0.4-0.1,0.6-0.4,0.8c-0.3,0.2-0.7,0.3-1.3,0.2l-0.6,0c-2.5-0.2-3.8-1.5-3.8-4.1v-4.9h-1.1
		c-0.4,0-0.7-0.1-0.9-0.3c-0.2-0.2-0.3-0.4-0.3-0.8s0.1-0.6,0.3-0.8c0.2-0.2,0.5-0.3,0.9-0.3h1.1v-2.1c0-0.4,0.1-0.7,0.4-1
		c0.3-0.2,0.6-0.4,1-0.4c0.4,0,0.8,0.1,1,0.4c0.3,0.2,0.4,0.6,0.4,1v2.1h1.9c0.4,0,0.7,0.1,0.9,0.3c0.2,0.2,0.3,0.4,0.3,0.8
		s-0.1,0.6-0.3,0.8c-0.2,0.2-0.5,0.3-0.9,0.3h-1.9v5.1c0,1.1,0.5,1.7,1.5,1.8l0.6,0C71.5,113.5,71.9,113.8,71.9,114.5z"/>
	<path d="M82.8,112.7c0.2,0.2,0.2,0.5,0.2,0.8c0,0.5-0.3,0.9-0.8,1.2c-0.5,0.3-1.1,0.5-1.7,0.7c-0.7,0.2-1.3,0.3-1.9,0.3
		c-1.8,0-3.2-0.5-4.2-1.5c-1-1-1.6-2.4-1.6-4.2c0-1.1,0.2-2.1,0.7-3c0.5-0.9,1.1-1.6,1.9-2c0.8-0.5,1.8-0.7,2.8-0.7
		c1,0,1.9,0.2,2.6,0.7c0.7,0.4,1.3,1.1,1.7,1.9c0.4,0.8,0.6,1.7,0.6,2.8c0,0.7-0.3,1-0.9,1h-6.7c0.1,1,0.4,1.8,0.9,2.3
		c0.5,0.5,1.2,0.7,2.2,0.7c0.5,0,0.9-0.1,1.3-0.2c0.4-0.1,0.8-0.3,1.3-0.5c0.5-0.2,0.8-0.4,1-0.4C82.4,112.4,82.6,112.5,82.8,112.7z
		 M76.4,106.8c-0.5,0.5-0.7,1.2-0.8,2.1h5.1c0-0.9-0.3-1.6-0.7-2.1s-1-0.7-1.8-0.7C77.5,106.1,76.8,106.3,76.4,106.8z"/>
	<path d="M92.5,104.4c0.2,0.2,0.3,0.5,0.3,0.9c0,0.4-0.1,0.7-0.3,0.9c-0.2,0.2-0.6,0.3-1.1,0.4l-0.7,0.1c-0.9,0.1-1.5,0.4-2,0.9
		c-0.4,0.5-0.6,1.2-0.6,1.9v4.8c0,0.4-0.1,0.8-0.4,1c-0.3,0.2-0.6,0.4-1,0.4c-0.4,0-0.7-0.1-1-0.4c-0.3-0.2-0.4-0.6-0.4-1v-8.8
		c0-0.4,0.1-0.7,0.4-1c0.3-0.2,0.6-0.3,1-0.3c0.4,0,0.7,0.1,1,0.3c0.2,0.2,0.4,0.5,0.4,0.9v0.9c0.3-0.7,0.7-1.2,1.3-1.5
		c0.6-0.4,1.2-0.6,1.9-0.6l0.3,0C92,104.1,92.3,104.2,92.5,104.4z"/>
	<path d="M102.3,105.2c0.7,0.8,1.1,1.9,1.1,3.5v5.5c0,0.4-0.1,0.7-0.4,1c-0.2,0.2-0.6,0.4-1,0.4c-0.4,0-0.7-0.1-1-0.4
		c-0.2-0.2-0.4-0.6-0.4-1v-0.5c-0.3,0.6-0.7,1.1-1.2,1.4c-0.6,0.3-1.2,0.5-1.9,0.5c-0.7,0-1.4-0.2-2-0.5c-0.6-0.3-1.1-0.7-1.4-1.2
		s-0.5-1.1-0.5-1.8c0-0.8,0.2-1.5,0.6-1.9s1.1-0.8,2-1c0.9-0.2,2.2-0.3,3.9-0.3h0.6v-0.5c0-0.7-0.2-1.3-0.5-1.6
		c-0.3-0.3-0.8-0.5-1.5-0.5c-0.4,0-0.9,0.1-1.3,0.2s-1,0.3-1.6,0.6c-0.4,0.2-0.7,0.3-0.9,0.3c-0.3,0-0.5-0.1-0.7-0.3
		c-0.2-0.2-0.3-0.5-0.3-0.8c0-0.3,0.1-0.5,0.2-0.7c0.1-0.2,0.3-0.4,0.6-0.5c0.5-0.3,1.2-0.5,1.9-0.7s1.5-0.2,2.2-0.2
		C100.4,104.1,101.6,104.4,102.3,105.2z M100,112.8c0.5-0.5,0.7-1.2,0.7-2v-0.5h-0.4c-1,0-1.8,0-2.4,0.1c-0.6,0.1-1,0.2-1.2,0.5
		c-0.2,0.2-0.4,0.5-0.4,0.9c0,0.5,0.2,0.9,0.5,1.2c0.3,0.3,0.8,0.5,1.3,0.5C98.9,113.6,99.5,113.3,100,112.8z"/>
	<path d="M106.3,114.6c-0.5-0.3-0.7-0.7-0.7-1.2c0-0.3,0.1-0.5,0.2-0.7s0.4-0.3,0.6-0.3c0.3,0,0.6,0.1,1.1,0.4
		c0.5,0.2,0.9,0.4,1.3,0.5c0.4,0.1,0.9,0.2,1.5,0.2c0.6,0,1.1-0.1,1.5-0.3c0.4-0.2,0.5-0.5,0.5-0.9c0-0.3-0.1-0.5-0.2-0.6
		c-0.1-0.2-0.4-0.3-0.8-0.4c-0.4-0.1-0.9-0.3-1.7-0.4c-1.3-0.3-2.3-0.7-2.9-1.2s-0.9-1.2-0.9-2.1c0-0.7,0.2-1.3,0.6-1.8
		s0.9-1,1.6-1.2c0.7-0.3,1.5-0.4,2.3-0.4c0.6,0,1.2,0.1,1.8,0.2c0.6,0.2,1.1,0.4,1.6,0.7c0.5,0.3,0.7,0.7,0.7,1.2
		c0,0.3-0.1,0.6-0.2,0.8c-0.2,0.2-0.4,0.3-0.6,0.3c-0.2,0-0.3,0-0.5-0.1c-0.2-0.1-0.4-0.2-0.6-0.3c-0.4-0.2-0.8-0.4-1.1-0.5
		c-0.3-0.1-0.7-0.2-1.2-0.2c-0.6,0-1,0.1-1.3,0.3c-0.3,0.2-0.5,0.5-0.5,0.9c0,0.4,0.2,0.7,0.5,0.9c0.3,0.2,1,0.4,1.9,0.6
		c1,0.2,1.8,0.5,2.4,0.7c0.6,0.3,1,0.6,1.2,1c0.2,0.4,0.4,0.9,0.4,1.6c0,1-0.4,1.9-1.3,2.5c-0.9,0.6-2,0.9-3.4,0.9
		C108.7,115.6,107.3,115.3,106.3,114.6z"/>
	<path d="M125.5,114.9c-0.8-0.5-1.5-1.1-1.9-2c-0.5-0.9-0.7-1.9-0.7-3c0-1.1,0.2-2.2,0.7-3.1c0.5-0.9,1.1-1.6,2-2.1
		c0.9-0.5,1.9-0.7,3-0.7c0.6,0,1.2,0.1,1.8,0.2c0.6,0.2,1.1,0.4,1.6,0.7c0.5,0.3,0.7,0.7,0.7,1.2c0,0.3-0.1,0.6-0.2,0.8
		c-0.2,0.2-0.4,0.3-0.6,0.3c-0.2,0-0.3,0-0.5-0.1c-0.2-0.1-0.4-0.2-0.5-0.3c-0.3-0.2-0.7-0.4-1-0.5c-0.3-0.1-0.7-0.2-1-0.2
		c-0.9,0-1.7,0.3-2.2,0.9c-0.5,0.6-0.8,1.5-0.8,2.6c0,1.1,0.3,2,0.8,2.6s1.2,0.9,2.2,0.9c0.4,0,0.7-0.1,1-0.2s0.6-0.3,1-0.5
		c0.2-0.1,0.4-0.2,0.6-0.3c0.2-0.1,0.3-0.1,0.5-0.1c0.2,0,0.4,0.1,0.6,0.3s0.3,0.5,0.3,0.8c0,0.3-0.1,0.5-0.2,0.7
		c-0.1,0.2-0.3,0.4-0.6,0.5c-0.5,0.3-1,0.5-1.6,0.7c-0.6,0.2-1.3,0.3-1.9,0.3C127.3,115.6,126.3,115.4,125.5,114.9z"/>
	<path d="M136.6,114.9c-0.9-0.5-1.5-1.1-2-2c-0.5-0.9-0.7-1.9-0.7-3.1c0-1.2,0.2-2.2,0.7-3.1c0.5-0.9,1.1-1.5,2-2s1.8-0.7,3-0.7
		c1.1,0,2.1,0.2,3,0.7c0.9,0.5,1.5,1.1,2,2c0.5,0.9,0.7,1.9,0.7,3.1c0,1.2-0.2,2.2-0.7,3.1c-0.5,0.9-1.1,1.6-2,2
		c-0.9,0.5-1.8,0.7-3,0.7C138.4,115.6,137.5,115.4,136.6,114.9z M141.7,112.5c0.5-0.6,0.7-1.5,0.7-2.7c0-1.2-0.2-2.1-0.7-2.7
		c-0.5-0.6-1.2-0.9-2.1-0.9s-1.6,0.3-2.1,0.9c-0.5,0.6-0.7,1.5-0.7,2.7c0,1.2,0.2,2.1,0.7,2.7c0.5,0.6,1.2,0.9,2.1,0.9
		C140.5,113.4,141.2,113.1,141.7,112.5z"/>
	<path d="M157,105.2c0.6,0.8,1,1.9,1,3.4v5.6c0,0.4-0.1,0.8-0.4,1c-0.2,0.2-0.6,0.4-1,0.4c-0.4,0-0.8-0.1-1-0.4s-0.4-0.6-0.4-1v-5.4
		c0-0.9-0.2-1.5-0.5-1.9c-0.3-0.4-0.8-0.6-1.5-0.6c-0.8,0-1.5,0.3-2,0.8c-0.5,0.5-0.7,1.2-0.7,2.1v5.1c0,0.4-0.1,0.8-0.4,1
		s-0.6,0.4-1,0.4s-0.8-0.1-1-0.4c-0.3-0.2-0.4-0.6-0.4-1v-8.8c0-0.4,0.1-0.7,0.4-1c0.3-0.2,0.6-0.4,1-0.4c0.4,0,0.7,0.1,1,0.4
		c0.3,0.2,0.4,0.5,0.4,0.9v0.6c0.4-0.6,0.9-1.1,1.5-1.4c0.6-0.3,1.4-0.5,2.2-0.5C155.3,104.1,156.3,104.4,157,105.2z"/>
</g>
</svg>
