<?xml version="1.0" encoding="utf-8"?>
<!-- Generator: Adobe Illustrator 25.4.1, SVG Export Plug-In . SVG Version: 6.00 Build 0)  -->
<svg version="1.1" id="Capa_1" xmlns="http://www.w3.org/2000/svg" xmlns:xlink="http://www.w3.org/1999/xlink" x="0px" y="0px"
	 width="426.3px" height="229.7px" viewBox="0 0 426.3 229.7" style="enable-background:new 0 0 426.3 229.7;" xml:space="preserve"
	>
<g>
	<g>
		<path d="M101.9,222.9c-0.2-0.2-0.4-0.5-0.4-0.7v-6.8h-2.2c-0.7,0-1-0.4-1-0.8s0.4-0.7,1-0.7h6.4c0.7,0,1,0.2,1,0.7
			c0,0.5-0.4,0.8-1,0.8h-2.2v6.8c0,0.4-0.1,0.6-0.2,0.7c-0.2,0.2-0.5,0.2-0.7,0.2C102.4,223.3,102.1,223.1,101.9,222.9z"/>
		<path d="M108,222.9c-0.2-0.2-0.2-0.5-0.2-0.7v-7.4c0-0.4,0.1-0.6,0.2-0.7c0.2-0.2,0.5-0.2,0.7-0.2c0.4,0,0.6,0.1,0.7,0.2
			c0.2,0.2,0.2,0.5,0.2,0.7v7.4c0,0.4-0.1,0.6-0.2,0.7c-0.2,0.2-0.5,0.2-0.7,0.2C108.5,223.3,108.2,223.1,108,222.9z"/>
		<path d="M112,222.9c-0.1-0.1-0.2-0.5-0.2-0.7v-7.4c0-0.4,0.1-0.6,0.2-0.7s0.5-0.2,0.7-0.2h4.7c0.7,0,1,0.2,1,0.7
			c0,0.6-0.4,0.7-1,0.7h-3.8v2.3h3.4c0.7,0,1,0.2,1,0.7c0,0.6-0.4,0.7-1,0.7h-3.4v2.3h3.8c0.7,0,1,0.2,1,0.7c0,0.6-0.4,0.7-1,0.7
			h-4.7C112.4,223.1,112.2,223,112,222.9z"/>
		<path d="M128.6,214.1c0.2,0.2,0.2,0.5,0.2,0.7v7.5c0,0.4-0.1,0.6-0.2,0.7s-0.4,0.2-0.7,0.2c-0.2,0-0.5-0.1-0.7-0.2
			c-0.1-0.1-0.2-0.5-0.2-0.7v-4.7l-1.9,3.6c-0.1,0.2-0.2,0.5-0.5,0.6c-0.1,0.1-0.4,0.1-0.6,0.1s-0.4,0-0.6-0.1
			c-0.1-0.1-0.4-0.2-0.5-0.6l-1.9-3.5v4.6c0,0.4-0.1,0.6-0.2,0.7c-0.1,0.2-0.4,0.2-0.7,0.2c-0.2,0-0.5-0.1-0.7-0.2
			c-0.1-0.1-0.2-0.5-0.2-0.7v-7.5c0-0.4,0.1-0.6,0.2-0.7c0.2-0.2,0.5-0.4,0.7-0.4c0.5,0,0.7,0.2,1,0.7l2.7,5.2l2.7-5.2
			c0.2-0.5,0.6-0.7,1-0.7C128.1,213.7,128.4,213.8,128.6,214.1z"/>
		<path d="M131,222.9c-0.2-0.2-0.2-0.5-0.2-0.7v-7.4c0-0.4,0.1-0.6,0.2-0.7s0.5-0.2,0.7-0.2h3.4c1,0,1.8,0.2,2.3,0.7
			c0.6,0.6,0.8,1.2,0.8,2.2c0,1-0.4,1.7-0.8,2.2c-0.6,0.6-1.3,0.7-2.3,0.7h-2.3v2.5c0,0.4-0.1,0.6-0.2,0.7c-0.2,0.2-0.5,0.2-0.7,0.2
			C131.5,223.3,131.2,223.1,131,222.9z M134.8,218c1,0,1.6-0.5,1.6-1.3s-0.6-1.3-1.6-1.3h-2.1v2.7H134.8z"/>
		<path d="M141.4,222.6c-0.7-0.5-1.2-0.8-1.6-1.7c-0.4-0.7-0.6-1.6-0.6-2.5c0-1,0.2-1.8,0.6-2.5c0.4-0.7,0.8-1.2,1.6-1.7
			c0.7-0.4,1.5-0.6,2.4-0.6c0.8,0,1.7,0.2,2.4,0.6c0.7,0.4,1.2,0.8,1.6,1.7c0.4,0.7,0.6,1.6,0.6,2.5c0,1-0.2,1.8-0.6,2.5
			c-0.4,0.7-0.8,1.2-1.6,1.7s-1.5,0.6-2.4,0.6C143,223.3,142.2,223,141.4,222.6z M145.8,220.7c0.5-0.6,0.7-1.3,0.7-2.3
			s-0.2-1.8-0.7-2.3c-0.5-0.6-1-0.7-1.8-0.7c-0.7,0-1.3,0.2-1.8,0.7c-0.5,0.5-0.7,1.3-0.7,2.3s0.2,1.8,0.7,2.3
			c0.5,0.6,1,0.7,1.8,0.7C144.7,221.7,145.3,221.3,145.8,220.7z"/>
		<path d="M151.5,223c-0.6-0.1-1.1-0.5-1.5-0.7c-0.1-0.1-0.2-0.2-0.4-0.4s-0.1-0.2-0.1-0.5c0-0.2,0.1-0.5,0.2-0.6s0.4-0.2,0.5-0.2
			s0.2,0,0.4,0c0.1,0,0.2,0.1,0.4,0.1c0.4,0.2,0.7,0.5,1.1,0.6c0.4,0.1,0.7,0.1,1.2,0.1c0.6,0,1-0.1,1.3-0.4
			c0.4-0.2,0.5-0.5,0.5-0.7s-0.1-0.5-0.5-0.7c-0.4-0.1-0.7-0.4-1.6-0.5c-0.7-0.1-1.5-0.4-2.1-0.6c-0.5-0.2-0.8-0.6-1.1-0.8
			c-0.2-0.2-0.4-0.7-0.4-1.2c0-0.6,0.1-1,0.5-1.5c0.4-0.5,0.7-0.7,1.3-1c0.6-0.2,1.2-0.4,1.9-0.4c1.2,0,2.3,0.4,3.1,0.8
			c0.1,0.1,0.2,0.2,0.4,0.4c0.1,0.1,0.1,0.2,0.1,0.5s-0.1,0.5-0.2,0.6s-0.4,0.2-0.5,0.2s-0.2,0-0.2,0s-0.2-0.1-0.4-0.2
			c-0.4-0.2-0.7-0.5-1-0.6c-0.4-0.1-0.7-0.2-1.1-0.2c-0.6,0-1,0.1-1.2,0.4c-0.4,0.2-0.5,0.5-0.5,0.8c0,0.2,0.1,0.4,0.2,0.6
			c0.1,0.1,0.4,0.2,0.6,0.4c0.2,0.1,0.7,0.2,1.2,0.4c1.2,0.2,2.1,0.6,2.5,1c0.5,0.4,0.7,1,0.7,1.7c0,0.6-0.1,1.1-0.5,1.5
			c-0.4,0.5-0.7,0.7-1.3,1c-0.6,0.2-1.2,0.4-2.1,0.4C152.8,223.3,152.1,223.1,151.5,223z"/>
		<path d="M162.6,222.9c-0.1-0.1-0.2-0.5-0.2-0.7v-7.4c0-0.4,0.1-0.6,0.2-0.7c0.1-0.1,0.5-0.2,0.7-0.2h2.7c1,0,1.9,0.2,2.5,0.6
			c0.7,0.4,1.3,0.8,1.7,1.6c0.4,0.7,0.6,1.6,0.6,2.4c0,0.8-0.2,1.8-0.6,2.4c-0.4,0.7-0.8,1.2-1.7,1.6c-0.7,0.4-1.6,0.6-2.7,0.6h-2.7
			C163.1,223.1,162.9,223,162.6,222.9z M165.9,221.4c2.1,0,3-1,3-3s-1-3-3-3h-1.5v6.1H165.9z"/>
		<path d="M172.8,222.9c-0.1-0.1-0.2-0.5-0.2-0.7v-7.4c0-0.4,0.1-0.6,0.2-0.7s0.5-0.2,0.7-0.2h4.7c0.7,0,1,0.2,1,0.7
			c0,0.6-0.4,0.7-1,0.7h-3.8v2.3h3.4c0.7,0,1,0.2,1,0.7c0,0.6-0.4,0.7-1,0.7h-3.4v2.3h3.8c0.7,0,1,0.2,1,0.7c0,0.6-0.4,0.7-1,0.7
			h-4.7C173.2,223.1,173,223,172.8,222.9z"/>
		<path d="M184.5,219.6c0-2.1,0.5-3.8,1.5-5.3c0.1-0.2,0.2-0.4,0.5-0.5s0.4-0.1,0.6-0.1s0.4,0,0.5,0.1c0.1,0.1,0.2,0.2,0.2,0.5
			c0,0.1,0,0.2-0.1,0.5c-0.4,0.7-0.6,1.6-0.7,2.3c-0.1,0.7-0.2,1.7-0.2,2.4c0,0.8,0.1,1.7,0.2,2.4c0.1,0.7,0.4,1.6,0.7,2.3
			c0,0.1,0.1,0.4,0.1,0.5c0,0.2-0.1,0.4-0.2,0.5s-0.2,0.1-0.5,0.1c-0.1,0-0.4,0-0.6-0.1s-0.4-0.2-0.5-0.5
			C185,223.4,184.5,221.6,184.5,219.6z"/>
		<path d="M197,222.3c0,0.2-0.1,0.5-0.4,0.6s-0.5,0.2-0.7,0.2s-0.4,0-0.5-0.1s-0.4-0.2-0.5-0.4l-1.8-2.5c-0.1-0.2-0.4-0.5-0.5-0.5
			c-0.1-0.1-0.4-0.1-0.7-0.1h-0.8v2.7c0,0.4-0.1,0.6-0.2,0.7c-0.2,0.2-0.5,0.2-0.7,0.2c-0.4,0-0.6-0.1-0.7-0.2
			c-0.2-0.2-0.2-0.5-0.2-0.7v-7.4c0-0.4,0.1-0.6,0.2-0.7c0.1-0.1,0.5-0.2,0.7-0.2h3.4c1.1,0,1.9,0.2,2.4,0.7
			c0.6,0.5,0.8,1.2,0.8,2.2c0,0.7-0.2,1.3-0.6,1.8c-0.5,0.5-1,0.7-1.7,0.8c0.2,0,0.5,0.1,0.7,0.4c0.2,0.1,0.5,0.4,0.6,0.7l1,1.5
			C197,222,197,222.3,197,222.3z M194.3,217.7c0.2-0.2,0.5-0.6,0.5-1c0-0.4-0.1-0.7-0.5-1c-0.2-0.2-0.7-0.4-1.2-0.4h-2.1v2.5h2.1
			C193.7,217.9,194.2,217.8,194.3,217.7z"/>
		<path d="M199.2,225.3c-0.2,0.1-0.4,0.1-0.6,0.1s-0.4,0-0.5-0.1c-0.1-0.1-0.2-0.2-0.2-0.5c0-0.1,0-0.2,0.1-0.5
			c0.4-0.7,0.6-1.6,0.7-2.3c0.1-0.7,0.2-1.6,0.2-2.4c0-0.8-0.1-1.7-0.2-2.4c-0.1-0.7-0.4-1.6-0.7-2.3c0-0.1-0.1-0.4-0.1-0.5
			c0-0.2,0.1-0.4,0.2-0.5s0.2-0.1,0.5-0.1c0.1,0,0.4,0,0.6,0.1s0.4,0.2,0.5,0.5c1,1.6,1.5,3.4,1.5,5.3c0,2.1-0.5,3.8-1.5,5.3
			C199.5,225.2,199.4,225.3,199.2,225.3z"/>
		<path d="M203.6,222.9c-0.1-0.1-0.2-0.5-0.2-0.7v-7.4c0-0.4,0.1-0.6,0.2-0.7s0.5-0.2,0.7-0.2h4.7c0.7,0,1,0.2,1,0.7
			c0,0.6-0.4,0.7-1,0.7h-3.8v2.3h3.4c0.7,0,1,0.2,1,0.7c0,0.6-0.4,0.7-1,0.7h-3.4v2.3h3.8c0.7,0,1,0.2,1,0.7c0,0.6-0.4,0.7-1,0.7
			h-4.7C204,223.1,203.8,223,203.6,222.9z"/>
		<path d="M218.5,213.8c0.1-0.1,0.4-0.1,0.5-0.1c0.2,0,0.6,0.1,0.7,0.2c0.2,0.2,0.4,0.5,0.4,0.7c0,0.1,0,0.2-0.1,0.5l-3.6,7.6
			c-0.1,0.2-0.2,0.4-0.5,0.5s-0.5,0.1-0.7,0.1c-0.2,0-0.5,0-0.7-0.1c-0.2-0.1-0.4-0.2-0.5-0.5l-3.6-7.6c-0.1-0.1-0.1-0.2-0.1-0.4
			c0-0.2,0.1-0.5,0.4-0.7s0.5-0.2,0.7-0.2c0.2,0,0.4,0,0.6,0.1s0.2,0.2,0.4,0.5l2.8,6.2l2.8-6.2
			C218.2,214.1,218.3,213.9,218.5,213.8z"/>
		<path d="M222.6,222.6c-0.7-0.5-1.2-0.8-1.6-1.7c-0.4-0.7-0.6-1.6-0.6-2.5c0-1,0.2-1.8,0.6-2.5c0.4-0.7,0.8-1.2,1.6-1.7
			c0.7-0.4,1.5-0.6,2.4-0.6c0.8,0,1.7,0.2,2.4,0.6c0.7,0.4,1.2,0.8,1.6,1.7c0.4,0.7,0.6,1.6,0.6,2.5c0,1-0.2,1.8-0.6,2.5
			c-0.4,0.7-0.8,1.2-1.6,1.7s-1.5,0.6-2.4,0.6S223.3,223,222.6,222.6z M226.9,220.7c0.5-0.6,0.7-1.3,0.7-2.3s-0.2-1.8-0.7-2.3
			c-0.5-0.6-1-0.7-1.8-0.7c-0.7,0-1.3,0.2-1.8,0.7c-0.5,0.6-0.7,1.3-0.7,2.3s0.2,1.8,0.7,2.3c0.5,0.6,1,0.7,1.8,0.7
			C225.8,221.7,226.4,221.3,226.9,220.7z"/>
		<path d="M231.4,222.9c-0.1-0.1-0.2-0.5-0.2-0.7v-7.4c0-0.4,0.1-0.6,0.2-0.7c0.2-0.2,0.5-0.2,0.7-0.2c0.4,0,0.6,0.1,0.7,0.2
			c0.2,0.2,0.2,0.5,0.2,0.7v6.8h3.4c0.7,0,1,0.4,1,0.8s-0.4,0.7-1,0.7H232C231.8,223.1,231.6,223,231.4,222.9z"/>
		<path d="M239.2,222.3c-0.7-0.7-1-1.7-1-2.9v-4.6c0-0.4,0.1-0.6,0.2-0.7c0.2-0.2,0.5-0.2,0.7-0.2c0.4,0,0.6,0.1,0.7,0.2
			c0.2,0.2,0.2,0.5,0.2,0.7v4.6c0,0.7,0.2,1.3,0.6,1.7c0.4,0.4,0.7,0.6,1.5,0.6s1.1-0.2,1.5-0.6c0.4-0.5,0.6-1,0.6-1.7v-4.6
			c0-0.4,0.1-0.6,0.2-0.7c0.2-0.2,0.5-0.2,0.7-0.2c0.4,0,0.6,0.1,0.7,0.2c0.2,0.2,0.2,0.5,0.2,0.7v4.6c0,1.3-0.4,2.3-1,2.9
			c-0.7,0.7-1.7,1-3,1S239.8,222.9,239.2,222.3z"/>
		<path d="M250,222.6c-0.7-0.4-1.2-0.8-1.6-1.7c-0.4-0.7-0.6-1.6-0.6-2.5c0-1,0.2-1.8,0.6-2.5c0.4-0.7,0.8-1.2,1.6-1.7
			c0.7-0.4,1.5-0.6,2.4-0.6c1.1,0,2.2,0.4,3,1c0.1,0.1,0.2,0.2,0.2,0.4c0,0.1,0.1,0.2,0.1,0.5c0,0.2-0.1,0.5-0.2,0.6
			c-0.1,0.1-0.4,0.2-0.5,0.2s-0.2,0-0.4,0c-0.1,0-0.2-0.1-0.4-0.1c-0.4-0.2-0.7-0.5-1-0.5c-0.4-0.1-0.7-0.1-1-0.1
			c-0.8,0-1.5,0.2-1.9,0.7c-0.5,0.6-0.7,1.3-0.7,2.3c0,2.2,0.8,3.1,2.5,3.1c0.4,0,0.7,0,0.8-0.1c0.4-0.1,0.7-0.2,1-0.5
			c0.1-0.1,0.2-0.1,0.4-0.1c0.1,0,0.2,0,0.4,0c0.2,0,0.4,0.1,0.5,0.2s0.2,0.4,0.2,0.6c0,0.1,0,0.4-0.1,0.5c-0.1,0.1-0.1,0.2-0.2,0.4
			c-0.8,0.7-1.8,1-3,1C251.5,223.3,250.6,223,250,222.6z"/>
		<path d="M257.4,222.9c-0.2-0.2-0.2-0.5-0.2-0.7v-7.4c0-0.4,0.1-0.6,0.2-0.7c0.2-0.2,0.5-0.2,0.7-0.2s0.6,0.1,0.7,0.2
			c0.2,0.2,0.2,0.5,0.2,0.7v7.4c0,0.4-0.1,0.6-0.2,0.7c-0.2,0.2-0.5,0.2-0.7,0.2C257.7,223.3,257.5,223.1,257.4,222.9z"/>
		<path d="M262.8,222.6c-0.7-0.5-1.2-0.8-1.6-1.7c-0.4-0.7-0.6-1.6-0.6-2.5c0-1,0.2-1.8,0.6-2.5c0.4-0.7,0.8-1.2,1.6-1.7
			c0.7-0.4,1.5-0.6,2.4-0.6c0.8,0,1.7,0.2,2.4,0.6c0.7,0.4,1.2,0.8,1.6,1.7c0.4,0.7,0.6,1.6,0.6,2.5c0,1-0.2,1.8-0.6,2.5
			c-0.4,0.7-0.8,1.2-1.6,1.7s-1.5,0.6-2.4,0.6C264.3,223.3,263.6,223,262.8,222.6z M267.1,220.7c0.5-0.6,0.7-1.3,0.7-2.3
			s-0.2-1.8-0.7-2.3c-0.5-0.6-1-0.7-1.8-0.7c-0.7,0-1.3,0.2-1.8,0.7c-0.5,0.6-0.7,1.3-0.7,2.3s0.2,1.8,0.7,2.3
			c0.5,0.6,1,0.7,1.8,0.7C266,221.7,266.7,221.3,267.1,220.7z M265.2,213.1c-0.1,0-0.2,0-0.4-0.1s-0.1-0.2-0.1-0.4s0.1-0.2,0.2-0.4
			l1.1-1.1c0.2-0.2,0.5-0.4,0.7-0.4c0.2,0,0.4,0.1,0.6,0.2c0.1,0.1,0.2,0.4,0.2,0.6c0,0.1,0,0.2-0.1,0.4c-0.1,0.1-0.2,0.2-0.5,0.4
			l-1.5,0.7C265.5,213.1,265.4,213.1,265.2,213.1z"/>
		<path d="M279.2,214.1c0.2,0.2,0.2,0.5,0.2,0.7v7.4c0,0.4-0.1,0.6-0.2,0.7c-0.2,0.2-0.5,0.4-0.7,0.4c-0.4,0-0.6-0.1-0.7-0.4
			l-4.5-5.7v5.1c0,0.4-0.1,0.6-0.2,0.7c-0.2,0.2-0.5,0.4-0.7,0.4c-0.4,0-0.6-0.1-0.7-0.4c-0.2-0.2-0.2-0.5-0.2-0.7v-7.4
			c0-0.4,0.1-0.6,0.2-0.7c0.2-0.2,0.5-0.4,0.7-0.4c0.4,0,0.6,0.1,0.7,0.4l4.5,5.6v-5c0-0.4,0.1-0.6,0.2-0.7c0.2-0.2,0.5-0.4,0.7-0.4
			C278.9,213.7,279,213.8,279.2,214.1z"/>
	</g>
	<g>
		<path d="M18.1,149.1c2.3,1.7,5.2,2.7,8.7,2.7c5.1,0,9.4-1.8,12.7-5.4c3.3-3.6,5-8.4,5-14.3c0-5.8-1.6-10.6-4.7-14.3
			c-3.1-3.6-7.4-5.6-12.5-5.6c-1.9,0-4,0.4-5.8,1.1c-1,0.4-1.7,0.7-2.5,1.2V99.2H4.7v51.7h13.4V149.1z M18.7,132.2
			c0-2.5,0.6-4.5,1.7-5.7c1.1-1.2,2.4-1.8,4-1.8c1.7,0,3,0.6,4,1.9c1.1,1.3,1.7,3.3,1.7,5.6s-0.6,4.1-1.7,5.3
			c-1.1,1.2-2.4,1.8-4,1.8c-1.8,0-3.1-0.6-4.1-2.1C19.3,136,18.7,134.3,18.7,132.2z"/>
		<path d="M66.9,151.7c2.9,0,5.8-0.5,8.6-1.5c2.9-1,5.3-2.3,7.3-4l0.7-0.6l-5.3-10.2H83l0.1-1.1c0.2-1.7,0.2-3,0.2-3.9
			c0-5.3-1.6-9.8-4.7-13.2s-7.5-5.2-12.9-5.2c-5.9,0-10.8,1.9-14.3,5.7c-3.5,3.8-5.3,8.5-5.3,14c0,5.3,1.8,10,5.6,13.9
			C55.5,149.8,60.6,151.7,66.9,151.7z M61.6,126.2c1-2.5,2.8-2.8,4-2.8c1.1,0,1.9,0.4,2.7,1.1c0.5,0.5,0.7,1.1,0.8,1.7H61.6z
			 M76.9,136c-3.4,2.2-6.4,3.4-9.1,3.4c-1.8,0-3.3-0.5-4.6-1.5c-0.8-0.6-1.6-1.5-1.9-2.4h16.5L76.9,136z"/>
		<path d="M92.3,129c-2.2,1-4.1,2.3-5.4,4.2c-1.5,1.8-2.1,4.1-2.1,6.5c0,3.4,1.2,6.3,3.6,8.6c2.4,2.3,5.4,3.4,9.2,3.4
			c2.2,0,4.5-0.5,6.5-1.5c1.1-0.5,1.9-1.1,2.8-1.8v2.4h13.3v-23c0-4.8-1.6-8.7-4.6-11.5c-3-2.8-7.3-4.1-12.5-4.1
			c-2.9,0-5.8,0.5-8.7,1.5c-2.9,1-5.3,2.1-7,3.4l-0.8,0.6l5.2,10.5l1.2-0.7c3.1-2.1,6.2-3.1,9.1-3.1c3,0,3.6,1.2,3.8,2.1
			c-2.3,0-4.7,0.2-6.9,0.6C96.7,127.4,94.4,128,92.3,129z M106,135.6c-0.1,1.1-0.6,2.2-1.5,3.1c-1,1.1-2.1,1.6-3.4,1.6
			c-0.7,0-1.2-0.1-1.6-0.5c-0.4-0.4-0.5-0.7-0.5-1.3s0.2-1.5,1.7-2.1C102.2,136,103.9,135.6,106,135.6z"/>
		<path d="M139.6,135.9c0-3,0.7-5.3,2.2-7c1.5-1.6,3.5-2.4,6.4-2.4c1.5,0,1.9,0.1,2.1,0.1l1.6,0.5v-14.3l-1.1-0.1
			c-0.6-0.1-1.1-0.1-1.6-0.1c-2.9,0-5.4,1-7.7,2.8c-0.8,0.7-1.6,1.5-2.3,2.3v-4.5h-13.9v37.8h14.4V135.9z"/>
		<path d="M27.7,162.3c-2.9,0-5.4,1-7.7,2.8c-0.8,0.7-1.6,1.5-2.3,2.3v-4.5H3.7v37.9h14.4v-15c0-3,0.7-5.3,2.2-7
			c1.5-1.6,3.5-2.4,6.4-2.4c1.5,0,1.9,0.1,2.1,0.1l1.6,0.5v-14.3l-1.1-0.1C28.5,162.3,28,162.3,27.7,162.3z"/>
		<path d="M67.9,185.4l0.1-1.1c0.2-1.7,0.2-3,0.2-3.9c0-5.3-1.6-9.8-4.7-13.2c-3.1-3.4-7.5-5.2-12.9-5.2c-5.9,0-10.8,1.9-14.3,5.7
			s-5.3,8.5-5.3,14c0,5.3,1.8,10,5.6,13.9c3.8,3.9,8.8,5.9,15.1,5.9c2.9,0,5.8-0.5,8.6-1.5c2.9-1,5.3-2.3,7.3-4l0.7-0.6l-5.3-10.2
			H67.9z M50.4,173.3c1.1,0,1.9,0.4,2.7,1.1c0.5,0.5,0.7,1.1,0.8,1.7h-7.5C47.4,173.5,49.1,173.3,50.4,173.3z M61.7,185.9
			c-3.4,2.2-6.4,3.4-9.1,3.4c-1.8,0-3.3-0.5-4.6-1.5c-0.8-0.6-1.6-1.5-1.9-2.4h16.5L61.7,185.9z"/>
		<path d="M94.6,162c-3.9,0-7,1-9.4,3v-2.2H72v51.7h14.4V200c0-0.2,0-0.4,0-0.6c2.3,1.5,5,2.2,7.7,2.2c5.1,0,9.4-1.8,12.7-5.4
			c3.3-3.6,5-8.4,5-14.3c0-5.8-1.6-10.6-4.7-14.3C104.1,164,99.8,162,94.6,162z M97.4,182c0,2.3-0.6,4.1-1.7,5.3
			c-1.1,1.2-2.4,1.8-4,1.8c-1.8,0-3.1-0.6-4.1-2.1c-1.1-1.5-1.6-3.1-1.6-5.2c0-2.5,0.6-4.5,1.7-5.7c1.1-1.2,2.4-1.8,4-1.8
			c1.7,0,3,0.6,4,1.9C96.9,177.9,97.4,179.7,97.4,182z"/>
		<path d="M138.3,179.8c0,2.5-0.6,4.6-1.7,6.3c-1.1,1.6-2.5,2.3-4.6,2.3c-1.3,0-2.5-0.4-2.5-3.4v-22.1h-14.3v24.2
			c0,5,1.3,8.7,3.8,11c2.5,2.3,5.8,3.5,10,3.5c2.5,0,5-0.6,7.1-1.8c1-0.5,1.8-1.2,2.7-1.9v2.9h13.9v-37.9h-14.4V179.8z"/>
		<path d="M180.9,162c-1.9,0-4,0.4-5.8,1.1c-1,0.4-1.7,0.7-2.5,1.2v-15.2h-14.4v51.7h13.4v-1.8c2.3,1.7,5.2,2.7,8.7,2.7
			c5.1,0,9.4-1.8,12.7-5.4s5-8.4,5-14.3c0-5.8-1.6-10.6-4.7-14.3C190.2,164,186,162,180.9,162z M183.6,182c0,2.3-0.6,4.1-1.7,5.3
			c-1.1,1.2-2.4,1.8-4,1.8c-1.8,0-3.1-0.6-4.1-2.1c-1.1-1.5-1.6-3.1-1.6-5.2c0-2.5,0.6-4.5,1.7-5.7c1.1-1.2,2.4-1.8,4-1.8
			c1.7,0,3,0.6,4.1,1.9C183.1,177.9,183.6,179.7,183.6,182z"/>
		<path d="M218.1,188.2c-0.8,0-1.5-0.1-1.6-0.4c-0.1-0.2-0.5-0.8-0.5-2.9v-35.8h-14.4v37.3c0,3,0.4,5.6,1.2,7.5
			c0.8,2.2,2.1,3.8,3.6,4.7c1.5,1,3,1.6,4.5,1.9s3.1,0.5,5.1,0.5c0.7,0,1.9-0.1,3.6-0.2l1.1-0.1v-12.7l-1.3,0.1
			C219,188.2,218.7,188.2,218.1,188.2z"/>
		<rect x="224" y="149.1" width="14" height="11.7"/>
		<rect x="223.9" y="162.9" width="14.4" height="37.9"/>
		<path d="M274,184.2l-1.2,1c-3,2.7-6.1,4-8.8,4c-2.4,0-4.2-0.7-5.6-2.2c-1.3-1.6-2.1-3.3-2.1-5.3c0-2.1,0.6-3.6,1.9-5.1
			c1.2-1.5,3-2.1,5.3-2.1c2.9,0,5.3,1,7.5,3.1l1.1,1.1l6.3-10l-0.6-0.7c-1.8-1.9-4.1-3.4-6.8-4.4c-2.7-1-5.4-1.5-8.2-1.5
			c-6.4,0-11.5,1.9-15.2,5.8s-5.7,8.6-5.7,13.9c0,5.4,1.9,10.2,5.7,14c3.8,3.9,9,5.8,15.2,5.8c3,0,6.1-0.6,9-1.7
			c2.9-1.1,5.3-2.7,7.1-4.6l0.6-0.6L274,184.2z"/>
	</g>
</g>
</svg>
