<?xml version="1.0" encoding="utf-8"?>
<!-- Generator: Adobe Illustrator 25.3.1, SVG Export Plug-In . SVG Version: 6.00 Build 0)  -->
<svg version="1.1" id="Capa_1" xmlns="http://www.w3.org/2000/svg" xmlns:xlink="http://www.w3.org/1999/xlink" x="0px" y="0px"
	 width="278.3px" height="253.4px" viewBox="0 0 278.3 253.4" style="enable-background:new 0 0 278.3 253.4;" xml:space="preserve"
	>
<style type="text/css">
	.st0{fill:#FFFFFF;}
	.st1{fill:none;stroke:#FFFFFF;stroke-miterlimit:10;}
</style>
<g>
	<path class="st0" d="M4.9,156.8c-0.3-0.2-0.4-0.6-0.4-1v-13.5c0-0.4,0.1-0.8,0.4-1s0.6-0.4,1-0.4h8.3c0.4,0,0.8,0.1,1,0.3
		s0.4,0.5,0.4,0.9s-0.1,0.7-0.4,0.9c-0.2,0.2-0.6,0.3-1,0.3H7.5v4.5h6.3c0.4,0,0.8,0.1,1,0.3s0.4,0.5,0.4,0.9s-0.1,0.7-0.4,0.9
		c-0.2,0.2-0.6,0.3-1,0.3H7.5v4.8h6.9c0.4,0,0.8,0.1,1,0.3s0.4,0.5,0.4,0.9s-0.1,0.7-0.4,0.9c-0.2,0.2-0.6,0.3-1,0.3H6
		C5.5,157.1,5.2,157,4.9,156.8z"/>
	<path class="st0" d="M17.9,156.3c-0.5-0.3-0.7-0.7-0.7-1.2c0-0.3,0.1-0.6,0.3-0.7c0.2-0.2,0.4-0.3,0.6-0.3c0.3,0,0.6,0.1,1.1,0.4
		c0.5,0.2,0.9,0.4,1.3,0.5s0.9,0.2,1.6,0.2c0.6,0,1.1-0.1,1.5-0.3s0.5-0.5,0.5-0.9c0-0.3-0.1-0.5-0.2-0.6c-0.1-0.2-0.4-0.3-0.8-0.4
		c-0.4-0.1-1-0.3-1.7-0.4c-1.4-0.3-2.4-0.7-2.9-1.2c-0.6-0.5-0.9-1.2-0.9-2.1c0-0.7,0.2-1.3,0.6-1.8s1-1,1.7-1.3s1.5-0.5,2.4-0.5
		c0.6,0,1.3,0.1,1.9,0.2c0.6,0.2,1.1,0.4,1.6,0.7s0.7,0.7,0.7,1.2c0,0.3-0.1,0.6-0.3,0.8c-0.2,0.2-0.4,0.3-0.6,0.3s-0.3,0-0.5-0.1
		s-0.4-0.2-0.6-0.3c-0.4-0.2-0.8-0.4-1.2-0.5c-0.3-0.1-0.7-0.2-1.2-0.2c-0.6,0-1,0.1-1.4,0.3c-0.3,0.2-0.5,0.5-0.5,0.9
		s0.2,0.7,0.5,0.9s1,0.4,2,0.6c1,0.2,1.8,0.5,2.4,0.7c0.6,0.3,1,0.6,1.3,1s0.4,0.9,0.4,1.6c0,1-0.4,1.9-1.3,2.5s-2,0.9-3.5,0.9
		C20.3,157.3,18.9,157,17.9,156.3z"/>
	<path class="st0" d="M42.6,145.9c0.2,0.2,0.3,0.5,0.3,0.9s-0.1,0.7-0.3,0.9s-0.6,0.3-1.1,0.4l-0.7,0.1c-0.9,0.1-1.6,0.4-2,0.9
		s-0.6,1.2-0.6,2v4.8c0,0.4-0.1,0.8-0.4,1c-0.3,0.2-0.6,0.4-1,0.4s-0.8-0.1-1-0.4c-0.3-0.2-0.4-0.6-0.4-1V147c0-0.4,0.1-0.8,0.4-1
		c0.3-0.2,0.6-0.3,1-0.3s0.7,0.1,1,0.3c0.2,0.2,0.4,0.5,0.4,1v0.9c0.3-0.7,0.7-1.2,1.3-1.6c0.6-0.4,1.2-0.6,1.9-0.6h0.3
		C42,145.6,42.3,145.7,42.6,145.9z"/>
	<path class="st0" d="M53.5,154.3c0.2,0.2,0.2,0.5,0.2,0.8c0,0.5-0.3,0.9-0.9,1.2c-0.5,0.3-1.1,0.5-1.8,0.7s-1.3,0.3-1.9,0.3
		c-1.8,0-3.3-0.5-4.3-1.6c-1.1-1-1.6-2.5-1.6-4.3c0-1.2,0.2-2.2,0.7-3.1c0.5-0.9,1.1-1.6,1.9-2.1c0.8-0.5,1.8-0.7,2.8-0.7
		s1.9,0.2,2.7,0.7c0.8,0.4,1.3,1.1,1.8,1.9c0.4,0.8,0.6,1.8,0.6,2.9c0,0.7-0.3,1-0.9,1H46c0.1,1.1,0.4,1.8,0.9,2.3s1.2,0.8,2.2,0.8
		c0.5,0,0.9-0.1,1.3-0.2c0.4-0.1,0.8-0.3,1.3-0.5s0.8-0.4,1-0.4C53.1,154,53.3,154.1,53.5,154.3z M47,148.3
		c-0.5,0.5-0.8,1.2-0.8,2.1h5.2c0-0.9-0.3-1.6-0.7-2.1s-1-0.7-1.8-0.7C48.1,147.6,47.5,147.9,47,148.3z"/>
	<path class="st0" d="M64.6,146.7c0.8,0.8,1.1,2,1.1,3.5v5.6c0,0.4-0.1,0.7-0.4,1c-0.2,0.2-0.6,0.4-1,0.4c-0.4,0-0.7-0.1-1-0.4
		c-0.3-0.2-0.4-0.6-0.4-1v-0.5c-0.3,0.6-0.7,1.1-1.2,1.4c-0.6,0.3-1.2,0.5-2,0.5s-1.4-0.2-2.1-0.5c-0.6-0.3-1.1-0.7-1.5-1.3
		c-0.4-0.5-0.5-1.1-0.5-1.8c0-0.8,0.2-1.5,0.6-2c0.4-0.5,1.1-0.8,2.1-1s2.3-0.3,3.9-0.3h0.6v-0.5c0-0.8-0.2-1.3-0.5-1.6
		s-0.8-0.5-1.6-0.5c-0.4,0-0.9,0.1-1.4,0.2c-0.5,0.1-1,0.3-1.6,0.6c-0.4,0.2-0.7,0.3-0.9,0.3c-0.3,0-0.5-0.1-0.7-0.3
		s-0.3-0.5-0.3-0.8s0.1-0.5,0.2-0.7c0.1-0.2,0.3-0.4,0.7-0.5c0.5-0.3,1.2-0.5,1.9-0.7s1.5-0.3,2.2-0.3
		C62.6,145.6,63.8,146,64.6,146.7z M62.2,154.5c0.5-0.5,0.7-1.2,0.7-2V152h-0.4c-1,0-1.8,0-2.4,0.1c-0.6,0.1-1,0.3-1.2,0.5
		s-0.4,0.5-0.4,0.9c0,0.5,0.2,0.9,0.5,1.2s0.8,0.5,1.3,0.5C61.1,155.2,61.8,155,62.2,154.5z"/>
	<path class="st0" d="M69,156.9c-0.3-0.2-0.4-0.6-0.4-1v-13.8c0-0.4,0.1-0.8,0.4-1s0.6-0.3,1-0.3s0.8,0.1,1,0.3
		c0.3,0.2,0.4,0.6,0.4,1v13.8c0,0.4-0.1,0.8-0.4,1s-0.6,0.4-1,0.4C69.7,157.3,69.3,157.2,69,156.9z"/>
	<path class="st0" d="M89.1,145.8c0.2-0.1,0.4-0.2,0.7-0.2c0.4,0,0.7,0.1,1,0.4c0.3,0.2,0.4,0.5,0.4,0.9c0,0.2,0,0.3-0.1,0.5
		l-6.3,13.2c-0.3,0.5-0.7,0.8-1.2,0.8c-0.4,0-0.7-0.1-0.9-0.3c-0.3-0.2-0.4-0.5-0.4-0.8c0-0.2,0-0.4,0.1-0.6l1.6-3.3l-4.3-8.9
		c-0.1-0.2-0.1-0.3-0.1-0.5c0-0.4,0.1-0.7,0.4-0.9s0.6-0.4,1-0.4c0.3,0,0.5,0.1,0.7,0.2c0.2,0.1,0.4,0.3,0.5,0.6l3.2,7.1l3.2-7.1
		C88.8,146.2,88.9,146,89.1,145.8z"/>
	<path class="st0" d="M108.7,154.3c0.2,0.2,0.2,0.5,0.2,0.8c0,0.5-0.3,0.9-0.9,1.2c-0.5,0.3-1.1,0.5-1.8,0.7
		c-0.7,0.2-1.3,0.3-1.9,0.3c-1.8,0-3.3-0.5-4.3-1.6c-1.1-1-1.6-2.5-1.6-4.3c0-1.2,0.2-2.2,0.7-3.1c0.5-0.9,1.1-1.6,1.9-2.1
		s1.8-0.7,2.8-0.7s1.9,0.2,2.7,0.7c0.8,0.4,1.3,1.1,1.8,1.9c0.4,0.8,0.6,1.8,0.6,2.9c0,0.7-0.3,1-0.9,1h-6.8
		c0.1,1.1,0.4,1.8,0.9,2.3s1.2,0.8,2.2,0.8c0.5,0,0.9-0.1,1.3-0.2c0.4-0.1,0.8-0.3,1.3-0.5s0.8-0.4,1-0.4
		C108.3,154,108.6,154.1,108.7,154.3z M102.2,148.3c-0.5,0.5-0.8,1.2-0.8,2.1h5.2c0-0.9-0.3-1.6-0.7-2.1c-0.4-0.5-1-0.7-1.8-0.7
		C103.3,147.6,102.7,147.9,102.2,148.3z"/>
	<path class="st0" d="M111.4,156.3c-0.5-0.3-0.7-0.7-0.7-1.2c0-0.3,0.1-0.6,0.3-0.7c0.2-0.2,0.4-0.3,0.6-0.3c0.3,0,0.6,0.1,1.1,0.4
		c0.5,0.2,0.9,0.4,1.3,0.5s0.9,0.2,1.6,0.2c0.6,0,1.1-0.1,1.5-0.3s0.5-0.5,0.5-0.9c0-0.3-0.1-0.5-0.2-0.6c-0.1-0.2-0.4-0.3-0.8-0.4
		c-0.4-0.1-1-0.3-1.7-0.4c-1.4-0.3-2.4-0.7-2.9-1.2c-0.6-0.5-0.9-1.2-0.9-2.1c0-0.7,0.2-1.3,0.6-1.8s1-1,1.7-1.3s1.5-0.5,2.4-0.5
		c0.6,0,1.3,0.1,1.9,0.2c0.6,0.2,1.1,0.4,1.6,0.7s0.7,0.7,0.7,1.2c0,0.3-0.1,0.6-0.3,0.8c-0.2,0.2-0.4,0.3-0.6,0.3s-0.3,0-0.5-0.1
		s-0.4-0.2-0.6-0.3c-0.4-0.2-0.8-0.4-1.2-0.5c-0.3-0.1-0.7-0.2-1.2-0.2c-0.6,0-1,0.1-1.4,0.3c-0.3,0.2-0.5,0.5-0.5,0.9
		s0.2,0.7,0.5,0.9s1,0.4,2,0.6c1,0.2,1.8,0.5,2.4,0.7c0.6,0.3,1,0.6,1.3,1s0.4,0.9,0.4,1.6c0,1-0.4,1.9-1.3,2.5s-2,0.9-3.5,0.9
		C113.8,157.3,112.5,157,111.4,156.3z"/>
	<path class="st0" d="M138.8,146c0.3,0.2,0.4,0.6,0.4,1v9c0,0.4-0.1,0.7-0.4,1c-0.3,0.2-0.6,0.4-1,0.4s-0.7-0.1-1-0.3
		c-0.2-0.2-0.4-0.5-0.4-0.9v-0.6c-0.4,0.6-0.8,1.1-1.4,1.4c-0.6,0.3-1.3,0.5-2,0.5c-2.8,0-4.2-1.6-4.2-4.7v-5.7c0-0.4,0.1-0.7,0.4-1
		c0.3-0.2,0.6-0.4,1-0.4s0.8,0.1,1.1,0.4c0.3,0.2,0.4,0.6,0.4,1v5.7c0,0.8,0.2,1.4,0.5,1.8c0.3,0.4,0.8,0.6,1.5,0.6
		c0.8,0,1.4-0.3,1.9-0.8s0.7-1.2,0.7-2.1v-5.1c0-0.4,0.1-0.7,0.4-1c0.3-0.2,0.6-0.4,1-0.4C138.2,145.6,138.6,145.7,138.8,146z"/>
	<path class="st0" d="M151.8,146.7c0.7,0.8,1,1.9,1,3.5v5.7c0,0.4-0.1,0.8-0.4,1c-0.3,0.2-0.6,0.4-1,0.4s-0.8-0.1-1.1-0.4
		c-0.3-0.2-0.4-0.6-0.4-1v-5.5c0-0.9-0.2-1.5-0.5-1.9s-0.9-0.6-1.6-0.6c-0.8,0-1.5,0.3-2,0.8s-0.7,1.2-0.7,2.1v5.1
		c0,0.4-0.1,0.8-0.4,1c-0.3,0.2-0.6,0.4-1.1,0.4s-0.8-0.1-1-0.4c-0.3-0.2-0.4-0.6-0.4-1V147c0-0.4,0.1-0.7,0.4-1
		c0.3-0.2,0.6-0.4,1.1-0.4c0.4,0,0.7,0.1,1,0.4c0.3,0.2,0.4,0.6,0.4,0.9v0.6c0.4-0.6,0.9-1.1,1.5-1.5c0.6-0.3,1.4-0.5,2.2-0.5
		C150.1,145.6,151.1,146,151.8,146.7z"/>
	<path class="st0" d="M171.5,154.3c0.2,0.2,0.2,0.5,0.2,0.8c0,0.5-0.3,0.9-0.9,1.2c-0.5,0.3-1.1,0.5-1.8,0.7s-1.3,0.3-1.9,0.3
		c-1.8,0-3.3-0.5-4.3-1.6c-1.1-1-1.6-2.5-1.6-4.3c0-1.2,0.2-2.2,0.7-3.1c0.5-0.9,1.1-1.6,1.9-2.1c0.8-0.5,1.8-0.7,2.8-0.7
		s1.9,0.2,2.7,0.7c0.8,0.4,1.3,1.1,1.8,1.9c0.4,0.8,0.6,1.8,0.6,2.9c0,0.7-0.3,1-0.9,1H164c0.1,1.1,0.4,1.8,0.9,2.3s1.2,0.8,2.2,0.8
		c0.5,0,0.9-0.1,1.3-0.2c0.4-0.1,0.8-0.3,1.3-0.5s0.8-0.4,1-0.4C171.2,154,171.4,154.1,171.5,154.3z M165,148.3
		c-0.5,0.5-0.8,1.2-0.8,2.1h5.2c0-0.9-0.3-1.6-0.7-2.1s-1-0.7-1.8-0.7C166.1,147.6,165.5,147.9,165,148.3z"/>
	<path class="st0" d="M174.2,156.3c-0.5-0.3-0.7-0.7-0.7-1.2c0-0.3,0.1-0.6,0.3-0.7c0.2-0.2,0.4-0.3,0.6-0.3c0.3,0,0.6,0.1,1.1,0.4
		c0.5,0.2,0.9,0.4,1.3,0.5c0.4,0.1,0.9,0.2,1.6,0.2c0.6,0,1.1-0.1,1.5-0.3s0.5-0.5,0.5-0.9c0-0.3-0.1-0.5-0.2-0.6
		c-0.1-0.2-0.4-0.3-0.8-0.4c-0.4-0.1-1-0.3-1.7-0.4c-1.4-0.3-2.4-0.7-2.9-1.2c-0.6-0.5-0.9-1.2-0.9-2.1c0-0.7,0.2-1.3,0.6-1.8
		c0.4-0.5,1-1,1.7-1.3s1.5-0.5,2.4-0.5c0.6,0,1.3,0.1,1.9,0.2c0.6,0.2,1.1,0.4,1.6,0.7s0.7,0.7,0.7,1.2c0,0.3-0.1,0.6-0.3,0.8
		s-0.4,0.3-0.6,0.3c-0.2,0-0.3,0-0.5-0.1s-0.4-0.2-0.6-0.3c-0.4-0.2-0.8-0.4-1.2-0.5c-0.3-0.1-0.7-0.2-1.2-0.2c-0.6,0-1,0.1-1.4,0.3
		c-0.3,0.2-0.5,0.5-0.5,0.9s0.2,0.7,0.5,0.9s1,0.4,2,0.6c1,0.2,1.8,0.5,2.4,0.7c0.6,0.3,1,0.6,1.3,1s0.4,0.9,0.4,1.6
		c0,1-0.4,1.9-1.3,2.5c-0.9,0.6-2,0.9-3.5,0.9C176.6,157.3,175.3,157,174.2,156.3z"/>
	<path class="st0" d="M192.3,156.2c0,0.4-0.2,0.6-0.5,0.8s-0.7,0.3-1.3,0.2h-0.6c-2.6-0.2-3.9-1.6-3.9-4.2v-5h-1.2
		c-0.4,0-0.7-0.1-1-0.3c-0.2-0.2-0.3-0.5-0.3-0.8c0-0.4,0.1-0.6,0.3-0.8s0.5-0.3,1-0.3h1.2v-2.1c0-0.4,0.1-0.7,0.4-1
		c0.3-0.2,0.6-0.4,1.1-0.4c0.4,0,0.8,0.1,1,0.4c0.3,0.2,0.4,0.6,0.4,1v2.1h2c0.4,0,0.7,0.1,1,0.3c0.2,0.2,0.3,0.5,0.3,0.8
		c0,0.4-0.1,0.6-0.3,0.8s-0.5,0.3-1,0.3h-2v5.2c0,1.1,0.5,1.7,1.6,1.8h0.6C191.9,155.2,192.3,155.5,192.3,156.2z"/>
	<path class="st0" d="M203.8,146c0.3,0.2,0.4,0.6,0.4,1v9c0,0.4-0.1,0.7-0.4,1c-0.3,0.2-0.6,0.4-1,0.4s-0.7-0.1-1-0.3
		c-0.2-0.2-0.4-0.5-0.4-0.9v-0.6c-0.4,0.6-0.8,1.1-1.4,1.4c-0.6,0.3-1.3,0.5-2,0.5c-2.8,0-4.2-1.6-4.2-4.7v-5.7c0-0.4,0.1-0.7,0.4-1
		c0.3-0.2,0.6-0.4,1-0.4s0.8,0.1,1.1,0.4c0.3,0.2,0.4,0.6,0.4,1v5.7c0,0.8,0.2,1.4,0.5,1.8c0.3,0.4,0.8,0.6,1.5,0.6
		c0.8,0,1.4-0.3,1.9-0.8s0.7-1.2,0.7-2.1v-5.1c0-0.4,0.1-0.7,0.4-1c0.3-0.2,0.6-0.4,1-0.4C203.2,145.6,203.5,145.7,203.8,146z"/>
	<path class="st0" d="M217.6,141.1c0.3,0.2,0.4,0.6,0.4,1v13.8c0,0.4-0.1,0.7-0.4,1c-0.3,0.2-0.6,0.4-1,0.4s-0.8-0.1-1-0.4
		c-0.3-0.2-0.4-0.6-0.4-1v-0.6c-0.3,0.6-0.8,1.1-1.5,1.5s-1.4,0.5-2.2,0.5c-1,0-1.8-0.2-2.6-0.7s-1.4-1.2-1.8-2.1
		c-0.4-0.9-0.6-1.9-0.6-3.1c0-1.2,0.2-2.2,0.6-3.1c0.4-0.9,1-1.6,1.8-2c0.8-0.5,1.6-0.7,2.6-0.7c0.8,0,1.5,0.2,2.2,0.5
		c0.6,0.3,1.1,0.8,1.5,1.4V142c0-0.4,0.1-0.7,0.4-0.9c0.3-0.2,0.6-0.4,1-0.4S217.4,140.9,217.6,141.1z M214.4,154.1
		c0.5-0.6,0.7-1.5,0.7-2.7s-0.2-2.1-0.7-2.7c-0.5-0.6-1.2-0.9-2.1-0.9c-0.9,0-1.6,0.3-2.1,0.9c-0.5,0.6-0.8,1.5-0.8,2.7
		s0.3,2.1,0.8,2.7c0.5,0.6,1.2,1,2.1,1C213.2,155.1,213.9,154.8,214.4,154.1z"/>
	<path class="st0" d="M221.2,143.1c-0.3-0.3-0.5-0.7-0.5-1.1c0-0.5,0.2-0.8,0.5-1.1s0.7-0.4,1.2-0.4s0.9,0.1,1.2,0.4
		c0.3,0.3,0.5,0.6,0.5,1.1s-0.2,0.8-0.5,1.1s-0.7,0.4-1.2,0.4C221.9,143.6,221.5,143.4,221.2,143.1z M221.4,156.9
		c-0.3-0.2-0.4-0.6-0.4-1V147c0-0.4,0.1-0.8,0.4-1c0.3-0.2,0.6-0.3,1-0.3s0.8,0.1,1,0.3c0.3,0.2,0.4,0.6,0.4,1v8.9
		c0,0.4-0.1,0.8-0.4,1c-0.3,0.2-0.6,0.4-1,0.4C222,157.3,221.7,157.2,221.4,156.9z"/>
	<path class="st0" d="M229,156.6c-0.9-0.5-1.5-1.2-2-2.1c-0.5-0.9-0.7-1.9-0.7-3.1c0-1.2,0.2-2.2,0.7-3.1c0.5-0.9,1.2-1.6,2-2
		c0.9-0.5,1.9-0.7,3-0.7s2.2,0.2,3,0.7c0.9,0.5,1.5,1.2,2,2c0.5,0.9,0.7,1.9,0.7,3.1c0,1.2-0.2,2.2-0.7,3.1c-0.5,0.9-1.1,1.6-2,2.1
		s-1.9,0.7-3,0.7S229.9,157.1,229,156.6z M234.2,154.2c0.5-0.6,0.7-1.5,0.7-2.7s-0.2-2.1-0.7-2.7c-0.5-0.6-1.2-0.9-2.1-0.9
		s-1.6,0.3-2.1,0.9c-0.5,0.6-0.7,1.5-0.7,2.7s0.2,2.1,0.7,2.7c0.5,0.6,1.2,0.9,2.1,0.9S233.7,154.8,234.2,154.2z"/>
	<path class="st0" d="M256.9,141.1c0.3,0.2,0.4,0.6,0.4,1v13.8c0,0.4-0.1,0.7-0.4,1c-0.3,0.2-0.6,0.4-1,0.4c-0.4,0-0.8-0.1-1-0.4
		c-0.3-0.2-0.4-0.6-0.4-1v-0.6c-0.3,0.6-0.8,1.1-1.5,1.5c-0.6,0.4-1.4,0.5-2.2,0.5c-1,0-1.8-0.2-2.6-0.7s-1.4-1.2-1.8-2.1
		c-0.4-0.9-0.6-1.9-0.6-3.1c0-1.2,0.2-2.2,0.6-3.1c0.4-0.9,1-1.6,1.8-2c0.8-0.5,1.6-0.7,2.6-0.7c0.8,0,1.5,0.2,2.2,0.5
		c0.6,0.3,1.1,0.8,1.5,1.4V142c0-0.4,0.1-0.7,0.4-0.9s0.6-0.4,1-0.4C256.3,140.8,256.6,140.9,256.9,141.1z M253.7,154.1
		c0.5-0.6,0.7-1.5,0.7-2.7s-0.2-2.1-0.7-2.7s-1.2-0.9-2.1-0.9c-0.9,0-1.6,0.3-2.1,0.9c-0.5,0.6-0.8,1.5-0.8,2.7s0.3,2.1,0.8,2.7
		c0.5,0.6,1.2,1,2.1,1C252.5,155.1,253.2,154.8,253.7,154.1z"/>
	<path class="st0" d="M269.8,154.3c0.2,0.2,0.2,0.5,0.2,0.8c0,0.5-0.3,0.9-0.9,1.2c-0.5,0.3-1.1,0.5-1.8,0.7
		c-0.7,0.2-1.3,0.3-1.9,0.3c-1.8,0-3.3-0.5-4.3-1.6c-1.1-1-1.6-2.5-1.6-4.3c0-1.2,0.2-2.2,0.7-3.1c0.5-0.9,1.1-1.6,2-2.1
		c0.8-0.5,1.8-0.7,2.8-0.7s1.9,0.2,2.7,0.7s1.3,1.1,1.8,1.9c0.4,0.8,0.6,1.8,0.6,2.9c0,0.7-0.3,1-0.9,1h-6.8
		c0.1,1.1,0.4,1.8,0.9,2.3s1.2,0.8,2.2,0.8c0.5,0,0.9-0.1,1.3-0.2c0.4-0.1,0.8-0.3,1.3-0.5s0.8-0.4,1-0.4
		C269.5,154,269.7,154.1,269.8,154.3z M263.3,148.3c-0.5,0.5-0.7,1.2-0.8,2.1h5.2c0-0.9-0.3-1.6-0.7-2.1c-0.4-0.5-1-0.7-1.8-0.7
		C264.4,147.6,263.8,147.9,263.3,148.3z"/>
	<path class="st0" d="M14.8,168.8c0.3,0.2,0.4,0.6,0.4,1v13.8c0,0.4-0.1,0.7-0.4,1c-0.3,0.2-0.6,0.4-1,0.4s-0.8-0.1-1-0.4
		c-0.3-0.2-0.4-0.6-0.4-1V183c-0.3,0.6-0.8,1.1-1.5,1.5c-0.6,0.4-1.4,0.5-2.2,0.5c-1,0-1.8-0.2-2.6-0.7c-0.8-0.5-1.4-1.2-1.8-2.1
		c-0.4-0.9-0.6-1.9-0.6-3.1c0-1.2,0.2-2.2,0.6-3.1c0.4-0.9,1-1.6,1.8-2c0.8-0.5,1.6-0.7,2.6-0.7c0.8,0,1.5,0.2,2.2,0.5
		c0.6,0.3,1.1,0.8,1.5,1.4v-5.5c0-0.4,0.1-0.7,0.4-0.9c0.3-0.2,0.6-0.4,1-0.4C14.1,168.4,14.5,168.6,14.8,168.8z M11.6,181.8
		c0.5-0.6,0.7-1.5,0.7-2.7s-0.2-2.1-0.7-2.7c-0.5-0.6-1.2-0.9-2.1-0.9s-1.6,0.3-2.1,0.9s-0.8,1.5-0.8,2.7s0.3,2.1,0.8,2.7
		c0.5,0.6,1.2,1,2.1,1C10.4,182.8,11.1,182.5,11.6,181.8z"/>
	<path class="st0" d="M18.3,170.8c-0.3-0.3-0.5-0.7-0.5-1.1c0-0.5,0.2-0.8,0.5-1.1s0.7-0.4,1.2-0.4s0.9,0.1,1.2,0.4
		c0.3,0.3,0.5,0.6,0.5,1.1s-0.2,0.8-0.5,1.1s-0.7,0.4-1.2,0.4C19.1,171.3,18.6,171.1,18.3,170.8z M18.6,184.6
		c-0.3-0.2-0.4-0.6-0.4-1v-8.9c0-0.4,0.1-0.8,0.4-1s0.6-0.3,1-0.3s0.8,0.1,1,0.3c0.3,0.2,0.4,0.6,0.4,1v8.9c0,0.4-0.1,0.8-0.4,1
		s-0.6,0.4-1,0.4S18.8,184.8,18.6,184.6z"/>
	<path class="st0" d="M24,184c-0.5-0.3-0.7-0.7-0.7-1.2c0-0.3,0.1-0.6,0.3-0.7c0.2-0.2,0.4-0.3,0.6-0.3c0.3,0,0.6,0.1,1.1,0.4
		c0.5,0.2,0.9,0.4,1.3,0.5s0.9,0.2,1.6,0.2c0.6,0,1.1-0.1,1.5-0.3s0.5-0.5,0.5-0.9c0-0.3-0.1-0.5-0.2-0.6c-0.1-0.2-0.4-0.3-0.8-0.4
		c-0.4-0.1-1-0.3-1.7-0.4c-1.4-0.3-2.4-0.7-2.9-1.2c-0.6-0.5-0.9-1.2-0.9-2.1c0-0.7,0.2-1.3,0.6-1.8s1-1,1.7-1.3s1.5-0.5,2.4-0.5
		c0.6,0,1.3,0.1,1.9,0.2c0.6,0.2,1.1,0.4,1.6,0.7c0.5,0.3,0.7,0.7,0.7,1.2c0,0.3-0.1,0.6-0.3,0.8s-0.4,0.3-0.6,0.3
		c-0.2,0-0.3,0-0.5-0.1s-0.4-0.2-0.6-0.3c-0.4-0.2-0.8-0.4-1.2-0.5c-0.3-0.1-0.7-0.2-1.2-0.2c-0.6,0-1,0.1-1.4,0.3
		c-0.3,0.2-0.5,0.5-0.5,0.9s0.2,0.7,0.5,0.9s1,0.4,2,0.6c1,0.2,1.8,0.5,2.4,0.7c0.6,0.3,1,0.6,1.3,1s0.4,0.9,0.4,1.6
		c0,1-0.4,1.9-1.3,2.5c-0.9,0.6-2,0.9-3.5,0.9C26.4,185,25.1,184.7,24,184z"/>
	<path class="st0" d="M44.8,182c0.2,0.2,0.2,0.5,0.2,0.8c0,0.5-0.3,0.9-0.9,1.2c-0.5,0.3-1.1,0.5-1.8,0.7S41,185,40.4,185
		c-1.8,0-3.3-0.5-4.3-1.6c-1.1-1-1.6-2.5-1.6-4.3c0-1.2,0.2-2.2,0.7-3.1c0.5-0.9,1.1-1.6,1.9-2.1c0.8-0.5,1.8-0.7,2.8-0.7
		s1.9,0.2,2.7,0.7c0.8,0.4,1.3,1.1,1.8,1.9c0.4,0.8,0.6,1.8,0.6,2.9c0,0.7-0.3,1-0.9,1h-6.8c0.1,1.1,0.4,1.8,0.9,2.3
		s1.2,0.8,2.2,0.8c0.5,0,0.9-0.1,1.3-0.2c0.4-0.1,0.8-0.3,1.3-0.5s0.8-0.4,1-0.4C44.4,181.7,44.6,181.8,44.8,182z M38.3,176
		c-0.5,0.5-0.8,1.2-0.8,2.1h5.2c0-0.9-0.3-1.6-0.7-2.1s-1-0.7-1.8-0.7C39.4,175.3,38.7,175.5,38.3,176z"/>
	<path class="st0" d="M57,174.4c0.7,0.8,1,1.9,1,3.5v5.7c0,0.4-0.1,0.8-0.4,1c-0.3,0.2-0.6,0.4-1,0.4s-0.8-0.1-1.1-0.4
		c-0.3-0.2-0.4-0.6-0.4-1v-5.5c0-0.9-0.2-1.5-0.5-1.9s-0.9-0.6-1.6-0.6c-0.8,0-1.5,0.3-2,0.8s-0.7,1.2-0.7,2.1v5.1
		c0,0.4-0.1,0.8-0.4,1c-0.3,0.2-0.6,0.4-1.1,0.4c-0.4,0-0.8-0.1-1-0.4c-0.3-0.2-0.4-0.6-0.4-1v-8.9c0-0.4,0.1-0.7,0.4-1
		c0.3-0.2,0.6-0.4,1.1-0.4c0.4,0,0.7,0.1,1,0.4c0.3,0.2,0.4,0.6,0.4,0.9v0.6c0.4-0.6,0.9-1.1,1.5-1.5c0.6-0.3,1.4-0.5,2.2-0.5
		C55.4,173.3,56.4,173.7,57,174.4z M53.6,171.2c-0.3-0.1-0.6-0.3-1-0.6c-0.3-0.2-0.6-0.3-0.8-0.4c-0.2-0.1-0.4-0.1-0.6-0.1
		c-0.2,0-0.4,0.1-0.6,0.2c-0.1,0.1-0.3,0.3-0.5,0.5c-0.1,0.2-0.2,0.3-0.3,0.4c-0.1,0.1-0.2,0.1-0.3,0.1c-0.2,0-0.3-0.1-0.4-0.2
		c-0.1-0.1-0.2-0.3-0.2-0.6s0.1-0.6,0.3-1s0.4-0.7,0.8-1c0.3-0.3,0.7-0.4,1.1-0.4c0.3,0,0.6,0.1,0.8,0.2c0.3,0.1,0.6,0.3,1,0.6
		c0.3,0.2,0.6,0.3,0.8,0.4c0.2,0.1,0.4,0.1,0.6,0.1c0.2,0,0.4-0.1,0.6-0.2c0.1-0.1,0.3-0.3,0.5-0.5c0.1-0.2,0.2-0.3,0.3-0.4
		c0.1-0.1,0.2-0.1,0.3-0.1c0.2,0,0.3,0.1,0.4,0.2c0.1,0.1,0.2,0.3,0.2,0.6s-0.1,0.6-0.3,1s-0.4,0.7-0.8,1c-0.3,0.3-0.7,0.4-1.1,0.4
		C54.2,171.4,53.9,171.3,53.6,171.2z"/>
	<path class="st0" d="M63.1,184.3c-0.9-0.5-1.5-1.2-2-2.1c-0.5-0.9-0.7-1.9-0.7-3.1c0-1.2,0.2-2.2,0.7-3.1c0.5-0.9,1.1-1.6,2-2
		c0.9-0.5,1.9-0.7,3-0.7s2.2,0.2,3,0.7c0.9,0.5,1.5,1.2,2,2c0.5,0.9,0.7,1.9,0.7,3.1c0,1.2-0.2,2.2-0.7,3.1c-0.5,0.9-1.1,1.6-2,2.1
		s-1.9,0.7-3,0.7S63.9,184.8,63.1,184.3z M68.2,181.9c0.5-0.6,0.7-1.5,0.7-2.7s-0.2-2.1-0.7-2.7c-0.5-0.6-1.2-0.9-2.1-0.9
		s-1.6,0.3-2.1,0.9c-0.5,0.6-0.7,1.5-0.7,2.7s0.2,2.1,0.7,2.7c0.5,0.6,1.2,0.9,2.1,0.9C67,182.8,67.7,182.5,68.2,181.9z"/>
	<path class="st0" d="M91,168.8c0.3,0.2,0.4,0.6,0.4,1v13.8c0,0.4-0.1,0.7-0.4,1c-0.3,0.2-0.6,0.4-1,0.4s-0.8-0.1-1-0.4
		c-0.3-0.2-0.4-0.6-0.4-1V183c-0.3,0.6-0.8,1.1-1.5,1.5c-0.6,0.4-1.4,0.5-2.2,0.5c-1,0-1.8-0.2-2.6-0.7c-0.8-0.5-1.4-1.2-1.8-2.1
		c-0.4-0.9-0.6-1.9-0.6-3.1c0-1.2,0.2-2.2,0.6-3.1c0.4-0.9,1-1.6,1.8-2c0.8-0.5,1.6-0.7,2.6-0.7c0.8,0,1.5,0.2,2.2,0.5
		c0.6,0.3,1.1,0.8,1.5,1.4v-5.5c0-0.4,0.1-0.7,0.4-0.9s0.6-0.4,1-0.4S90.7,168.6,91,168.8z M87.8,181.8c0.5-0.6,0.7-1.5,0.7-2.7
		s-0.2-2.1-0.7-2.7c-0.5-0.6-1.2-0.9-2.1-0.9s-1.6,0.3-2.1,0.9c-0.5,0.6-0.8,1.5-0.8,2.7s0.3,2.1,0.8,2.7c0.5,0.6,1.2,1,2.1,1
		S87.3,182.5,87.8,181.8z"/>
	<path class="st0" d="M103.9,182c0.2,0.2,0.2,0.5,0.2,0.8c0,0.5-0.3,0.9-0.9,1.2c-0.5,0.3-1.1,0.5-1.8,0.7c-0.7,0.2-1.3,0.3-1.9,0.3
		c-1.8,0-3.3-0.5-4.3-1.6c-1.1-1-1.6-2.5-1.6-4.3c0-1.2,0.2-2.2,0.7-3.1c0.5-0.9,1.1-1.6,1.9-2.1s1.8-0.7,2.8-0.7s1.9,0.2,2.7,0.7
		c0.8,0.4,1.3,1.1,1.8,1.9s0.6,1.8,0.6,2.9c0,0.7-0.3,1-0.9,1h-6.8c0.1,1.1,0.4,1.8,0.9,2.3s1.2,0.8,2.2,0.8c0.5,0,0.9-0.1,1.3-0.2
		c0.4-0.1,0.8-0.3,1.3-0.5s0.8-0.4,1-0.4C103.5,181.7,103.8,181.8,103.9,182z M97.4,176c-0.5,0.5-0.8,1.2-0.8,2.1h5.2
		c0-0.9-0.3-1.6-0.7-2.1c-0.4-0.5-1-0.7-1.8-0.7C98.5,175.3,97.9,175.5,97.4,176z"/>
	<path class="st0" d="M114.9,184.3c-0.9-0.5-1.5-1.2-2-2c-0.5-0.9-0.7-1.9-0.7-3.1c0-1.2,0.2-2.2,0.7-3.1c0.5-0.9,1.2-1.6,2-2.1
		c0.9-0.5,1.9-0.7,3-0.7c0.6,0,1.2,0.1,1.8,0.3c0.6,0.2,1.1,0.4,1.6,0.7s0.7,0.7,0.7,1.2c0,0.3-0.1,0.6-0.2,0.8
		c-0.2,0.2-0.4,0.3-0.6,0.3s-0.3,0-0.5-0.1s-0.4-0.2-0.6-0.3c-0.3-0.2-0.7-0.4-1-0.5s-0.7-0.2-1.1-0.2c-1,0-1.7,0.3-2.2,0.9
		c-0.5,0.6-0.8,1.5-0.8,2.7s0.3,2,0.8,2.7c0.5,0.6,1.2,0.9,2.2,0.9c0.4,0,0.7-0.1,1-0.2c0.3-0.1,0.6-0.3,1-0.5
		c0.2-0.1,0.4-0.2,0.6-0.3s0.3-0.1,0.5-0.1s0.5,0.1,0.6,0.3c0.2,0.2,0.3,0.5,0.3,0.8s-0.1,0.5-0.2,0.7s-0.3,0.4-0.6,0.5
		c-0.5,0.3-1,0.6-1.7,0.7c-0.6,0.2-1.3,0.3-1.9,0.3C116.7,185,115.8,184.8,114.9,184.3z"/>
	<path class="st0" d="M126.2,184.3c-0.9-0.5-1.5-1.2-2-2.1c-0.5-0.9-0.7-1.9-0.7-3.1c0-1.2,0.2-2.2,0.7-3.1c0.5-0.9,1.1-1.6,2-2
		c0.9-0.5,1.9-0.7,3-0.7c1.2,0,2.2,0.2,3,0.7c0.9,0.5,1.5,1.2,2,2c0.5,0.9,0.7,1.9,0.7,3.1c0,1.2-0.2,2.2-0.7,3.1
		c-0.5,0.9-1.1,1.6-2,2.1s-1.9,0.7-3,0.7C128.1,185,127.1,184.8,126.2,184.3z M131.4,181.9c0.5-0.6,0.7-1.5,0.7-2.7
		s-0.2-2.1-0.7-2.7c-0.5-0.6-1.2-0.9-2.1-0.9s-1.6,0.3-2.1,0.9c-0.5,0.6-0.7,1.5-0.7,2.7s0.2,2.1,0.7,2.7c0.5,0.6,1.2,0.9,2.1,0.9
		C130.2,182.8,130.9,182.5,131.4,181.9z"/>
	<path class="st0" d="M153.6,174.4c0.7,0.7,1,1.9,1,3.5v5.7c0,0.4-0.1,0.8-0.4,1c-0.3,0.2-0.6,0.4-1,0.4s-0.8-0.1-1-0.4
		c-0.3-0.2-0.4-0.6-0.4-1v-5.7c0-0.8-0.1-1.5-0.4-1.8c-0.3-0.4-0.8-0.5-1.4-0.5c-0.8,0-1.4,0.3-1.8,0.8c-0.4,0.5-0.7,1.2-0.7,2.1
		v5.1c0,0.4-0.1,0.8-0.4,1c-0.3,0.2-0.6,0.4-1,0.4s-0.8-0.1-1-0.4s-0.4-0.6-0.4-1v-5.7c0-0.8-0.2-1.5-0.5-1.8
		c-0.3-0.4-0.8-0.5-1.4-0.5c-0.8,0-1.4,0.3-1.8,0.8c-0.4,0.5-0.7,1.2-0.7,2.1v5.1c0,0.4-0.1,0.8-0.4,1c-0.3,0.2-0.6,0.4-1,0.4
		s-0.8-0.1-1-0.4c-0.3-0.2-0.4-0.6-0.4-1v-8.9c0-0.4,0.1-0.8,0.4-1c0.3-0.2,0.6-0.3,1-0.3s0.7,0.1,1,0.3s0.4,0.5,0.4,1v0.6
		c0.4-0.6,0.8-1.1,1.4-1.4c0.6-0.3,1.3-0.5,2-0.5c1.7,0,2.8,0.7,3.4,2.1c0.3-0.6,0.8-1.2,1.5-1.5c0.7-0.4,1.4-0.6,2.2-0.6
		C152,173.3,153,173.6,153.6,174.4z"/>
	<path class="st0" d="M167.5,173.7c0.3,0.2,0.4,0.6,0.4,1v9c0,0.4-0.1,0.7-0.4,1c-0.3,0.2-0.6,0.4-1,0.4s-0.7-0.1-1-0.3
		c-0.2-0.2-0.4-0.5-0.4-0.9v-0.6c-0.4,0.6-0.8,1.1-1.4,1.4c-0.6,0.3-1.3,0.5-2,0.5c-2.8,0-4.2-1.6-4.2-4.7v-5.8c0-0.4,0.1-0.7,0.4-1
		c0.3-0.2,0.6-0.4,1-0.4s0.8,0.1,1.1,0.4c0.3,0.2,0.4,0.6,0.4,1v5.7c0,0.8,0.2,1.4,0.5,1.8c0.3,0.4,0.8,0.6,1.5,0.6
		c0.8,0,1.4-0.3,1.9-0.8s0.7-1.2,0.7-2.1v-5.2c0-0.4,0.1-0.7,0.4-1c0.3-0.2,0.6-0.4,1-0.4C166.9,173.3,167.2,173.4,167.5,173.7z"/>
	<path class="st0" d="M180.5,174.4c0.7,0.8,1,1.9,1,3.5v5.7c0,0.4-0.1,0.8-0.4,1c-0.3,0.2-0.6,0.4-1,0.4s-0.8-0.1-1.1-0.4
		c-0.3-0.2-0.4-0.6-0.4-1v-5.5c0-0.9-0.2-1.5-0.5-1.9s-0.9-0.6-1.6-0.6c-0.8,0-1.5,0.3-2,0.8s-0.7,1.2-0.7,2.1v5.1
		c0,0.4-0.1,0.8-0.4,1c-0.3,0.2-0.6,0.4-1.1,0.4s-0.8-0.1-1-0.4c-0.3-0.2-0.4-0.6-0.4-1v-8.9c0-0.4,0.1-0.7,0.4-1
		c0.3-0.2,0.6-0.4,1.1-0.4c0.4,0,0.7,0.1,1,0.4c0.3,0.2,0.4,0.6,0.4,0.9v0.6c0.4-0.6,0.9-1.1,1.5-1.5c0.6-0.3,1.4-0.5,2.2-0.5
		C178.8,173.3,179.8,173.7,180.5,174.4z"/>
	<path class="st0" d="M184.6,170.8c-0.3-0.3-0.5-0.7-0.5-1.1c0-0.5,0.2-0.8,0.5-1.1s0.7-0.4,1.2-0.4s0.9,0.1,1.2,0.4
		c0.3,0.3,0.5,0.6,0.5,1.1s-0.2,0.8-0.5,1.1s-0.7,0.4-1.2,0.4C185.3,171.3,184.9,171.1,184.6,170.8z M184.8,184.6
		c-0.3-0.2-0.4-0.6-0.4-1v-8.9c0-0.4,0.1-0.8,0.4-1c0.3-0.2,0.6-0.3,1-0.3s0.8,0.1,1,0.3c0.3,0.2,0.4,0.6,0.4,1v8.9
		c0,0.4-0.1,0.8-0.4,1c-0.3,0.2-0.6,0.4-1,0.4C185.4,185,185.1,184.8,184.8,184.6z"/>
	<path class="st0" d="M192.3,184.3c-0.9-0.5-1.5-1.2-2-2c-0.5-0.9-0.7-1.9-0.7-3.1c0-1.2,0.2-2.2,0.7-3.1c0.5-0.9,1.2-1.6,2-2.1
		c0.9-0.5,1.9-0.7,3-0.7c0.6,0,1.2,0.1,1.8,0.3s1.1,0.4,1.6,0.7s0.7,0.7,0.7,1.2c0,0.3-0.1,0.6-0.2,0.8c-0.2,0.2-0.4,0.3-0.6,0.3
		c-0.2,0-0.3,0-0.5-0.1s-0.4-0.2-0.6-0.3c-0.3-0.2-0.7-0.4-1-0.5s-0.7-0.2-1.1-0.2c-1,0-1.7,0.3-2.2,0.9c-0.5,0.6-0.8,1.5-0.8,2.7
		s0.3,2,0.8,2.7c0.5,0.6,1.2,0.9,2.2,0.9c0.4,0,0.7-0.1,1-0.2c0.3-0.1,0.6-0.3,1-0.5c0.2-0.1,0.4-0.2,0.6-0.3
		c0.2-0.1,0.3-0.1,0.5-0.1s0.5,0.1,0.6,0.3c0.2,0.2,0.3,0.5,0.3,0.8s-0.1,0.5-0.2,0.7c-0.1,0.2-0.3,0.4-0.6,0.5
		c-0.5,0.3-1,0.6-1.7,0.7c-0.6,0.2-1.3,0.3-1.9,0.3C194.1,185,193.1,184.8,192.3,184.3z"/>
	<path class="st0" d="M209.9,174.4c0.8,0.8,1.1,2,1.1,3.5v5.6c0,0.4-0.1,0.7-0.4,1c-0.2,0.2-0.6,0.4-1,0.4s-0.7-0.1-1-0.4
		c-0.3-0.2-0.4-0.6-0.4-1V183c-0.3,0.6-0.7,1.1-1.2,1.4c-0.6,0.3-1.2,0.5-2,0.5s-1.4-0.2-2.1-0.5c-0.6-0.3-1.1-0.7-1.5-1.3
		c-0.4-0.5-0.5-1.1-0.5-1.8c0-0.8,0.2-1.5,0.6-2c0.4-0.5,1.1-0.8,2.1-1s2.3-0.3,3.9-0.3h0.6v-0.5c0-0.8-0.2-1.3-0.5-1.6
		s-0.8-0.5-1.6-0.5c-0.4,0-0.9,0.1-1.4,0.2c-0.5,0.1-1,0.3-1.6,0.6c-0.4,0.2-0.7,0.3-0.9,0.3c-0.3,0-0.5-0.1-0.7-0.3
		s-0.3-0.5-0.3-0.8s0.1-0.5,0.2-0.7c0.1-0.2,0.3-0.4,0.7-0.5c0.5-0.3,1.2-0.5,1.9-0.7s1.5-0.3,2.2-0.3
		C208,173.3,209.1,173.7,209.9,174.4z M207.6,182.2c0.5-0.5,0.7-1.2,0.7-2v-0.5h-0.4c-1,0-1.8,0-2.4,0.1c-0.6,0.1-1,0.3-1.2,0.5
		s-0.4,0.5-0.4,0.9c0,0.5,0.2,0.9,0.5,1.2s0.8,0.5,1.3,0.5C206.5,182.9,207.1,182.7,207.6,182.2z"/>
	<path class="st0" d="M216,184.3c-0.9-0.5-1.5-1.2-2-2c-0.5-0.9-0.7-1.9-0.7-3.1c0-1.2,0.2-2.2,0.7-3.1c0.5-0.9,1.2-1.6,2-2.1
		c0.9-0.5,1.9-0.7,3-0.7c0.6,0,1.2,0.1,1.8,0.3s1.1,0.4,1.6,0.7s0.7,0.7,0.7,1.2c0,0.3-0.1,0.6-0.2,0.8s-0.4,0.3-0.6,0.3
		c-0.2,0-0.3,0-0.5-0.1s-0.4-0.2-0.6-0.3c-0.3-0.2-0.7-0.4-1-0.5s-0.7-0.2-1.1-0.2c-1,0-1.7,0.3-2.2,0.9c-0.5,0.6-0.8,1.5-0.8,2.7
		s0.3,2,0.8,2.7c0.5,0.6,1.2,0.9,2.2,0.9c0.4,0,0.7-0.1,1-0.2c0.3-0.1,0.6-0.3,1-0.5c0.2-0.1,0.4-0.2,0.6-0.3
		c0.2-0.1,0.3-0.1,0.5-0.1s0.5,0.1,0.6,0.3c0.2,0.2,0.3,0.5,0.3,0.8s-0.1,0.5-0.2,0.7c-0.1,0.2-0.3,0.4-0.6,0.5
		c-0.5,0.3-1,0.6-1.7,0.7c-0.6,0.2-1.3,0.3-1.9,0.3C217.9,185,216.9,184.8,216,184.3z"/>
	<path class="st0" d="M225.4,170.8c-0.3-0.3-0.5-0.7-0.5-1.1c0-0.5,0.2-0.8,0.5-1.1s0.7-0.4,1.2-0.4s0.9,0.1,1.2,0.4
		c0.3,0.3,0.5,0.6,0.5,1.1s-0.2,0.8-0.5,1.1s-0.7,0.4-1.2,0.4C226.1,171.3,225.7,171.1,225.4,170.8z M225.6,184.6
		c-0.3-0.2-0.4-0.6-0.4-1v-8.9c0-0.4,0.1-0.8,0.4-1c0.3-0.2,0.6-0.3,1-0.3s0.8,0.1,1,0.3c0.3,0.2,0.4,0.6,0.4,1v8.9
		c0,0.4-0.1,0.8-0.4,1c-0.3,0.2-0.6,0.4-1,0.4C226.2,185,225.9,184.8,225.6,184.6z"/>
	<path class="st0" d="M233.2,184.3c-0.9-0.5-1.5-1.2-2-2.1c-0.5-0.9-0.7-1.9-0.7-3.1c0-1.2,0.2-2.2,0.7-3.1c0.5-0.9,1.2-1.6,2-2
		c0.9-0.5,1.9-0.7,3-0.7s2.2,0.2,3,0.7c0.9,0.5,1.5,1.2,2,2c0.5,0.9,0.7,1.9,0.7,3.1c0,1.2-0.2,2.2-0.7,3.1c-0.5,0.9-1.1,1.6-2,2.1
		s-1.9,0.7-3,0.7S234.1,184.8,233.2,184.3z M238.4,181.9c0.5-0.6,0.7-1.5,0.7-2.7s-0.2-2.1-0.7-2.7c-0.5-0.6-1.2-0.9-2.1-0.9
		s-1.6,0.3-2.1,0.9c-0.5,0.6-0.7,1.5-0.7,2.7s0.2,2.1,0.7,2.7c0.5,0.6,1.2,0.9,2.1,0.9C237.2,182.8,237.9,182.5,238.4,181.9z
		 M236.3,172.2c-0.2,0-0.4-0.1-0.5-0.2c-0.1-0.1-0.2-0.3-0.2-0.5s0.1-0.3,0.2-0.5l2.2-3c0.4-0.5,0.8-0.7,1.2-0.7
		c0.3,0,0.6,0.1,0.9,0.4c0.2,0.2,0.4,0.5,0.4,0.8c0,0.4-0.2,0.8-0.6,1.1l-3,2.4C236.6,172.1,236.5,172.2,236.3,172.2z"/>
	<path class="st0" d="M253.9,174.4c0.7,0.8,1,1.9,1,3.5v5.7c0,0.4-0.1,0.8-0.4,1s-0.6,0.4-1,0.4s-0.8-0.1-1.1-0.4
		c-0.3-0.2-0.4-0.6-0.4-1v-5.5c0-0.9-0.2-1.5-0.5-1.9s-0.9-0.6-1.6-0.6c-0.8,0-1.5,0.3-2,0.8s-0.7,1.2-0.7,2.1v5.1
		c0,0.4-0.1,0.8-0.4,1c-0.3,0.2-0.6,0.4-1.1,0.4c-0.4,0-0.8-0.1-1-0.4c-0.3-0.2-0.4-0.6-0.4-1v-8.9c0-0.4,0.1-0.7,0.4-1
		c0.3-0.2,0.6-0.4,1.1-0.4c0.4,0,0.7,0.1,1,0.4c0.3,0.2,0.4,0.6,0.4,0.9v0.6c0.4-0.6,0.9-1.1,1.5-1.5c0.6-0.3,1.4-0.5,2.2-0.5
		C252.3,173.3,253.3,173.7,253.9,174.4z"/>
	<path class="st0" d="M12.7,201.2c0.2-0.1,0.4-0.2,0.7-0.2c0.4,0,0.7,0.1,1,0.4c0.3,0.2,0.4,0.5,0.4,0.9c0,0.2,0,0.4-0.1,0.6
		l-4.3,8.9c-0.1,0.3-0.3,0.5-0.6,0.7s-0.5,0.2-0.8,0.2s-0.6-0.1-0.8-0.2c-0.3-0.2-0.5-0.4-0.6-0.7l-4.3-8.9
		c-0.1-0.2-0.1-0.3-0.1-0.5c0-0.4,0.1-0.7,0.4-0.9s0.6-0.4,1-0.4c0.6,0,1,0.3,1.2,0.8L9,209l3.2-7.1
		C12.3,201.6,12.4,201.3,12.7,201.2z"/>
	<path class="st0" d="M16.6,198.5c-0.3-0.3-0.5-0.7-0.5-1.1c0-0.5,0.2-0.8,0.5-1.1s0.7-0.4,1.2-0.4s0.9,0.1,1.2,0.4
		c0.3,0.3,0.5,0.6,0.5,1.1s-0.2,0.8-0.5,1.1s-0.7,0.4-1.2,0.4C17.3,199,16.9,198.8,16.6,198.5z M16.8,212.3c-0.3-0.2-0.4-0.6-0.4-1
		v-8.9c0-0.4,0.1-0.8,0.4-1s0.6-0.3,1-0.3s0.8,0.1,1,0.3c0.3,0.2,0.4,0.6,0.4,1v8.9c0,0.4-0.1,0.8-0.4,1s-0.6,0.4-1,0.4
		S17.1,212.5,16.8,212.3z"/>
	<path class="st0" d="M22.3,211.7c-0.5-0.3-0.7-0.7-0.7-1.2c0-0.3,0.1-0.6,0.3-0.7c0.2-0.2,0.4-0.3,0.6-0.3c0.3,0,0.6,0.1,1.1,0.4
		c0.5,0.2,0.9,0.4,1.3,0.5s0.9,0.2,1.6,0.2c0.6,0,1.1-0.1,1.5-0.3s0.5-0.5,0.5-0.9c0-0.3-0.1-0.5-0.2-0.6c-0.1-0.2-0.4-0.3-0.8-0.4
		c-0.4-0.1-1-0.3-1.7-0.4c-1.4-0.3-2.4-0.7-2.9-1.2c-0.6-0.5-0.9-1.2-0.9-2.1c0-0.7,0.2-1.3,0.6-1.8s1-1,1.7-1.3s1.5-0.5,2.4-0.5
		c0.6,0,1.3,0.1,1.9,0.2c0.6,0.2,1.1,0.4,1.6,0.7c0.5,0.3,0.7,0.7,0.7,1.2c0,0.3-0.1,0.6-0.3,0.8s-0.4,0.3-0.6,0.3
		c-0.2,0-0.3,0-0.5-0.1s-0.4-0.2-0.6-0.3c-0.4-0.2-0.8-0.4-1.2-0.5c-0.3-0.1-0.7-0.2-1.2-0.2c-0.6,0-1,0.1-1.4,0.3
		c-0.3,0.2-0.5,0.5-0.5,0.9s0.2,0.7,0.5,0.9s1,0.4,2,0.6c1,0.2,1.8,0.5,2.4,0.7c0.6,0.3,1,0.6,1.3,1c0.3,0.4,0.4,0.9,0.4,1.6
		c0,1-0.4,1.9-1.3,2.5s-2,0.9-3.5,0.9C24.7,212.7,23.3,212.4,22.3,211.7z"/>
	<path class="st0" d="M43.4,201.4c0.3,0.2,0.4,0.6,0.4,1v9c0,0.4-0.1,0.7-0.4,1c-0.3,0.2-0.6,0.4-1,0.4s-0.7-0.1-1-0.3
		c-0.2-0.2-0.4-0.5-0.4-0.9V211c-0.4,0.6-0.8,1.1-1.4,1.4c-0.6,0.3-1.3,0.5-2,0.5c-2.8,0-4.2-1.6-4.2-4.7v-5.7c0-0.4,0.1-0.7,0.4-1
		c0.3-0.2,0.6-0.4,1-0.4s0.8,0.1,1.1,0.4c0.3,0.2,0.4,0.6,0.4,1v5.7c0,0.8,0.2,1.4,0.5,1.8c0.3,0.4,0.8,0.6,1.5,0.6
		c0.8,0,1.4-0.3,1.9-0.8s0.7-1.2,0.7-2.1v-5.1c0-0.4,0.1-0.7,0.4-1c0.3-0.2,0.6-0.4,1-0.4C42.8,201,43.2,201.1,43.4,201.4z"/>
	<path class="st0" d="M55.2,202.1c0.8,0.8,1.1,2,1.1,3.5v5.6c0,0.4-0.1,0.7-0.4,1c-0.2,0.2-0.6,0.4-1,0.4s-0.7-0.1-1-0.4
		c-0.3-0.2-0.4-0.6-0.4-1v-0.5c-0.3,0.6-0.7,1.1-1.2,1.4c-0.6,0.3-1.2,0.5-2,0.5s-1.4-0.2-2.1-0.5c-0.6-0.3-1.1-0.7-1.5-1.3
		c-0.4-0.5-0.5-1.1-0.5-1.8c0-0.8,0.2-1.5,0.6-2c0.4-0.5,1.1-0.8,2.1-1s2.3-0.3,3.9-0.3h0.6v-0.5c0-0.8-0.2-1.3-0.5-1.6
		s-0.8-0.5-1.6-0.5c-0.4,0-0.9,0.1-1.4,0.2c-0.5,0.1-1,0.3-1.6,0.6c-0.4,0.2-0.7,0.3-0.9,0.3c-0.3,0-0.5-0.1-0.7-0.3
		s-0.3-0.5-0.3-0.8s0.1-0.5,0.2-0.7c0.1-0.2,0.3-0.4,0.7-0.5c0.5-0.3,1.2-0.5,1.9-0.7s1.5-0.3,2.2-0.3
		C53.3,201,54.5,201.3,55.2,202.1z M52.9,209.9c0.5-0.5,0.7-1.2,0.7-2v-0.5h-0.4c-1,0-1.8,0-2.4,0.1c-0.6,0.1-1,0.3-1.2,0.5
		s-0.4,0.5-0.4,0.9c0,0.5,0.2,0.9,0.5,1.2s0.8,0.5,1.3,0.5C51.8,210.6,52.4,210.4,52.9,209.9z"/>
	<path class="st0" d="M59.7,212.3c-0.3-0.2-0.4-0.6-0.4-1v-13.8c0-0.4,0.1-0.8,0.4-1c0.3-0.2,0.6-0.3,1-0.3s0.8,0.1,1,0.3
		c0.3,0.2,0.4,0.6,0.4,1v13.8c0,0.4-0.1,0.8-0.4,1c-0.3,0.2-0.6,0.4-1,0.4S60,212.5,59.7,212.3z"/>
	<path class="st0" d="M65.3,212.2c-0.3-0.3-0.5-0.7-0.5-1.2s0.2-0.9,0.5-1.2s0.7-0.5,1.2-0.5s0.9,0.2,1.2,0.5
		c0.3,0.3,0.5,0.7,0.5,1.2s-0.2,0.9-0.5,1.2s-0.7,0.5-1.2,0.5S65.6,212.5,65.3,212.2z"/>
</g>
<g>
	<path class="st1" d="M16.6,76.5c0-0.5,0-0.8,0-1.1c2.7,2.7,6.2,4.1,10.8,4.1c5.4,0,10-1.9,13.7-5.9c3.5-3.8,5.4-9.1,5.4-15.5
		s-1.8-11.5-5.1-15.5c-3.3-4-7.8-5.9-13.4-5.9c-2.1,0-4.1,0.5-6.2,1.1c-1.8,0.6-3,1.4-4.1,2.5l0.2-2.4V22.2H3.5v56.3h13.2v-1.9
		C16.7,76.5,16.6,76.5,16.6,76.5z M19.1,64.9c-1.3-1.8-1.9-4-1.9-6.4c0-3.2,0.6-5.6,2.1-7c1.4-1.6,3.2-2.4,5.3-2.4
		c2.2,0,4,0.8,5.3,2.5c1.4,1.8,2.1,4,2.1,6.9c0,2.9-0.8,5.1-2.1,6.7c-1.4,1.6-3.2,2.4-5.3,2.4C22.3,67.5,20.5,66.7,19.1,64.9z"/>
	<path class="st1" d="M70.6,79.6c3.2,0,6.2-0.5,9.4-1.6c3.2-1.1,5.7-2.5,8-4.3l0.3-0.2l-5.4-10.2l-0.5,0.3c-4,2.5-7.5,4-10.7,4
		c-2.2,0-4.1-0.6-5.7-1.8c-1.4-1.1-2.5-2.5-3-4.5h25v-0.5c0.2-1.9,0.3-3.3,0.3-4.3c0-5.7-1.8-10.5-5.1-14.2c-3.3-3.7-8-5.6-13.9-5.6
		c-6.4,0-11.6,2.1-15.5,6.1s-5.7,9.1-5.7,15.3c0,5.7,2.1,10.8,6.1,15C58.2,77.3,63.7,79.6,70.6,79.6z M63.3,52.6
		c1-3.3,2.9-5.1,5.9-5.1c1.6,0,2.7,0.5,3.7,1.6c0.8,1,1.3,2.1,1.4,3.5H63.3z"/>
	<path class="st1" d="M103.1,79.6c2.4,0,4.8-0.5,6.9-1.6c1.8-1,3.3-2.1,4.6-3.5v1.3v2.9h13.2v-25c0-5.1-1.6-9.2-4.9-12.3
		c-3.2-3-7.8-4.5-13.4-4.5c-3.2,0-6.4,0.5-9.6,1.6c-3.2,1.1-5.7,2.2-7.6,3.7l-0.3,0.2L97,52.5l0.5-0.3c3.7-2.4,7.3-3.7,10.7-3.7
		c3.5,0,5.3,1.3,5.3,4v0.3h-0.6c-2.7,0-5.3,0.2-7.8,0.6c-2.5,0.5-4.9,1.1-7.3,2.2c-2.4,1-4.3,2.5-5.7,4.5c-1.4,1.9-2.2,4.3-2.2,6.9
		c0,3.5,1.3,6.5,3.8,9.1C95.9,78.3,99.1,79.6,103.1,79.6z M103.7,65.7c0-1.4,0.8-2.5,2.5-3.2c1.8-0.8,4-1.1,6.4-1.1h0.8V62
		c0,1.6-0.6,3-1.9,4.5c-1.3,1.4-2.7,2.1-4.5,2.1c-1.1,0-1.9-0.3-2.5-0.8C104,67.1,103.7,66.5,103.7,65.7z"/>
	<path class="st1" d="M147.7,62.7c0-3.7,1-6.5,2.7-8.6s4.5-3,7.8-3c1.6,0,2.2,0.2,2.5,0.2l0.6,0.2v-14h-0.3
		c-0.6-0.2-1.1-0.2-1.6-0.2c-3,0-5.7,1-8.1,3c-1.8,1.4-3.2,3.2-4.1,5.1V38h-13.7v40.8h14.3V62.7H147.7z"/>
	<path class="st1" d="M21.5,92.2c-2.1,0-3.9,0.7-5.6,2.1c-1.2,1-2.2,2.2-2.8,3.5v-5H3.7v27.9h9.8v-10.9c0-2.5,0.7-4.5,1.9-5.9
		s3.1-2.1,5.3-2.1c1.1,0,1.5,0.1,1.7,0.1l0.4,0.1v-9.7h-0.2C22.2,92.2,21.8,92.2,21.5,92.2z"/>
	<path class="st1" d="M50.6,108.5c0.1-1.3,0.2-2.3,0.2-2.9c0-3.9-1.2-7.2-3.5-9.7S41.9,92,37.9,92c-4.4,0-8,1.4-10.6,4.1
		c-2.6,2.7-3.9,6.2-3.9,10.5c0,3.9,1.4,7.4,4.1,10.3c2.7,2.8,6.5,4.4,11.2,4.4c2.2,0,4.3-0.3,6.4-1.1c2.2-0.8,3.9-1.7,5.5-2.9
		l0.2-0.1l-3.7-7l-0.3,0.2c-2.7,1.7-5.1,2.7-7.3,2.7c-1.5,0-2.8-0.4-3.9-1.2c-1-0.8-1.7-1.7-2.1-3.1h17.1V108.5z M37.8,99.4
		c1.1,0,1.9,0.3,2.5,1.1c0.5,0.7,0.9,1.4,1,2.4h-7.4C34.4,100.5,35.7,99.4,37.8,99.4z"/>
	<path class="st1" d="M70.6,92.1c-3.4,0-6.1,1.1-8.1,3.3l0.1-1v-1.6h-8.9v38.5h9.8v-10.6c0-0.7,0-1.2,0-1.7c2,1.5,4.3,2.3,6.7,2.3
		c3.7,0,6.9-1.3,9.4-4c2.4-2.6,3.7-6.2,3.7-10.6c0-4.4-1.2-7.9-3.5-10.6C77.5,93.4,74.4,92.1,70.6,92.1z M68.3,100.4
		c1.5,0,2.7,0.5,3.6,1.7c1,1.2,1.4,2.7,1.4,4.7s-0.5,3.5-1.4,4.6c-1,1.1-2.2,1.6-3.6,1.6c-1.6,0-2.8-0.5-3.7-1.9
		c-0.9-1.2-1.3-2.7-1.3-4.4c0-2.2,0.4-3.8,1.4-4.8C65.7,101,66.9,100.4,68.3,100.4z"/>
	<path class="st1" d="M103.6,105.1c0,2.1-0.4,3.8-1.4,5.2c-1,1.3-2.3,2-4,2c-1.7,0-2.6-1.1-2.6-3.3V92.7h-9.8v18
		c0,3.7,0.9,6.4,2.7,8.1s4.3,2.5,7.3,2.5c1.9,0,3.6-0.4,5.2-1.3c1.3-0.7,2.3-1.6,3.1-2.6v0.7v2.7h9.4v-28h-9.8V105.1z"/>
	<path class="st1" d="M134.4,92.1c-1.4,0-2.8,0.3-4.3,0.8c-1.2,0.4-2.1,1-2.8,1.7l0.1-1.6V82.1h-9.8v38.5h9.1v-1.3
		c0-0.3,0-0.5,0-0.8c1.9,1.9,4.3,2.8,7.4,2.8c3.7,0,6.9-1.3,9.4-4c2.4-2.6,3.7-6.2,3.7-10.6s-1.2-7.9-3.5-10.6
		C141.3,93.4,138.3,92.1,134.4,92.1z M137.3,106.9c0,2-0.5,3.5-1.4,4.6c-1,1.1-2.2,1.6-3.6,1.6c-1.6,0-2.8-0.5-3.7-1.9
		c-0.9-1.2-1.3-2.7-1.3-4.4c0-2.2,0.4-3.8,1.4-4.8c1-1.1,2.2-1.6,3.6-1.6c1.5,0,2.7,0.5,3.6,1.7
		C136.7,103.4,137.3,104.9,137.3,106.9z"/>
	<path class="st1" d="M161.8,112.2c-0.9,0-1.5-0.2-1.7-0.7c-0.3-0.4-0.4-1.3-0.4-2.6V82.1h-9.8v28.1c0,2.2,0.3,4.1,0.9,5.6
		c0.5,1.5,1.4,2.6,2.5,3.4c1.1,0.7,2.2,1.2,3.3,1.4c1.1,0.2,2.3,0.3,3.7,0.3c0.5,0,1.5,0,2.8-0.1h0.3v-8.6H163
		C162.7,112.2,162.3,112.2,161.8,112.2z"/>
	<rect x="165.6" y="92.7" class="st1" width="9.8" height="27.9"/>
	<rect x="168" y="82.1" class="st1" width="9.6" height="7.7"/>
	<path class="st1" d="M202.2,109.6l-0.3,0.2c-2.5,2.2-4.9,3.2-7.3,3.2c-2.1,0-3.7-0.7-4.8-2s-1.7-2.8-1.7-4.6c0-1.6,0.5-3.2,1.6-4.4
		c1.1-1.2,2.6-1.9,4.6-1.9c2.3,0,4.5,0.9,6.2,2.6l0.3,0.2l4.3-6.7l-0.1-0.2c-1.3-1.4-2.9-2.5-5-3.2c-2-0.7-4-1.1-6.1-1.1
		c-4.7,0-8.5,1.4-11.3,4.4c-2.8,2.8-4.3,6.3-4.3,10.3c0,4,1.4,7.5,4.3,10.4c2.8,2.8,6.7,4.3,11.3,4.3c2.3,0,4.6-0.4,6.7-1.2
		c2.2-0.9,3.9-2,5.2-3.4l0.1-0.1L202.2,109.6z"/>
	<path class="st1" d="M208.5,113c0-1.7,0.5-3.2,1.4-4.5c1-1.3,2.2-2.3,3.8-2.9c1.6-0.7,3.2-1.2,4.9-1.5c1.7-0.3,3.5-0.5,5.3-0.5h0.8
		v-0.5c0-2-1.3-3-3.9-3c-2.4,0-4.9,0.9-7.5,2.6l-3.2-6.5c1.2-1,3-1.8,5.1-2.5c2.2-0.7,4.3-1.1,6.5-1.1c3.8,0,6.8,1,9,3
		c2.2,2,3.3,4.7,3.3,8.2v16.8h-8.4v-1.6l0.1-1.7h-0.1c-0.9,1.2-2.1,2.2-3.5,2.9c-1.5,0.7-3,1.1-4.6,1.1c-2.6,0-4.8-0.8-6.4-2.4
		C209.4,117.4,208.5,115.4,208.5,113z M217.6,112.2c0,0.7,0.2,1.2,0.7,1.7c0.5,0.4,1.1,0.7,1.9,0.7c1.3,0,2.4-0.5,3.3-1.5
		c0.9-1,1.4-2.1,1.4-3.3v-0.7H224c-1.7,0-3.2,0.3-4.5,0.8C218.3,110.2,217.6,111,217.6,112.2z"/>
	<path class="st1" d="M238.1,120.7V93.4h8.8v2.4l-0.1,1.7h0.1c1.9-3.2,4.8-4.7,8.7-4.7c6.6,0,9.8,3.4,9.8,10.3v17.8h-9.2v-16.1
		c0-2.4-1-3.6-3-3.6c-2,0-3.4,0.7-4.4,2.1c-1,1.4-1.5,3.1-1.5,5.2v12.4H238.1z"/>
</g>
</svg>
