<?xml version="1.0" encoding="utf-8"?>
<!-- Generator: Adobe Illustrator 25.3.1, SVG Export Plug-In . SVG Version: 6.00 Build 0)  -->
<svg version="1.1" id="Capa_1" xmlns="http://www.w3.org/2000/svg" xmlns:xlink="http://www.w3.org/1999/xlink" x="0px" y="0px"
	 width="776px" height="380.5px" viewBox="0 0 776 380.5" style="enable-background:new 0 0 776 380.5;" xml:space="preserve">
<g>
	<path d="M0.4,260.5l8.8-12.7c2.2,1.9,4.8,3.6,7.8,5s5.9,2.1,8.7,2.1c2.2,0,4-0.4,5.2-1.3c1.2-0.9,1.9-2,1.9-3.4
		c0-1.5-0.8-2.8-2.3-4.1c-1.5-1.2-3.4-2.3-5.6-3.1s-4.7-1.9-7.3-3.2s-5-2.7-7.3-4.2c-2.2-1.5-4.1-3.5-5.6-6.1s-2.3-5.6-2.3-9
		c0-6.3,2.3-11.3,6.9-15.2s10.6-5.8,17.9-5.8c8.5,0,15.6,2.6,21.5,7.8l-7,13.7c-2-1.7-4.3-3.2-7.1-4.3c-2.7-1.1-5.4-1.7-8-1.7
		c-2.4,0-4.2,0.4-5.5,1.3c-1.2,0.9-1.8,2.1-1.8,3.5c0,1.5,0.7,2.8,2.3,4c1.5,1.2,3.4,2.2,5.6,3s4.7,1.8,7.3,3.1c2.6,1.2,5,2.6,7.3,4
		c2.2,1.4,4.1,3.4,5.6,6s2.3,5.6,2.3,9c0,6.1-2.2,11.1-6.5,15.2s-10.3,6.1-17.9,6.1c-4.6,0-9.1-0.8-13.5-2.5
		C7.4,266.1,3.6,263.7,0.4,260.5z"/>
	<path d="M68.2,263.1c-5.4-4.8-8-10.9-8-18.5s2.7-13.8,8-18.7c5.4-4.9,12-7.3,19.8-7.3c7.9,0,14.6,2.4,20,7.2s8.1,11.1,8.1,18.7
		c0,7.6-2.7,13.8-8,18.5c-5.4,4.8-12,7.1-19.9,7.1C80.2,270.3,73.5,267.9,68.2,263.1z M76.9,244.6c0,3.6,1.1,6.5,3.3,8.6
		c2.2,2.2,4.8,3.3,8,3.3c3.1,0,5.8-1.1,8-3.3s3.3-5,3.3-8.6s-1.1-6.6-3.3-8.8c-2.2-2.2-4.8-3.4-8-3.4c-3.1,0-5.8,1.1-8,3.4
		C78,238,76.9,241,76.9,244.6z"/>
	<path d="M129.2,269.1v-68.5h16.6v19.1l-0.2,4.2h0.2c1.4-1.6,3.3-2.9,5.8-3.8c2.5-1,5-1.4,7.5-1.4c6.7,0,12.1,2.4,16.1,7.1
		c4.1,4.8,6.1,11,6.1,18.7s-2.2,14-6.5,18.7s-9.8,7.1-16.5,7.1c-5.9,0-10.5-1.9-13.8-5.8h-0.2c0.1,0.8,0.1,1.8,0.1,2.8v1.9h-15.2
		V269.1z M145.3,244.8c0,3.2,0.8,6,2.5,8.3s4.1,3.5,7.1,3.5c2.7,0,5-1.1,6.9-3.2c1.9-2.1,2.8-5,2.8-8.6s-0.9-6.6-2.7-8.8
		s-4.1-3.4-7-3.4c-2.7,0-5,1-6.9,3.1C146.2,237.7,145.3,240.8,145.3,244.8z"/>
	<path d="M194.6,269.1v-49.3h15.9v8.3l-0.2,3.1h0.2c1.1-3.4,3.1-6.4,6-8.7c2.9-2.4,6.1-3.5,9.7-3.5c0.5,0,1.1,0.1,1.9,0.2v16.3
		c-0.6-0.2-1.7-0.3-3.4-0.3c-4.5,0-7.9,1.3-10.2,3.9c-2.3,2.6-3.4,6.3-3.4,10.9v19.2h-16.5V269.1z"/>
	<path d="M237.4,244.4c0-7.4,2.3-13.6,7-18.4c4.7-4.9,10.9-7.3,18.7-7.3c7.1,0,12.7,2.2,16.7,6.7c4.1,4.4,6.1,10.2,6.1,17.2
		c0,1.1-0.1,2.9-0.4,5.2h-31.1c0.6,2.9,1.9,5.1,4.1,6.6c2.1,1.5,4.6,2.3,7.4,2.3c4.1,0,8.6-1.7,13.6-5l6.1,11.6
		c-2.6,2.2-5.8,4-9.6,5.3c-3.8,1.3-7.6,1.9-11.4,1.9c-8.4,0-15-2.6-19.8-7.7C239.9,257.5,237.4,251.4,237.4,244.4z M254.8,238.2
		h14.8c0-2.1-0.6-3.9-1.9-5.3c-1.2-1.4-2.9-2.1-4.9-2.1C258.5,230.8,255.9,233.3,254.8,238.2z"/>
	<path d="M3,362.6v-68.5h17l19,32c0.8,1.3,1.6,3,2.6,4.9s1.7,3.6,2.3,4.8l0.9,1.9H45c-0.5-4.9-0.8-8.8-0.8-11.7v-32H61v68.5H44
		l-19-31.8c-0.8-1.3-1.6-3-2.6-4.9s-1.7-3.6-2.3-4.8l-0.9-1.9H19c0.5,4.9,0.8,8.8,0.8,11.7v31.9H3V362.6z"/>
	<path d="M82.6,356.6c-5.4-4.8-8-10.9-8-18.5s2.7-13.8,8-18.7c5.4-4.9,12-7.3,19.8-7.3c7.9,0,14.6,2.4,20,7.2
		c5.4,4.8,8.1,11.1,8.1,18.7s-2.7,13.8-8,18.5c-5.4,4.8-12,7.1-19.9,7.1C94.7,363.7,88,361.4,82.6,356.6z M91.4,338.1
		c0,3.6,1.1,6.5,3.3,8.6c2.2,2.2,4.8,3.3,8,3.3c3.1,0,5.8-1.1,8-3.3c2.2-2.2,3.3-5,3.3-8.6s-1.1-6.6-3.3-8.8c-2.2-2.2-4.8-3.4-8-3.4
		c-3.1,0-5.8,1.1-8,3.4C92.5,331.5,91.4,334.4,91.4,338.1z"/>
	<path d="M139.5,356.5l7.1-10.8c4,3.3,8.4,5,13.4,5c3,0,4.5-0.9,4.5-2.6c0-1-0.8-1.8-2.4-2.5c-1.6-0.7-3.5-1.5-5.7-2.3
		s-4.5-1.7-6.8-2.8c-2.3-1.1-4.2-2.8-5.8-4.9c-1.6-2.2-2.4-4.8-2.4-7.8c0-4.9,1.9-8.7,5.8-11.5c3.9-2.7,8.8-4.1,14.7-4.1
		c7.1,0,13,1.9,17.6,5.7l-5.7,11.5c-1.4-1.1-3.3-2.1-5.7-2.9s-4.6-1.1-6.8-1.1c-3.1,0-4.6,0.8-4.6,2.4c0,0.8,0.6,1.5,1.7,2.2
		c1.1,0.7,2.6,1.2,4.3,1.7s3.5,1.1,5.6,2c2,0.9,3.9,1.8,5.6,2.9c1.7,1.1,3.1,2.6,4.3,4.5c1.1,1.9,1.7,4.2,1.7,6.7
		c0,4.7-1.8,8.6-5.5,11.6s-8.6,4.5-14.8,4.5C151.7,363.7,145,361.3,139.5,356.5z"/>
	<path d="M198.5,356.6c-5.4-4.8-8-10.9-8-18.5s2.7-13.8,8-18.7c5.4-4.9,12-7.3,19.8-7.3c7.9,0,14.6,2.4,20,7.2
		c5.4,4.8,8.1,11.1,8.1,18.7s-2.7,13.8-8,18.5c-5.4,4.8-12,7.1-19.9,7.1C210.5,363.7,203.8,361.4,198.5,356.6z M207.2,338.1
		c0,3.6,1.1,6.5,3.3,8.6c2.2,2.2,4.8,3.3,8,3.3c3.1,0,5.8-1.1,8-3.3c2.2-2.2,3.3-5,3.3-8.6s-1.1-6.6-3.3-8.8c-2.2-2.2-4.8-3.4-8-3.4
		c-3.1,0-5.8,1.1-8,3.4C208.3,331.5,207.2,334.4,207.2,338.1z"/>
	<path d="M262,344.4V327h-6.3v-12.9h6.8v-14.2h16.1v14.2h10.3V327h-10.3v15.1c0,4.2,2.9,6.3,8.8,6.3c0.8,0,1.5,0,2.2-0.1v14.4
		c-2.5,0.2-4,0.3-4.5,0.3c-1.5,0-3-0.1-4.5-0.2c-1.4-0.2-3.1-0.5-5-0.9s-3.6-1.1-5.1-2s-2.9-2-4.3-3.3c-1.3-1.3-2.4-3-3.2-5.1
		C262.4,349.4,262,347,262,344.4z"/>
	<path d="M303.3,362.6v-49.3h15.9v8.3l-0.2,3.1h0.2c1.1-3.4,3.1-6.4,6-8.7c2.9-2.4,6.1-3.5,9.7-3.5c0.5,0,1.1,0.1,1.9,0.2V329
		c-0.6-0.2-1.7-0.3-3.4-0.3c-4.5,0-7.9,1.3-10.2,3.9c-2.3,2.6-3.4,6.3-3.4,10.9v19.2h-16.5V362.6z"/>
	<path d="M353.7,356.6c-5.4-4.8-8-10.9-8-18.5s2.7-13.8,8-18.7c5.4-4.9,12-7.3,19.8-7.3c7.9,0,14.6,2.4,20,7.2
		c5.4,4.8,8.1,11.1,8.1,18.7s-2.7,13.8-8,18.5c-5.4,4.8-12,7.1-19.9,7.1C365.7,363.7,359.1,361.4,353.7,356.6z M362.5,338.1
		c0,3.6,1.1,6.5,3.3,8.6c2.2,2.2,4.8,3.3,8,3.3c3.1,0,5.8-1.1,8-3.3c2.2-2.2,3.3-5,3.3-8.6s-1.1-6.6-3.3-8.8c-2.2-2.2-4.8-3.4-8-3.4
		c-3.1,0-5.8,1.1-8,3.4C363.5,331.5,362.5,334.4,362.5,338.1z"/>
	<path d="M410.6,356.5l7.1-10.8c4,3.3,8.4,5,13.4,5c3,0,4.5-0.9,4.5-2.6c0-1-0.8-1.8-2.4-2.5s-3.5-1.5-5.7-2.3s-4.5-1.7-6.8-2.8
		c-2.3-1.1-4.2-2.8-5.8-4.9c-1.6-2.2-2.4-4.8-2.4-7.8c0-4.9,1.9-8.7,5.8-11.5c3.9-2.7,8.8-4.1,14.7-4.1c7.1,0,13,1.9,17.6,5.7
		l-5.7,11.5c-1.4-1.1-3.3-2.1-5.7-2.9c-2.4-0.8-4.6-1.1-6.8-1.1c-3.1,0-4.6,0.8-4.6,2.4c0,0.8,0.6,1.5,1.7,2.2s2.6,1.2,4.3,1.7
		c1.7,0.5,3.5,1.1,5.6,2c2,0.9,3.9,1.8,5.6,2.9s3.1,2.6,4.3,4.5c1.1,1.9,1.7,4.2,1.7,6.7c0,4.7-1.8,8.6-5.5,11.6s-8.6,4.5-14.8,4.5
		C422.8,363.7,416.1,361.3,410.6,356.5z"/>
</g>
<path d="M-354.4,306.9c0,0.1,0,0.2,0,0.2c-0.1,0-0.1,0-0.2,0C-354.6,307.1-354.5,307-354.4,306.9z"/>
<path d="M-363.2,305.2c0.5-0.2,1-0.5,1.4-0.8c0,0.6-0.1,1.1-0.1,1.7c-0.5-0.1-1-0.2-1.6-0.2C-363.4,305.7-363.3,305.5-363.2,305.2z"
	/>
</svg>
