<?xml version="1.0" encoding="utf-8"?>
<!-- Generator: Adobe Illustrator 25.3.1, SVG Export Plug-In . SVG Version: 6.00 Build 0)  -->
<svg version="1.1" id="Capa_1" xmlns="http://www.w3.org/2000/svg" xmlns:xlink="http://www.w3.org/1999/xlink" x="0px" y="0px"
	 width="33.7px" height="30px" viewBox="0 0 33.7 30" style="enable-background:new 0 0 33.7 30;" xml:space="preserve">
<style type="text/css">
	.st0{fill:#E42320;}
	.st1{fill:#FFFFFF;}
	.st2{fill:#020202;}
</style>
<g>
	<g>
		<ellipse class="st0" cx="14.9" cy="12.5" rx="12.4" ry="11.5"/>
		<g>
			<path class="st1" d="M29.3,10.4c0.1-0.2,0.2-0.3,0.3-0.5c-0.6,0-1.3,0-1.9,0.2c-0.1-1.3-1-4.8-1-4.8l-0.5-0.7c0,0,0,0,0,0
				c0,0,0,0,0,0l0-0.1c0,0,0,0,0,0c-1.9-0.4-3.9-0.9-5.8-1.3c-0.2-0.6-0.9-0.8-1.5-0.8c-0.6,0-1.3-0.1-1.8,0.3
				c-0.2,0.1-0.2,0.5-0.5,0.5c-2.6,0.5-5.3,1.3-7.2,3.2C9.1,6.7,8.8,6.8,8.9,7.1C9,8.4,9.2,9.7,9.3,11c-1.8,0.5-3.7,1-5.5,1.5
				c-0.1,0.7-0.3,1.5-0.4,2.2c0.7-0.1,1.3-0.1,2-0.2c-0.1,0.7,0.1,1.4,0.5,2c0.1-0.1,0.2-0.2,0.3-0.3c0.4,0.7,1.2,1.2,2,1.3
				c0.1,1.3,0.1,2.8,1.3,3.6c0,1.3,0.4,2.5,1.1,3.5c0.1-0.1,0.2-0.2,0.3-0.4c0.4,1.1,1.2,2,2,2.7c0-0.1,0.1-0.3,0.1-0.4
				c0.6,0.3,1.2,0.6,1.6,1.1c0.8,0.8,1.9,1.4,3,1.6c0,0,0.1,0.1,0.1,0.1c0.4,0.1,0.9,0.2,1.3,0.1c0.4,0,0.8-0.2,1.2-0.4
				c0.7-0.4,1.4-0.9,2-1.3c0,0.1,0,0.2,0,0.3c0.2-0.1,0.3-0.2,0.4-0.4c0.1-0.1,0.2-0.1,0.2,0c0.1-0.1,0.2-0.2,0.4-0.3
				c0.5-0.3,0.9-0.7,1.3-1.1c0,0.1,0.1,0.3,0.1,0.4c0.8-0.7,1.4-1.6,1.9-2.5c0.1,0.1,0.3,0.2,0.3,0.3c0.8-1,0.9-2.4,1-3.7
				c0.9-1.2,0.7-2.9,0.8-4.4c0.1-0.1,0.2-0.3,0.3-0.4c0,0,0,0,0,0c0,0,0.1,0,0.1,0c0,0-0.1-0.1-0.1-0.1c0.5-0.1,1.1-0.4,1.4-0.8
				c0.5-0.6,0.6-1.4,0.6-2.2c0.1,0,0.3,0,0.4,0C30.9,11.9,30.4,10.7,29.3,10.4z"/>
			<g>
				<g>
					<path class="st2" d="M22.7,25.2c0-0.1-0.1-0.2-0.1-0.3c0,0,0,0,0,0c0.2-0.3,0.3-0.6,0.4-0.9c0.1-0.1,0.1-0.3,0.2-0.5
						c0.1-0.5,0.2-1,0.1-1.7c0-0.2-0.1-0.4-0.1-0.5c0-0.1-0.1-0.3-0.1-0.4c0-0.1-0.1-0.2-0.2-0.3c0,0.1,0.1,0.2,0.1,0.4
						c0.1,0.3,0.2,0.7,0.2,1c0,0.2,0,0.3,0,0.5c0,0.2,0,0.4-0.1,0.6c0-0.1,0.1-0.1,0.1-0.2c-0.2,0.7-0.3,1.8-0.7,2
						c0-0.1,0-0.1-0.1-0.2c0,0.3,0,0.5,0.1,0.8C22.6,25.3,22.6,25.3,22.7,25.2z"/>
					<path d="M22.5,25.4L22.5,25.4c0-0.2,0-0.3,0-0.4c0-0.1,0-0.3,0-0.4l0.1,0c0,0,0,0.1,0,0.1c0.2-0.2,0.4-0.9,0.5-1.5
						c0-0.1,0-0.1,0-0.2c0,0,0,0,0,0L23,23c0.1-0.1,0.1-0.4,0.1-0.5l0,0c0-0.1,0-0.3,0-0.5c0-0.3-0.1-0.7-0.2-1
						c0-0.1-0.1-0.3-0.1-0.4l0-0.1l0.1,0.1c0.1,0,0.1,0.1,0.2,0.3c0,0.1,0,0.2,0.1,0.2c0,0.1,0,0.1,0,0.2c0,0.2,0.1,0.3,0.1,0.5
						c0.1,0.6,0.1,1.2-0.1,1.8c0,0.1-0.1,0.3-0.2,0.5c-0.1,0.3-0.2,0.5-0.3,0.7c0,0.1-0.1,0.2-0.1,0.2c0,0.1,0.1,0.2,0.1,0.3l0,0
						l0,0C22.6,25.3,22.6,25.3,22.5,25.4L22.5,25.4z M22.6,25c0,0.1,0,0.1,0,0.2c0,0,0,0,0,0C22.6,25.1,22.6,25.1,22.6,25z
						 M22.5,24.9C22.5,24.9,22.5,24.9,22.5,24.9L22.5,24.9L22.5,24.9z M22.5,24.8C22.5,24.8,22.5,24.8,22.5,24.8
						C22.6,24.8,22.6,24.8,22.5,24.8C22.6,24.8,22.6,24.8,22.5,24.8L22.5,24.8z M23.3,22.6l0,0.1c0,0.1-0.1,0.3-0.1,0.5
						C23.1,23.5,23,23.8,23,24c0,0,0,0,0-0.1c0.1-0.2,0.1-0.3,0.2-0.5C23.2,23.2,23.3,22.9,23.3,22.6z M23.1,21.4
						c0,0.2,0.1,0.4,0.1,0.5c0,0.2,0,0.4,0,0.5l0,0c0,0.1,0,0.2,0,0.3l0.1-0.2c0-0.2,0-0.5-0.1-0.8C23.2,21.6,23.1,21.5,23.1,21.4z"
						/>
				</g>
				<g>
					<path class="st2" d="M15.6,25.5c0-0.1,0-0.2,0.1-0.3c0,0,0,0,0,0c-0.2-0.3-0.4-0.6-0.5-0.9C15,24.1,15,24,14.9,23.8
						c-0.2-0.5-0.3-1-0.2-1.7c0-0.2,0.1-0.4,0.1-0.5c0-0.1,0-0.3,0.1-0.4c0-0.1,0.1-0.3,0.1-0.3c0,0.1-0.1,0.2-0.1,0.4
						c-0.1,0.3-0.1,0.7-0.1,1c0,0.2,0,0.3,0,0.5c0,0.2,0.1,0.4,0.1,0.5c-0.1-0.1-0.1-0.1-0.2-0.2c0.2,0.7,0.5,1.8,0.8,2
						c0-0.1,0-0.1,0-0.2c0,0.3,0,0.5,0,0.8C15.7,25.6,15.6,25.5,15.6,25.5z"/>
					<path d="M15.7,25.7L15.7,25.7c-0.1-0.1-0.1-0.1-0.2-0.1l0,0l0,0c0-0.1,0-0.2,0.1-0.3c0-0.1-0.1-0.1-0.1-0.2
						c-0.1-0.2-0.3-0.4-0.4-0.7c-0.1-0.2-0.1-0.3-0.2-0.4c-0.2-0.5-0.3-1.1-0.2-1.7c0-0.2,0.1-0.4,0.1-0.5c0-0.1,0-0.1,0-0.2
						c0-0.1,0-0.2,0-0.2c0-0.2,0.1-0.3,0.2-0.3l0.1-0.1l0,0.1c0,0.1-0.1,0.2-0.1,0.4c-0.1,0.3-0.1,0.7-0.1,1c0,0.2,0,0.4,0,0.5l0,0
						c0,0.2,0.1,0.4,0.1,0.5l-0.1,0c0,0,0,0,0,0c0,0.1,0,0.1,0.1,0.2c0.2,0.6,0.4,1.3,0.6,1.5c0-0.1,0-0.1,0-0.2l0.1,0
						c0,0.1,0,0.3,0,0.4C15.7,25.4,15.7,25.5,15.7,25.7L15.7,25.7z M15.6,25.5C15.6,25.5,15.6,25.5,15.6,25.5c0,0,0-0.1,0-0.2
						C15.6,25.3,15.6,25.4,15.6,25.5z M15.7,25.2L15.7,25.2C15.7,25.2,15.7,25.2,15.7,25.2L15.7,25.2z M15.6,25
						C15.6,25.1,15.6,25.1,15.6,25C15.7,25.1,15.7,25.1,15.6,25L15.6,25C15.6,25.1,15.6,25.1,15.6,25z M14.8,23
						c0,0.3,0.1,0.6,0.2,0.8c0.1,0.1,0.1,0.3,0.2,0.4c0,0,0,0.1,0,0.1c-0.1-0.2-0.2-0.5-0.2-0.8c0-0.2-0.1-0.3-0.1-0.4L14.8,23z
						 M14.8,22.9l0.1,0.2c0-0.1,0-0.2,0-0.3l0,0c0-0.2,0-0.3,0-0.5c0-0.2,0-0.4,0-0.5c0,0.1,0,0.3-0.1,0.4
						C14.7,22.4,14.7,22.6,14.8,22.9z"/>
				</g>
				<g>
					<path d="M20.1,14.8c0.4,0,0.8-0.1,1.2-0.2c0,0-0.1,0-0.1,0.1l0,0c-0.2,0.1-0.4,0.1-0.6,0.2c1.1-0.2,2.1-0.4,3.2-0.6
						c0.5-0.1,1-0.1,1.4-0.1c0.1-0.3,0-0.7-0.1-1c-0.2,0.1-0.5,0.2-0.7,0.2c0.2-0.1,0.4-0.2,0.7-0.4c0,0,0-0.1-0.1-0.1
						c-0.1,0-0.2,0-0.3,0.1c-1.4,0.5-2.9,1-4.4,1.3c-0.1,0-0.2,0-0.2,0C20,14.6,20,14.7,20.1,14.8z"/>
				</g>
				<g>
					<path d="M16.9,22.8c0.9-0.1,1.9-0.1,2.8-0.3c0.4-0.1,0.9-0.1,1.2-0.2c0.3-0.1,0.3-0.3,0.2-0.4c-0.1-0.2-0.8-0.1-0.7,0.1
						c0.1,0.1,0.1,0.1-0.1,0.1c-0.2,0-0.3,0.1-0.5,0.1c-0.3,0-0.7,0.1-1,0.1c-0.7,0.1-1.4,0.1-2,0.2C16.5,22.5,16.5,22.8,16.9,22.8z
						"/>
				</g>
				<g>
					<path d="M18.2,23.4c0.4-0.1,0.8-0.2,1.3-0.1c0.2-0.1,0.4-0.1,0.5-0.2c-0.7,0-1.6-0.1-2.2,0.4C17.9,23.4,18.1,23.4,18.2,23.4z"
						/>
				</g>
				<g>
					<path d="M18.2,24c0.1,0,0.1,0.1,0.2,0.1c-0.2-0.1-0.3,0-0.5,0c0,0,0,0,0,0c0,0,0,0.1,0.1,0.1c0,0,0,0,0,0c0,0,0,0,0,0
						c0.1,0.1,0.1,0.3,0.1,0.4c0,0,0.1,0,0.1,0c0.4,0.1,0.5,0.3,0.5,0.5c0.1,0,0.1,0.1,0.1,0.2c0.1,0,0.1,0,0.2,0
						c0-0.2,0.1-0.4,0.2-0.6c0,0.1,0.2,0.2,0.2,0.3c0.1-0.3,0-0.6,0-0.8c0.1,0.1,0.3,0.2,0.6,0.2C19.6,24.3,18.9,24.1,18.2,24z"/>
				</g>
				<g>
					<path d="M12.2,17.3c0.3,0.6,0.5,1.3,1.1,1.6c-0.1-0.2-0.3-0.4-0.4-0.7c0.2,0.2,0.4,0.5,0.7,0.6c-0.2-0.3-0.4-0.6-0.5-0.9
						c0.2,0.2,0.4,0.6,0.6,0.8c-0.1-0.2-0.2-0.4-0.3-0.6c0.7,0.5,1,0.1,1.7,0c0,0,0,0.1-0.1,0.1c0,0,0.1,0,0.2,0
						c0.1,0,0.1,0,0.2,0.1c0,0,0.1,0,0.1,0c0,0,0,0,0,0c0.2-0.4,0.2-0.8,0.2-1.2c0,0-0.1,0-0.1,0c-0.1,0-0.2,0-0.3-0.1
						c-0.2,0-0.3-0.1-0.5-0.1c-1.2-0.3-3.1-1.2-3.6,0.7C11.6,17.1,12,16.8,12.2,17.3z M12.9,16.7c0.1,0,0.2,0,0.4,0
						c0.4,0.1,0.9,0.3,1.3,0.4c0.1,0,0.3,0.1,0.4,0.2c0,0.1-0.1,0.2-0.2,0.2l0,0c-0.3,0.1-0.7,0.1-1.1,0c-0.3-0.1-0.6-0.3-0.8-0.6
						C12.8,17,12.8,16.8,12.9,16.7z"/>
				</g>
				<g>
					<path d="M25.8,17.2c-0.5-1.9-2.4-1.1-3.6-0.7c-0.2,0.1-0.3,0.1-0.5,0.1c-0.1,0.1-0.1,0.1-0.3,0.1c-0.1,0-0.1,0-0.1,0
						c0,0.4,0.1,0.8,0.2,1.2c0,0,0,0,0,0c0,0,0.1,0,0.1,0c0.1,0,0.1-0.1,0.2-0.1c0.1,0,0.1,0,0.2,0c0,0,0-0.1-0.1-0.1
						c0.7,0.2,1,0.6,1.7,0c-0.1,0.2-0.2,0.4-0.3,0.6c0.3-0.2,0.4-0.5,0.6-0.8c-0.1,0.4-0.3,0.6-0.6,0.9c0.3-0.1,0.5-0.4,0.7-0.6
						c-0.1,0.3-0.3,0.5-0.4,0.7c0.6-0.3,0.9-0.9,1.1-1.6C25.1,16.7,25.5,17,25.8,17.2z M24.2,16.9c-0.2,0.3-0.5,0.5-0.8,0.6
						c-0.3,0.1-0.7,0.1-1.1,0l0,0c-0.1-0.1-0.2-0.1-0.2-0.2c0.1-0.1,0.2-0.2,0.4-0.2c0.4-0.1,0.9-0.3,1.3-0.4c0.1,0,0.2,0,0.4,0
						C24.3,16.7,24.3,16.9,24.2,16.9z"/>
				</g>
				<g>
					<path d="M15.9,17.9c0,0.1,0,0.1,0,0.2c0,0,0.1,0,0.1,0c0,0,0,0,0,0C16,18.1,16,18,15.9,17.9z"/>
				</g>
				<g>
					<path d="M22.3,9.2c-0.2,0-0.5-0.2-0.6,0.1c-0.4,0.3,0.2,0.9,0.5,0.6C22.4,9.7,22.3,9.4,22.3,9.2z"/>
				</g>
				<g>
					<path d="M20.9,9c-0.3-0.1-0.6,0.3-0.4,0.6c0.1,0.3,0.6,0.3,0.7-0.1C21.3,9.4,21,9.1,20.9,9z"/>
				</g>
				<g>
					<path d="M19.9,9.1c-0.3-0.4-0.9,0.3-0.5,0.6c0.2,0.2,0.4,0.1,0.6,0.1C20,9.5,20.1,9.3,19.9,9.1z"/>
				</g>
				<g>
					<path d="M16.9,13.9c-0.4,0-0.8,0-1.2,0c0,0,0.1,0,0.1,0l0,0c0.2,0.1,0.4,0.1,0.7,0.1c-1.1-0.1-2.1-0.2-3.2-0.2
						c-0.5,0-1,0-1.4,0.1c-0.2-0.3-0.1-0.6,0-1c0.2,0.1,0.5,0.1,0.7,0.1c-0.2-0.1-0.5-0.2-0.7-0.3c0,0,0-0.1,0.1-0.1
						c0.1,0,0.2,0,0.3,0.1c1.5,0.3,2.9,0.7,4.5,0.8c0.1,0,0.2,0,0.2,0C17,13.7,17,13.8,16.9,13.9z"/>
				</g>
				<g>
					<path d="M20.8,19.6C20.8,19.6,20.8,19.6,20.8,19.6C20.8,19.6,20.8,19.6,20.8,19.6c0-0.2-0.1-0.5-0.4-0.5c0,0,0,0,0,0
						c-0.5-0.3-1.9-1-3.5,0c0,0-0.1,0-0.1,0c-0.1,0.1-0.1,0.1-0.2,0.2c-0.2,0.1-0.3,0.2-0.4,0.4c0,0,0,0,0,0c0,0,0,0,0,0.1
						c0,0,0,0.1,0,0.1c0,0,0,0,0.1-0.1c0,0,0,0.1,0,0.1c0.5,0.7,1.3,1.3,2.1,1.5l0,0c0,0,0.1,0,0.1,0l0,0c0,0,0,0,0,0
						c0,0,0.1,0,0.1,0c0.1,0,0.1,0,0.2,0c0,0,0,0,0,0l0,0c0,0,0.1,0,0.1,0l0,0C19.6,21.1,20.3,20.4,20.8,19.6
						C20.8,19.7,20.8,19.7,20.8,19.6C20.8,19.6,20.8,19.6,20.8,19.6C20.8,19.6,20.8,19.6,20.8,19.6z"/>
				</g>
				<path d="M29.3,10.4c0.1-0.2,0.2-0.3,0.3-0.5c-0.6,0-1.3,0-1.9,0.2c-0.1-1.3-1-4.8-1-4.8l-0.5-0.7c0,0,0,0,0,0c0,0,0,0,0,0l0-0.1
					c0,0,0,0,0,0c-1.9-0.4-3.9-0.9-5.8-1.3c-0.2-0.6-0.9-0.8-1.5-0.8c-0.6,0-1.3-0.1-1.8,0.3c-0.2,0.1-0.2,0.5-0.5,0.5
					c-2.6,0.5-5.3,1.3-7.2,3.2C9.1,6.7,8.8,6.8,8.9,7.1C9,8.4,9.2,9.7,9.3,11c-1.8,0.5-3.7,1-5.5,1.5c-0.1,0.7-0.3,1.5-0.4,2.2
					c0.7-0.1,1.3-0.1,2-0.2c-0.1,0.7,0.1,1.4,0.5,2c0.1-0.1,0.2-0.2,0.3-0.3c0.4,0.7,1.2,1.2,2,1.3c0.1,1.3,0.1,2.8,1.3,3.6
					c0,1.3,0.4,2.5,1.1,3.5c0.1-0.1,0.2-0.2,0.3-0.4c0.4,1.1,1.2,2,2,2.7c0-0.1,0.1-0.3,0.1-0.4c0.6,0.3,1.2,0.6,1.6,1.1
					c0.8,0.8,1.9,1.4,3,1.6c0,0,0.1,0.1,0.1,0.1c0.4,0.1,0.9,0.2,1.3,0.1c0.4,0,0.8-0.2,1.2-0.4c0.7-0.4,1.4-0.9,2-1.3
					c0,0.1,0,0.2,0,0.3c0.2-0.1,0.3-0.2,0.4-0.4c0.1-0.1,0.2-0.1,0.2,0c0.1-0.1,0.2-0.2,0.4-0.3c0.5-0.3,0.9-0.7,1.3-1.1
					c0,0.1,0.1,0.3,0.1,0.4c0.8-0.7,1.4-1.6,1.9-2.5c0.1,0.1,0.3,0.2,0.3,0.3c0.8-1,0.9-2.4,1-3.7c0.9-1.2,0.7-2.9,0.8-4.4
					c0.1-0.1,0.2-0.3,0.3-0.4c0,0,0,0,0,0c0,0,0.1,0,0.1,0c0,0-0.1-0.1-0.1-0.1c0.5-0.1,1.1-0.4,1.4-0.8c0.5-0.6,0.6-1.4,0.6-2.2
					c0.1,0,0.3,0,0.4,0C30.9,11.9,30.4,10.7,29.3,10.4z M18.2,8.6c1.5-0.2,3-0.3,4.5,0l0,1.8c-1.5-0.1-2.9-0.2-4.4-0.1
					C18.1,9.7,18.1,9.1,18.2,8.6z M19.7,3.2c-0.4-0.1-0.8-0.2-1.2-0.2c-0.4-0.1-0.9,0.1-1.3,0.2C18,2.6,19,2.6,19.7,3.2z M14.3,5.1
					c0.1,0,0.1,0,0.2-0.1l0,0l0,0l0,0.1c-0.2,1.9-0.1,3.8,0.4,5.5c0,0-0.1,0-0.1,0C14.2,8.9,14,7,14.3,5.1z M13.7,11
					c-0.7,0.2-1.4,0.4-2.1,0.6c-0.2,0.1-0.5,0.2-0.7,0.2l0,0c-0.2,0.1-0.4,0.2-0.6,0.3c0.2-0.2,0.4-0.4,0.6-0.5
					c0.2-0.1,0.3-0.2,0.5-0.3l0.1-0.1l-0.1-0.1c-0.1-0.1-0.2-0.2-0.3-0.3c-0.2-0.2-0.4-0.4-0.5-0.7c-0.1-0.5-0.1-1-0.2-1.5
					c0-0.4-0.1-0.8-0.2-1.2c0.7-0.7,1.7-1.2,3-1.7c0,0.1,0,0.1,0,0.2C13.1,7.6,13.2,9.3,13.7,11z M13.2,5.5
					C13.2,5.5,13.2,5.5,13.2,5.5C13.2,5.5,13.2,5.5,13.2,5.5C13.2,5.5,13.2,5.5,13.2,5.5z M9.4,14.3C9.4,14.3,9.4,14.3,9.4,14.3
					c0.8-0.6,1.7-1,2.6-1.3c2.5-1,5.1-1.4,7.8-1.4c1.4,0,2.8,0,4.2,0.5c0.9,0.3,1.9,0.4,2.7,1c0.2,0.1,0.4,0.2,0.5,0.3
					c0.1,0.4,0.2,0.7,0.4,1c0,0,0,0,0,0c0,0,0,0,0.1,0c0,0.1,0.1,0.1,0.1,0.2c0,0,0.1,0.1,0.1,0.1c-1.5-0.2-3.1-0.2-4.6-0.2
					c-1,0.1-2.1,0.2-3,0.5c-0.4,0.2-0.9,0.3-1.4,0.3c-0.5,0-1,0-1.5-0.1c-0.4-0.1-0.7-0.3-1.1-0.4c-0.9-0.2-1.8-0.4-2.8-0.4
					c-1.4,0-2.9,0-4.3,0.1C9.2,14.5,9.3,14.4,9.4,14.3z M27.7,12.2C27.7,12.2,27.7,12.2,27.7,12.2c0,0,0.1,0,0.1,0c0,0,0,0,0,0
					C27.8,12.2,27.7,12.2,27.7,12.2z M28.2,15.4c-0.3,0-0.6,0-0.9,0c0,0,0-0.1,0-0.2c0.3,0,0.6,0,0.9,0
					C28.2,15.2,28.2,15.3,28.2,15.4L28.2,15.4z M27.3,17.3c-0.1,0.7-0.5,1.4-1.1,2c-0.5,0.4-1.2,0.5-1.8,0.5c-0.8,0-1.6-0.1-2.3-0.3
					c-0.8-0.2-1.3-0.8-1.6-1.4c-0.3-0.7-0.5-1.5-0.2-2.2c0.3-0.6,1.1-0.8,1.7-0.9c0.6-0.1,1.1-0.1,1.7-0.1c0.8,0,1.5,0,2.3,0.1
					c0.5,0.1,1.1,0.4,1.3,0.8C27.5,16.4,27.3,16.9,27.3,17.3z M16.9,16.5c0.1,0.9-0.4,1.9-1.2,2.6c-0.4,0.3-0.9,0.5-1.5,0.6
					c-0.9,0.2-1.9,0.2-2.8-0.1c-0.5-0.1-0.8-0.5-1.1-0.8c-0.4-0.5-0.6-1.2-0.7-1.8c-0.1-0.5-0.1-1,0.3-1.3c0.4-0.5,1.2-0.6,1.8-0.7
					c0.8-0.1,1.6,0,2.4,0c0.7,0,1.6,0.1,2.2,0.5C16.7,15.7,16.8,16.1,16.9,16.5z M7.8,16.7c-0.7-0.2-1-0.9-1.3-1.5
					c-0.2,0.1-0.3,0.2-0.5,0.3c0-0.4,0-0.7,0.1-1.1c0.2,0,0.4,0,0.6,0c0.4,0,0.9-0.1,1.3-0.1c-0.1,0.3-0.2,0.6-0.2,0.9
					c0,0.1,0.1,0.2,0.2,0.2c0,0.3,0.1,0.7,0.3,0.9c0,0.2,0,0.3,0,0.5C8.1,16.8,7.9,16.8,7.8,16.7z M8.3,15.8c0,0,0-0.1-0.1-0.1
					c0,0,0,0,0,0c0,0,0,0,0,0c0,0,0,0,0,0C8.4,15.8,8.4,15.8,8.3,15.8z M8.7,18.7C8.7,18.7,8.7,18.7,8.7,18.7
					c0.1,0.2,0.1,0.4,0.1,0.5C8.7,19.1,8.7,18.9,8.7,18.7z M8.6,14.4c0-0.1,0-0.1,0-0.2c0.1,0,0.2,0,0.3,0c0,0,0,0,0,0
					C8.8,14.3,8.7,14.3,8.6,14.4z M8.8,16.3c0-0.1,0-0.1,0-0.2C8.9,16.2,8.9,16.3,8.8,16.3C8.9,16.4,8.9,16.3,8.8,16.3z M9,15.2
					C9,15.2,9,15.2,9,15.2c0.2,0,0.4,0,0.7,0c0,0,0,0.1,0,0.2c-0.2,0-0.5,0-0.7,0C9,15.3,9,15.2,9,15.2z M28.4,15.9
					c0,0.3-0.1,0.6-0.1,1c0,0.2,0,0.3,0,0.5c0.1,0.6,0,1.3-0.2,1.9c0,0.2-0.1,0.4-0.1,0.6c-0.2,0.6-0.5,1.1-0.8,1.6c0,0,0,0,0.1,0
					c-0.1,0.7-0.3,1.3-0.5,1.9c-0.2-0.3-0.4-0.5-0.6-0.8c0,0.5,0,0.9-0.1,1.4c-0.2,0.6-0.6,1-0.9,1.5c-0.1-0.2-0.1-0.4-0.2-0.5
					c-0.2,0.2-0.3,0.3-0.5,0.5c-0.2,0.3-0.5,0.6-0.8,0.9c-0.4,0.3-0.9,0.6-1.4,0.9c0,0,0,0,0,0c0,0.1,0,0.1,0,0.2
					c-0.6,0.5-1.3,0.9-2,1.3c-0.3,0.2-0.7,0.4-1.1,0.5c-0.1,0-0.2,0-0.3,0c0,0,0-0.1,0-0.1c-0.2,0-0.4,0-0.6-0.1
					c-0.3-0.1-0.6-0.2-0.9-0.4c-0.9-0.2-1.7-0.7-2.3-1.4c-0.1,0.1-0.2,0.1-0.3,0c-0.2-0.3-0.5-0.5-0.8-0.8c0,0,0,0.1,0,0.1
					c-0.4-0.4-0.8-0.8-1.2-1.1c0,0.1-0.1,0.4-0.2,0.5c-0.8-0.7-1.3-1.7-1.2-2.7c-0.2,0.2-0.5,0.5-0.7,0.7c-0.3-0.7-0.5-1.4-0.5-2.1
					c0,0,0.1,0,0.1,0c-0.3-0.3-0.6-0.7-0.7-1.1c0,0,0,0,0,0c0,0,0,0,0,0c0-0.1,0.1-0.1,0-0.2c-0.1-0.3-0.2-0.7-0.3-1
					c-0.1-0.3-0.1-0.6-0.1-0.9c0,0,0,0,0,0C9,17.7,9,17.3,9,16.8c0.1,0.6,0.3,1.2,0.6,1.8c0.2,0.4,0.4,0.7,0.7,1
					c0.5,0.4,1.1,0.6,1.7,0.7c0.8,0.1,1.6,0,2.4-0.1c0.7-0.2,1.4-0.4,1.9-0.9c0.7-0.7,1.2-1.6,1.5-2.5c0.1-0.3,0.5-0.6,0.9-0.5
					c0.3,0.1,0.5,0.3,0.6,0.5c0.2,0.9,0.7,1.7,1.4,2.4c0.3,0.3,0.6,0.5,1,0.7c0.8,0.3,1.7,0.4,2.6,0.5c0.5,0,1.1,0,1.6-0.2
					c0.5-0.2,1-0.5,1.3-1c0.6-0.9,0.7-1.8,0.9-2.8C28.1,16.1,28.2,16,28.4,15.9C28.4,15.9,28.4,15.9,28.4,15.9z M28.3,13.1
					C28.3,13.1,28.3,13.1,28.3,13.1c0-0.1,0-0.1,0-0.1c0,0,0.1,0,0.1,0c0,0,0.1,0,0.1,0C28.5,13,28.5,13,28.3,13.1
					C28.4,13,28.4,13.1,28.3,13.1z M28.5,16c0,0,0-0.1,0-0.1c0,0,0,0,0.1,0C28.6,15.9,28.6,15.9,28.5,16z M30.2,14.4
					c-0.3,0.6-0.9,0.8-1.4,0.9c0,0,0,0,0,0c0,0,0-0.1,0-0.1c0.1,0,0.2-0.2,0.1-0.3c0,0-0.1-0.1-0.1-0.1c0,0,0,0,0,0l0-0.1
					c0,0-0.1,0-0.1,0c0,0,0,0,0,0c0,0,0,0,0,0c0,0,0-0.1-0.1-0.1c0.2-0.1,0.4-0.3,0.5-0.5c0.1-0.3,0.1-0.7,0.1-1
					c0.1-0.1,0.2-0.2,0.3-0.3c-0.4-0.6-0.9-1.2-1.6-1.1c0-0.1,0.1-0.2,0.1-0.4c0,0-0.1,0-0.1,0c0-0.1,0-0.3-0.1-0.4
					c0-0.1-0.1-0.2-0.1-0.3c0.4-0.1,0.7-0.2,1.1-0.2c-0.1,0.1-0.1,0.3-0.2,0.4c0.2,0,0.4,0,0.6,0.1c0.6,0.1,1,0.7,1.3,1.3
					C30.6,12.9,30.6,13.7,30.2,14.4z M28.6,13.3c0,0,0.1,0,0.1,0C28.7,13.3,28.6,13.4,28.6,13.3C28.6,13.4,28.6,13.4,28.6,13.3z"/>
			</g>
		</g>
	</g>
</g>
</svg>
